<?xml version="1.0" encoding="utf-8"?>
<!-- Generator: Adobe Illustrator 24.1.3, SVG Export Plug-In . SVG Version: 6.00 Build 0)  -->
<svg version="1.1" id="Layer_1" xmlns="http://www.w3.org/2000/svg" xmlns:xlink="http://www.w3.org/1999/xlink" x="0px" y="0px"
	 viewBox="0 0 173.8 28" style="enable-background:new 0 0 173.8 28;" xml:space="preserve">
<style type="text/css">
	.st0{fill:#FFFFFF;}
</style>
<g id="Layer_2_1_">
	<g id="Layer_1-2">
		<path class="st0" d="M34.9,22v-1.9c-1.1,1.5-2.9,2.3-4.7,2.2c-3.4,0-6.4-2.6-6.4-8.7c0-5.8,2.3-8.4,6.1-8.4c1.9-0.1,3.8,0.7,5,2.1
			v-7H41V22H34.9z M34.9,11.9c-0.6-1-1.6-1.6-2.8-1.6c-1.5,0-2.3,0.9-2.3,3.2c0,2.6,0.9,3.6,2.4,3.6c1.1,0.1,2.1-0.5,2.7-1.4
			L34.9,11.9z"/>
		<path class="st0" d="M59.3,19.6c-2.2,1.7-5,2.7-7.8,2.6c-5.2,0-8.5-2.9-8.5-8.4s3.2-8.7,8.5-8.7c4.8,0,7.8,2.8,7.8,7.9
			c0,0.8,0,1.5-0.1,2.3H48.9c0.1,1.3,1.3,2.3,2.7,2.2c0.1,0,0.1,0,0.2,0c2,0,4-0.5,5.8-1.4L59.3,19.6z M54,12.1
			c-0.1-1.8-0.9-2.7-2.5-2.7c-1.4,0-2.3,0.9-2.6,2.7H54z"/>
		<path class="st0" d="M78.1,19c0,6.5-2.8,9-8.6,9c-2.5,0-5-0.4-7.3-1.3l0.8-4c1.8,0.4,3.7,0.7,5.6,0.7c2.2,0,3.3-1,3.4-3.9
			c-1.4,1.4-2.6,1.8-5,1.8c-3.8,0-6.1-2.7-6.1-8c0-5.6,2.1-8.1,6.1-8.1c1.8,0.1,3.6,0.8,5,2V5.4h6.1V19z M72,11.6
			c-0.7-0.8-1.7-1.3-2.8-1.3c-1.6,0-2.3,0.8-2.3,2.9c0,2.4,0.8,3.3,2.4,3.3c1,0,2-0.4,2.6-1.2v-3.7H72z"/>
		<path class="st0" d="M87.1,8.6c1.2-2.4,2.5-3.5,4.3-3.5c0.7,0,1.3,0,2,0.1L93,11.5c-0.8-0.1-1.4-0.1-1.9-0.1c-2,0-3.4,0.5-4,2.8
			V22h-6.2V5.4H87L87.1,8.6z"/>
		<path class="st0" d="M110.2,19.6c-2.2,1.7-5,2.7-7.8,2.6c-5.2,0-8.5-2.9-8.5-8.4s3.2-8.7,8.5-8.7c4.8,0,7.8,2.8,7.8,7.9
			c0,0.8,0,1.5-0.1,2.3H99.9c0.1,1.3,1.3,2.3,2.7,2.2c0.1,0,0.1,0,0.2,0c2,0,4-0.5,5.8-1.4L110.2,19.6z M104.9,12.1
			c-0.1-1.8-0.9-2.7-2.5-2.7c-1.4,0-2.3,0.9-2.6,2.7H104.9z"/>
		<path class="st0" d="M127.9,19.6c-2.2,1.7-5,2.7-7.8,2.6c-5.2,0-8.5-2.9-8.5-8.4s3.2-8.7,8.5-8.7c4.8,0,7.8,2.8,7.8,7.9
			c0,0.8,0,1.5-0.1,2.3h-10.2c0.1,1.3,1.3,2.3,2.7,2.2c0.1,0,0.1,0,0.2,0c2,0,4-0.5,5.8-1.4L127.9,19.6z M122.6,12.1
			c-0.1-1.8-0.9-2.7-2.5-2.7c-1.4,0-2.3,0.9-2.6,2.7H122.6z"/>
		<path class="st0" d="M149.1,12.3v-1L144.8,22h-3.7L137,11.2V12l-0.3,9.9h-6.3l0.9-20.7h7l4.1,10c0.2,0.5,0.4,1.1,0.5,1.6
			c0.1-0.5,0.3-1.1,0.5-1.6l4.2-10h7l0.9,20.7h-6.3L149.1,12.3z"/>
		<path class="st0" d="M173.8,19.6c-2.2,1.7-5,2.7-7.8,2.6c-5.2,0-8.5-2.9-8.5-8.4s3.2-8.7,8.5-8.7c4.8,0,7.8,2.8,7.8,7.9
			c0,0.8,0,1.5-0.1,2.3h-10.2c0.1,1.3,1.3,2.3,2.7,2.2c0.1,0,0.1,0,0.2,0c2,0,4-0.5,5.8-1.4L173.8,19.6z M168.5,12.1
			c-0.1-1.8-0.9-2.7-2.5-2.7c-1.4,0-2.3,0.9-2.6,2.7H168.5z"/>
		<path class="st0" d="M15.6,18.6l-0.9,6.8h-4.2l0.9-6.8H7.7l-0.9,6.8H2.5l1-6.8H0l0.6-4.1h3.5l0.5-3.8H1.1l0.6-4.1h3.5L6.1,0h4.4
			L9.6,6.6h3.2l1-6.6h4.4l-0.9,6.6h3.9l-0.6,4.1h-3.9l-0.5,3.8h3.9l-0.6,4.1H15.6z M12.5,10.7H8.8l-0.5,3.8H12L12.5,10.7z"/>
	</g>
</g>
</svg>
