<svg id="Komponente_9_1" data-name="Komponente 9 – 1" xmlns="http://www.w3.org/2000/svg" width="471.789" height="960.092" viewBox="0 0 471.789 960.092">
  <path id="path16" d="M2643.34-478.616s-28.6-4.227-57.453-11.523c-.907-.225-1.813-.477-2.72-.7-6.84-1.787-13.626-3.723-20.026-5.811-.907-.327-1.813-.629-2.693-.931-8.92-3.045-16.893-6.416-22.84-10.063-.933-.553-1.813-1.133-2.613-1.712a23.226,23.226,0,0,1-6.893-6.892c-12.96-22.541-21.48-228.076-4.626-252.7a94.16,94.16,0,0,1,7.947-10.012c.987-1.107,1.987-2.164,3-3.22a159.582,159.582,0,0,1,18.68-16.328c.934-.679,1.813-1.333,2.667-1.961a178.078,178.078,0,0,1,16.333-10.592l70.547,14.617.693,317.835" transform="translate(-2514.089 1147.733)" fill="#637595"/>
  <path id="path18" d="M2660.874-615.951c-1.134-20.761-6.707-41.6-12.013-61.951-2.013-7.669-3.947-15.236-5.6-22.724-.36-1.679-.693-3.383-.973-5.061-2.893-16.115-2.454-32.149-1.48-48.341.293-4.6.626-9.193.933-13.816.253-4,.547-7.98.8-11.981q1.66-25.218,3.333-50.408c.12-2.117.28-4.235.413-6.352.413-6.251,1.133-12.655,1.626-19.032a127.272,127.272,0,0,0,.387-15.908c-.307-6.4-2.04-12.912-8.293-15.727a1.357,1.357,0,0,0-.827-.077c-.2-.051-4.133-8.444-4.387-8.444-3.773.9-7.52,1.731-11.213,2.583-22.853,5.189-51.427,11-59.64,36.643-.187.517-.333,1.032-.493,1.575-4.307,15.061-9.96,29.4-11.44,45.131-1.28,13.523-.84,27.211-2.987,40.652-2.213,13.856-6.667,27.249-8.64,41.153-2.174,15.416-.467,30.889-3.253,46.336-3.053,16.907-8.64,33.257-9.013,50.593-.2,9.941,2.333,17.817,6.693,24.119,6.747,9.761,17.893,15.649,30.213,19.523,11.16,3.512,28.28,5.345,38.893,6.843,4.413.647,8.854,1.163,13.293,1.6a326.547,326.547,0,0,0,38.6,1.472,1.314,1.314,0,0,0,1.24-.956,95.2,95.2,0,0,0,2.64-11.645,117.7,117.7,0,0,0,1.187-25.8" transform="translate(-2514.089 1147.733)" fill="#3b3348"/>
  <path id="path20" d="M2883.886-397.283c-2.08-59.313-2.107-100.422-12.266-158.994a2.242,2.242,0,0,0,1.426-3.524,11.9,11.9,0,0,0-2.546-2.661c-.28-1.484-.533-2.972-.813-4.455-.6-3.171-5.254-1.829-4.653,1.339.066.3.107.595.16.891-4.907-.853-10.613.512-15.693.744-15.893.724-31.787-.2-47.626-1.533-30.866-2.6-61.866-6.947-92.853-4-13.36,1.271-26.4,4.3-39.546,7.007-8.92,1.835-17.907,3.5-27,3.884-8.16.34-16.08-2.519-24.013-2.355-5.733.117-8.36,2.692-9.693,8.391-2.467,10.6-2.453,12.821-2.773,24.412-8.8,24.931-10.68,62.1-10.533,88.849.28,47.276,2.093,94.586,3.2,141.848.587,24.752,8.467,97.837,10.107,108.914.04.312.133.888.133.888h123.293a119.428,119.428,0,0,1,2.493-24.323c2.133-10.357,11.467-92.153,11.467-92.153s4.827,113.709,4.493,116.476h123.626s11.827-146.23,9.613-209.642" transform="translate(-2514.089 1147.733)" fill="#a5b1c7"/>
  <path id="path22" d="M2745.567-308.621l-.134-.007a1.243,1.243,0,0,1-1.12-1.376c.293-3.036,7.48-74.469,10.773-82.715,3.28-8.2,29.133-47.012,30.24-48.659a1.249,1.249,0,0,1,1.733-.349,1.265,1.265,0,0,1,.36,1.745c-.28.4-26.813,40.235-30,48.2-2.533,6.337-8.04,56.429-10.613,82.032a1.258,1.258,0,0,1-1.24,1.132" transform="translate(-2514.089 1147.733)" fill="#382823"/>
  <path id="path24" d="M2727.5-525.553c-62.84,0-113.826-4.593-114.426-4.648a1.252,1.252,0,0,1-1.133-1.368,1.255,1.255,0,0,1,1.36-1.137,1404.05,1404.05,0,0,0,147.293,4.187c71.56-2.007,107.733-9.953,108.093-10.032a1.241,1.241,0,0,1,1.493.952,1.247,1.247,0,0,1-.947,1.5c-.36.08-36.733,8.079-108.573,10.093-11.267.315-22.4.451-33.16.451" transform="translate(-2514.089 1147.733)" fill="#382823"/>
  <path id="path26" d="M2635.834-528.513l-.12-.007a1.263,1.263,0,0,1-1.133-1.377l1.253-12.575a1.283,1.283,0,0,1,1.387-1.125,1.261,1.261,0,0,1,1.12,1.376l-1.253,12.576a1.261,1.261,0,0,1-1.253,1.132" transform="translate(-2514.089 1147.733)" fill="#382823"/>
  <path id="path28" d="M2642.327-528.513l-.093,0a1.265,1.265,0,0,1-1.16-1.355l1.013-12.575a1.261,1.261,0,0,1,1.346-1.153,1.263,1.263,0,0,1,1.16,1.353l-1.013,12.576a1.257,1.257,0,0,1-1.253,1.157" transform="translate(-2514.089 1147.733)" fill="#382823"/>
  <path id="path30" d="M2863.713-536.067a1.257,1.257,0,0,1-1.253-1.159l-1.04-13.207a1.243,1.243,0,0,1,1.146-1.355,1.323,1.323,0,0,1,1.36,1.155l1.04,13.208a1.264,1.264,0,0,1-1.16,1.353l-.094,0" transform="translate(-2514.089 1147.733)" fill="#382823"/>
  <path id="path32" d="M2858.046-534.181a1.246,1.246,0,0,1-1.24-1.144l-1.267-13.835a1.27,1.27,0,0,1,1.147-1.368,1.276,1.276,0,0,1,1.36,1.139l1.254,13.836a1.25,1.25,0,0,1-1.134,1.367l-.12.005" transform="translate(-2514.089 1147.733)" fill="#382823"/>
  <path id="path34" d="M2760.313-542.277c-2,0-3.626,2.221-3.626,4.952s1.626,4.953,3.626,4.953,3.613-2.221,3.613-4.953S2762.3-542.277,2760.313-542.277Zm0,12.42c-3.387,0-6.133-3.348-6.133-7.468s2.747-7.468,6.133-7.468,6.133,3.349,6.133,7.468-2.76,7.468-6.133,7.468" transform="translate(-2514.089 1147.733)" fill="#382823"/>
  <path id="path36" d="M2755.433-388.01a1.229,1.229,0,0,1-.88-.365,1.254,1.254,0,0,1-.013-1.779l22.96-23.109a1.251,1.251,0,0,1,1.773-.005,1.266,1.266,0,0,1,.013,1.779l-22.96,23.109a1.255,1.255,0,0,1-.893.371" transform="translate(-2514.089 1147.733)" fill="#382823"/>
  <path id="path38" d="M2956.139-904.723s17.387,129.8-4.2,147.154-44.906,10-41.986-36.156,6.586-106.912,6.586-106.912l39.6-4.087" transform="translate(-2514.089 1147.733)" fill="#ffa18a"/>
  <path id="path40" d="M2795.847-1114.759a54.742,54.742,0,0,0-46.12-28.241c-20.24-6.744-43.653-6.309-63.16,1.484-16.733,6.688-32.373,19.577-41.573,35.712a51.259,51.259,0,0,0-5.693,15.445,51.388,51.388,0,0,0-3.08,12.128c-.893,7.247-.547,14.663-2.854,21.681-2.04,6.2-5.507,11.776-9.187,17.115-6.333,9.192-13.92,18.117-17.026,29.055-4.253,14.943,4.413,30.429-4.854,44.284-6.76,10.117-17.08,18.681-18.146,31.707-.467,5.716,5.067,8.165,4.374,13.621-.574,4.679-4.813,7.585-2.693,12.707,4.907,11.9,22.867,4.931,31.973,7.289,5.973,1.549,11.48,4.572,17.667,5.325,6.52.793,12.84-.9,19.107-2.5,4.68-1.2,9.347-2.407,14.2-2.6,4.307-.169,8.653.689,12.947-.12a26.113,26.113,0,0,0,7.733-3.124c1.093-.595,2.133-1.283,3.253-1.813,2.693-1.267,4.053-.691,6.72-1.621,4.773-1.663,3.08-6.539,2.52-10.545-.24-1.663-.507-3.321-.76-4.981,2.227.413,4.453.859,6.653,1.372,5.573,1.293,11.374,3.4,17.174,2.611,5.707-.78,10.453-4.387,14.24-8.9a46.588,46.588,0,0,0,9.947-.063c5.066-.519,13.173,15.989,16.6,13.153,5.893-4.872,11.64-8.805,9.746-28.931-.68-7.372,19.507-19.811,27.333-71.024a293.016,293.016,0,0,0,3.48-34.8c.76-22.145.64-45.555-10.52-65.428" transform="translate(-2514.089 1147.733)" fill="#875549"/>
  <path id="path42" d="M2859.446-878.993c-4.507-11.12-18.773-16.528-29.187-18.289a133.857,133.857,0,0,1-27.613-7.949c-1.787-.729-3.507-1.46-5.187-2.24-16.307-7.345-28.053-16.3-31.227-21.056-5.027-7.547-5.373-50.315-1.254-70.391a1.253,1.253,0,0,0-1.413-1.408q-31.58,3.584-63.36,4.553c-.053-3.724-.107-7.472-.16-11.195,0-1.611-2.493-1.284-2.493.3.027,3.673.08,7.321.134,10.995-.854.025-1.707.049-2.547.1-.626-.805-3.693-7.8-3.747-6.541-.747,13.485,1.16,34.039,0,47.5-.6,6.993-.826,14.364-3.826,20.831-3.387,7.371-9.987,12.653-16.6,17.031-5.427,3.572-37.107,16.453-37.107,16.453s33.28,31.169,39.147,32.327c17.36,3.447,35.067,5.836,52.6,8.2,15.827,2.139,31.8,1.409,47.827-.352a32.065,32.065,0,0,0,11.8,12.579c8.707,5.208,18.92,6.968,28.773,8.628,12.733,2.164,25.493,4.252,38.213,6.391a1.279,1.279,0,0,0,1.56-.856,117.461,117.461,0,0,0,4.787-22.641c.626-5.836,3.146-17.308.88-22.968" transform="translate(-2514.089 1147.733)" fill="#ffa18a"/>
  <path id="path44" d="M2788.447-1054.405c-.533-14.779.213-29.475-4.4-42.247-4.613-12.789-19.707-28.553-33.12-32.076-17.76-4.663-37.973-4.244-52.226,7.321-15.987,12.957-22.68,23.065-25.133,42.3-2.733,21.492-1.32,37.732,3.96,58.992,2.787,11.165,6.64,22.247,13.026,32.092s15.507,18.436,26.733,23.041c14.826,6.08,32.907,5.78,45.8-2.849,12.013-8.045,16.093-19.137,19.933-32.285,4.507-15.436,6.067-36.751,5.427-54.293" transform="translate(-2514.089 1147.733)" fill="#ffa18a"/>
  <path id="path46" d="M2676.82-1054.928s-9.933-5.873-12.187,10.16,2.92,27.071,11.28,27.8,10.654-11.725,10.654-11.725l-9.747-26.237" transform="translate(-2514.089 1147.733)" fill="#ffa18a"/>
  <path id="path48" d="M2768.047-1054.335c6.227-1.215,5.133,13.76.56,13.868a3.751,3.751,0,0,1-2.866-1.447c-2.454-2.916-2.414-11.5,2.307-12.421" transform="translate(-2514.089 1147.733)" fill="#382823"/>
  <path id="path50" d="M2709.967-1054.335c6.213-1.215,5.12,13.76.547,13.868a3.751,3.751,0,0,1-2.867-1.447c-2.453-2.916-2.413-11.5,2.32-12.421" transform="translate(-2514.089 1147.733)" fill="#382823"/>
  <path id="path52" d="M2743.793-959.2a52.006,52.006,0,0,1-9.667-.945c-17.12-3.235-40.48-23.581-41.467-24.445a1.254,1.254,0,0,1-.12-1.776,1.258,1.258,0,0,1,1.773-.116c.24.208,23.826,20.759,40.28,23.867,16.667,3.149,25.4-3.113,25.48-3.176a1.263,1.263,0,0,1,1.76.26,1.253,1.253,0,0,1-.253,1.757c-.307.229-6.267,4.575-17.787,4.575" transform="translate(-2514.089 1147.733)" fill="#f2795c"/>
  <path id="path54" d="M2746.646-1010.267a1.263,1.263,0,0,1-1.146-.748,1.266,1.266,0,0,1,.64-1.66c1.56-.691,5.88-3.2,5.253-5.6a31.056,31.056,0,0,0-2.013-5.016,67.326,67.326,0,0,1-3.933-10.036c-2.453-8.193-1.533-12.319-1.493-12.491a1.248,1.248,0,0,1,1.507-.937,1.256,1.256,0,0,1,.934,1.5c-.013.087-.76,3.8,1.466,11.2a64.2,64.2,0,0,0,3.8,9.692,33.089,33.089,0,0,1,2.16,5.443c1.307,4.967-6.333,8.4-6.667,8.54a1.233,1.233,0,0,1-.507.107" transform="translate(-2514.089 1147.733)" fill="#f2795c"/>
  <path id="path56" d="M2722.886-1005.451s4.093,2.021,17.613,3.121,20.333-.841,20.333-.841-4.72,11.4-18.973,11.556-18.974-13.836-18.974-13.836" transform="translate(-2514.089 1147.733)" fill="#fff"/>
  <path id="path58" d="M2675.327-1028.1a1.222,1.222,0,0,1-.667-.195c-.253-.16-2.467-1.685-3.173-6-.693-4.268,1.92-8.911,2.04-9.105a1.248,1.248,0,0,1,1.707-.468,1.261,1.261,0,0,1,.48,1.715c-.026.04-2.293,4.073-1.747,7.456.52,3.191,2,4.248,2.067,4.291a1.276,1.276,0,0,1,.333,1.737,1.25,1.25,0,0,1-1.04.565" transform="translate(-2514.089 1147.733)" fill="#f2795c"/>
  <path id="path60" d="M2724.993-1069.853c-5-1.663-10.16-1.537-15.346-.975a66.722,66.722,0,0,0-9.307,1.692c-2.667.689-6.32,1.236-8.067,3.607-1.853,2.509,3.573,1.717,4.84,1.772,4.2.181,8.413-.315,13.68-.393,4.08-.061,8.187.593,12.253.54,1.707-.023,3.64.245,4.773-1.423,1.8-2.649-.653-4.1-2.826-4.82" transform="translate(-2514.089 1147.733)" fill="#875549"/>
  <path id="path62" d="M2759.353-1065.045c.92,1.667,2.493,1.4,3.866,1.423,3.293.053,6.627-.6,9.92-.54,4.267.079,7.68.575,11.08.393,1.027-.055,5.427.737,3.92-1.772-2.12-3.555-7.413-4.255-11.107-4.844-5.12-.817-10.44-1.512-15.387.521-1.76.724-3.747,2.169-2.293,4.819" transform="translate(-2514.089 1147.733)" fill="#875549"/>
  <path id="path64" d="M2681.473-1050.095s-9.347-6.977-13.093,9.649.374,28.633,8.64,30.091,11.72-11.42,11.72-11.42l-7.267-28.32" transform="translate(-2514.089 1147.733)" fill="#ffa18a"/>
  <path id="path66" d="M2696.886-1042.419a1.834,1.834,0,0,1-.36-.035l-16.226-3.131a1.889,1.889,0,0,1-1.493-2.209,1.873,1.873,0,0,1,2.213-1.495l16.213,3.129a1.882,1.882,0,0,1,1.493,2.211,1.88,1.88,0,0,1-1.84,1.529" transform="translate(-2514.089 1147.733)" fill="#3b3348"/>
  <path id="path68" d="M2790.553-1087.672c-.293-.147-.587-.3-.88-.451-5.467-34.6-46.08-51.2-77.4-43.281a62.821,62.821,0,0,0-40.893,33.073,65.336,65.336,0,0,0-6.413,23.115c-.373,4.423.854,9.2.32,13.483-.533,4.213-5.507,7.1-7.053,11.087-4.44,11.409,1.267,25.22,8.787,36.233.56-.456,1.147-.9,1.707-1.341a18.558,18.558,0,0,0,7.146-10.551c1.56-5.853,1.08-12.491,4.427-17.781,2.987-4.72,8.373-5.979,12.213-9.673,4.56-4.4,4.453-11.547,8.48-16.415,3.987-4.805,10.413-7.431,15.906-10.028,7.307-3.445,16.467-5.016,22.587-10.329a74.776,74.776,0,0,0,8.4-8.085,23,23,0,0,0,3.293-4.921,21.824,21.824,0,0,0,1.893-6.339c10.213,9.509,21.493,16.9,34.36,23.477a1.037,1.037,0,0,0,1.587.763l.267.137c1.44.716,2.72-1.453,1.267-2.172" transform="translate(-2514.089 1147.733)" fill="#875549"/>
  <path id="path70" d="M2674.58-1123.071a1.3,1.3,0,0,0,.227-2.212,34.093,34.093,0,0,0-33.36-3.363c-8.16,3.52-20.307,12.7-21.654,22.289-1.467,10.541,13.573,6.371,18.84,4.536,12.893-4.505,22.267-15.788,35.747-18.877a1.266,1.266,0,0,0,.2-2.373" transform="translate(-2514.089 1147.733)" fill="#875549"/>
  <path id="path72" d="M2801.18-856.125c-.427,3.169-5.453,3.195-5.027,0a238.94,238.94,0,0,0,1.307-51.347c1.68.78,3.4,1.511,5.187,2.24a238.4,238.4,0,0,1-1.467,49.106" transform="translate(-2514.089 1147.733)" fill="#4d3932"/>
  <path id="path74" d="M2879.02-663.949c.253,12.7,1.973,52.909,2.067,53.236,2.853,9.761,4.013,46.987,1.107,53.377-4.813,10.54-265.6,22.356-280.973,9.109s12.747-118.413,9.88-131.32c-.733-3.3-1.387-6.793-2-10.465-1.333-8.051-2.36-16.831-3.107-25.861-1.134-13.611-1.64-27.749-1.547-40.629.053-9.283.44-17.912,1.093-25.257.146-1.812.32-3.523.52-5.157,1.24-10.491,4.08-29.435,7.173-48.428,1.36-8.327,2.76-16.68,4.093-24.327,3.307-18.844,6.173-33.511,6.973-33.511l.253-.075c2.24-1.535,9.307-20.377,9.307-20.377s41.467,31.471,108,30.516c30.387-.453,86.546-14.793,86.546-14.793a77.079,77.079,0,0,1,15.466,3.321,54.313,54.313,0,0,1,7.24,2.843c.787.377,1.56.755,2.347,1.183.96.528,1.933,1.081,2.893,1.711,4.533,2.968,8.32,6.893,10.08,12.024a56.121,56.121,0,0,1,2.2,11.648c.747,7.447,1.026,16.78,1.146,26.667.307,23.019-.12,49.132,3.107,61.888.147.6.293,1.183.467,1.711,1.787,5.685,2.093,13.961,1.667,23.271-1.133,23.195,3.92,83.4,4,87.7" transform="translate(-2514.089 1147.733)" fill="#3b3348"/>
  <path id="path76" d="M2979.619-757.157c-.32-1.207-.653-2.415-.96-3.621-.2-.78-.347-1.56-.52-2.34-1.64-8.176-1.56-16.579-.934-25.032.68-9.233,2.04-18.516,2.52-27.623a95.848,95.848,0,0,0-2.093-24.931c-.253-1.157-.507-2.34-.773-3.521-1.52-6.416-3.907-14.013-3.907-20.932a27.49,27.49,0,0,1,.227-3.52,27.865,27.865,0,0,0-2.36-15.784c-4.04-8.2-6.227-7.931-14.187-5.2a269.194,269.194,0,0,1-47.573,11.6.889.889,0,0,0-.387.151.979.979,0,0,0-1.174.881,58.094,58.094,0,0,0-.76,14.339c.2,2.34.813,4.68,1.253,7.02.667,3.371,1.013,6.741-.6,10.012-1.96,3.975-4.053,6.188-4.8,10.843a32.5,32.5,0,0,0-.36,3.4,50.539,50.539,0,0,0,.36,8.025c.2,1.787.653,3.572.773,5.333.333,5.459-.267,6.717-2.24,8.905a118.942,118.942,0,0,0-16.427-25.383c-.626-.78-1.28-1.535-1.96-2.291-5.813-6.489-7.826-12.528-9.48-20.829a62.66,62.66,0,0,0-1.786-6.817c-1.28-4.2-2.92-8.328-4.56-12.453-2.013-5.183-6.107-9.081-10.56-11.924-.96-.629-1.934-1.183-2.893-1.711-.787-.428-1.56-.805-2.347-1.183a54.3,54.3,0,0,0-7.24-2.843c-.32-.1-.627-.2-.933-.277-2.08-.629-3.387-.905-3.387-.905a258.347,258.347,0,0,1,3.667,26.692c.453,6.239.453,12.227-.507,16.227-.72,3.069-1.427,6.163-2.08,9.257a170.735,170.735,0,0,0-3.48,23.648c-.746,11.345.907,22.391,1.587,33.685a98.459,98.459,0,0,1-.027,11.9,101.793,101.793,0,0,1-4.627,24.3c-.093.352-.227.7-.32,1.057-2.893,9.132-6.04,18.616-2.693,28.1,3.267,9.359-8.227,23.875-4.787,33.308a34.849,34.849,0,0,0,1.533,3.521c4.76,9.259,14.04,16.58,23.8,23.347,5.24,3.623,10.613,7.12,15.48,10.667,1.307.956,2.586,1.912,3.813,2.893,13.867,10.943,31.52,16.377,48.88,18.289,9.693,1.081,21.267-.529,29.133-7.2,10.867-9.207,13.867-22.943,15.733-35.621a82.186,82.186,0,0,1,2-9.509c2.427-8.756,6.067-16.629,9.813-25.083q.88-1.886,1.72-3.849c6.36-14.691,5.626-31.848,1.427-47.019" transform="translate(-2514.089 1147.733)" fill="#3b3348"/>
  <path id="path78" d="M2642.327-847.043s19.68,69.468,8.826,127.748-78.68,180.278-79.053,181.972,0,37.747,0,37.747,76.733-115.316,92.24-171.08,15.813-97.694,12.52-124.109-11.68-58.972-11.68-58.972l-22.853,6.695" transform="translate(-2514.089 1147.733)" fill="#f5ebe3"/>
  <path id="path80" d="M2721.553-858.607c-2.6-4.411-6.16-8.175-9.307-12.192a32.159,32.159,0,0,1-7.267-19.7,54.465,54.465,0,0,0-8.507-27.585c-2.973-4.92-6.013-18.431-6.373-24.2-.826-13.319-.867-20.137-1.453-26.689a1.217,1.217,0,0,0-.36-2.2c-21.2-4.573-41.413,20.451-59.493,30.336-9.453,5.16-19.707,8.376-29.173,13.395-6.387,3.391-13.573,9.144-13.773,17.107-.173,7.319,7.253,13.733,12.8,17.385,2.067,1.365,4.453,2.155,6.493,3.543a13.706,13.706,0,0,1,1.427,1.127,63.625,63.625,0,0,1,8.626,12.756c5.44,10.968,5.187,22.895,12.906,32.883,3.093,3.991,6.6,7.667,9.347,11.921,2.893,4.507,3.48,9.615,5.667,14.379,4.027,8.763,14.387,17.48,23.107,21.205a1.277,1.277,0,0,0,1.893-1.087c.08-5.593-3.827-10.477-5.6-15.657a61.069,61.069,0,0,1-1.8-6.612,63.685,63.685,0,0,0,4.147,6.157,20.676,20.676,0,0,0,8.253,6.719c1.88.8,3.667,1.1,5.467,2.157,2.92,1.7,3.92,4.087,5.973,6.6,2.72,3.341,7.627,6.337,11.227,2.344,1.427-1.579,1.747-3.657,1.987-5.7.654-5.367,1.253-9.444,3.16-14.535a64.771,64.771,0,0,0,4.427-26.459,60.185,60.185,0,0,0-2.573-14.156,19.108,19.108,0,0,0,5.507,5.616c7.4,4.732,10.32,13.127,14.226,20.757a1.267,1.267,0,0,0,2.293-.3,36.781,36.781,0,0,0-3.253-29.307" transform="translate(-2514.089 1147.733)" fill="#875549"/>
  <path id="path82" d="M2803.26-783.9a22.256,22.256,0,0,0-6.893,6.764l-.053-.111a10.84,10.84,0,0,0-1.76-7.755,4.357,4.357,0,0,0-3.787-1.949,2.763,2.763,0,0,0-3.427,1.671c-2.36,6.867-.493,16.685,6.24,20.633,7.467,4.375,12.173-11.715,13.374-16.412a2.544,2.544,0,0,0-3.693-2.841" transform="translate(-2514.089 1147.733)" fill="#637595"/>
  <path id="path84" d="M2834.527-860.561c-.293-2.231-3.4-3.725-4.693-1.269-.307.6-.587,1.2-.88,1.805a5.978,5.978,0,0,0-4.693-2.412c-6.08.284-4.053,7.309-2.587,10.725,1.227,2.864,4.28,12.331,9,8.425,1.933-1.6,2.84-5.187,3.373-7.513a27.331,27.331,0,0,0,.48-9.761" transform="translate(-2514.089 1147.733)" fill="#637595"/>
  <path id="path86" d="M2729.967-811.055c-1.88-.127-3.16,1.411-3.987,2.9a14.955,14.955,0,0,0-.854,1.888c-.8-1.184-1.76-2.567-3.133-3.071a2.84,2.84,0,0,0-2.346.095,4.413,4.413,0,0,0-3.053,2.148c-1.027,1.833-.453,3.841.28,5.66a37.137,37.137,0,0,0,2.76,6.168c1.813,2.892,5.213,5.1,8.64,3.376,4.12-2.085,7.907-18.751,1.693-19.167" transform="translate(-2514.089 1147.733)" fill="#637595"/>
  <path id="path88" d="M2609.06-829.19a2.548,2.548,0,0,0-3.787-2.172,11.3,11.3,0,0,0-2.867,2.029,7.163,7.163,0,0,0-4.933-6.291c-1.333-.517-2.667.585-3.093,1.757-2.2,6.036-.987,15.512,5.293,18.876,8.467,4.541,9.573-9.263,9.387-14.2" transform="translate(-2514.089 1147.733)" fill="#637595"/>
  <path id="path90" d="M2860.353-598.509a2.547,2.547,0,0,0-3.787-2.172,11.292,11.292,0,0,0-2.866,2.031,7.165,7.165,0,0,0-4.934-6.292c-1.333-.517-2.667.585-3.093,1.757-2.2,6.037-.987,15.512,5.293,18.877,8.466,4.541,9.573-9.265,9.387-14.2" transform="translate(-2514.089 1147.733)" fill="#637595"/>
  <path id="path92" d="M2650.767-750.165c-.227-1.4-1.88-2.011-3.093-1.756a6.933,6.933,0,0,0-5.026,4.043l-.253.2a2.423,2.423,0,0,0-1.213-1.969c-4.133-1.956-7.387,1.609-7.04,5.725.36,4.233,2.8,9.148,6.493,11.452a4.918,4.918,0,0,0,5.053.515,2.226,2.226,0,0,0,2.147-1.181,25.281,25.281,0,0,0,2.933-17.029" transform="translate(-2514.089 1147.733)" fill="#637595"/>
  <path id="path94" d="M2585.394-675.449a2.526,2.526,0,0,0-4.2-1.111,18.262,18.262,0,0,0-3.48,5.512c-.16-.569-.28-1.645-.427-2.056a5.742,5.742,0,0,0-1.613-2.531,4.1,4.1,0,0,0-5.413-.429c-1.96,1.641-1.333,4.679-1.053,6.895a14.067,14.067,0,0,0,2.6,7.041c2.546,3.229,7.626,4.675,11.026,1.883,4.107-3.367,3.413-10.609,2.56-15.2" transform="translate(-2514.089 1147.733)" fill="#637595"/>
  <path id="path96" d="M2721.927-706.08a4.853,4.853,0,0,0-3.733,2.6,11,11,0,0,0-3.88-3.523c-1.813-.993-3.547.305-3.773,2.173a15.311,15.311,0,0,0,1.573,8.151c.933,2.132,1.987,4.735,4.013,6.072,4,2.631,8.72-.6,9.854-4.7.854-3.112.973-11.153-4.053-10.775" transform="translate(-2514.089 1147.733)" fill="#a18bbc"/>
  <path id="path98" d="M2817.58-683.016a2.543,2.543,0,0,0-3.693-1.5,18.81,18.81,0,0,0-5.16,5.191,8.538,8.538,0,0,0-3.893-7.245,2.566,2.566,0,0,0-3.44.9c-2.174,3.008-2.08,6.779-.733,10.116,1.093,2.739,3.173,7.237,6.44,7.855,3.427.647,6.253-2.716,8.107-5.112,2.293-2.961,3.693-6.52,2.374-10.2" transform="translate(-2514.089 1147.733)" fill="#637595"/>
  <path id="path100" d="M2948.58-833.927a4.155,4.155,0,0,0-6.387-1.816l-.12.1a5.787,5.787,0,0,0-4.08-3.517,4.664,4.664,0,0,0-5.653,4.167c-.44,3.2,1.16,6.511,2.76,9.169,1.48,2.451,3.24,5.609,6.44,5.811,2.84.179,4.573-2.153,5.44-4.557.92-2.544,2.587-6.671,1.6-9.356" transform="translate(-2514.089 1147.733)" fill="#637595"/>
  <path id="path102" d="M2600.42-568.951l6.347,13.136s143.266,12.457,144.4,11.363,32.573-186.9,32.573-186.9l-14.787-1.153L2600.42-568.951" transform="translate(-2514.089 1147.733)" fill="#e35f4b"/>
  <path id="path104" d="M2779.54-730.2,2746.7-549.9l-135.8-11.22-6.533-13.405,165.92-166.852,9.253,11.185" transform="translate(-2514.089 1147.733)" fill="#fff"/>
  <path id="path106" d="M2774.593-744.785l-33.786,187.817L2600.42-568.951l29.907-176.921,144.266,1.087" transform="translate(-2514.089 1147.733)" fill="#e35f4b"/>
  <path id="path108" d="M2889.78-759.057a11.968,11.968,0,0,0-3.187,1.36,4.274,4.274,0,0,0-.987-2.228,4.233,4.233,0,0,0-4.973-1.4c-3.96,1.809-2.893,9.764-2.387,13.157.293,1.928.68,4.151,2.48,5.277s4,.489,5.574-.707c3.72-2.84,5.933-7.851,6.573-12.368.267-1.847-1.053-3.624-3.093-3.095" transform="translate(-2514.089 1147.733)" fill="#637595"/>
  <path id="path110" d="M2938.02-699.006c-2.587-.705-4.52,1.551-5.92,4.36a12.789,12.789,0,0,0-5.053-5.536c-1.267-.752-3.453-.127-3.707,1.5-.72,4.82-.92,11.792,2.933,15.507,4.013,3.868,9.547.687,12.053-3.212,1.813-2.816,4.654-11.279-.307-12.623" transform="translate(-2514.089 1147.733)" fill="#637595"/>
  <path id="path112" d="M2754.047-601.513c-.36-1.94-2.933-2.321-4.2-1.111a13.7,13.7,0,0,0-3.16,4.517c-1.094-3.367-3.84-6.66-7.76-4.757-5.64,2.739.227,10.061,2.307,13.2,2.253,3.393,6.693,6.675,10.36,2.98,3.52-3.548,3.293-10.337,2.453-14.828" transform="translate(-2514.089 1147.733)" fill="#a18bbc"/>
  <path id="path114" d="M2752.713-1113a1.265,1.265,0,0,1-1.16-.753c-.04-.091-4.04-9.127-9.773-13.5a22.536,22.536,0,0,1-5.56-5.884,13.6,13.6,0,0,0-4.427-4.436c-5.053-3.275-17.933-5.3-18.067-5.317a1.256,1.256,0,0,1-1.04-1.436,1.263,1.263,0,0,1,1.427-1.049c.546.084,13.546,2.127,19.053,5.689a16.036,16.036,0,0,1,5.134,5.125,19.888,19.888,0,0,0,5,5.309c6.266,4.771,10.386,14.093,10.56,14.489a1.26,1.26,0,0,1-.64,1.655,1.331,1.331,0,0,1-.507.107" transform="translate(-2514.089 1147.733)" fill="#6b3b30"/>
  <path id="path116" d="M2794.9-1077.944a1.259,1.259,0,0,1-1.253-1.205,17.485,17.485,0,0,0-3.467-8.585c-3.213-4.411-7.547-7.857-17.173-13.657a71.8,71.8,0,0,1-15.093-12.028,1.277,1.277,0,0,1,.093-1.776,1.268,1.268,0,0,1,1.787.092,70.321,70.321,0,0,0,14.507,11.557c8.64,5.2,14.053,9.025,17.906,14.331a19.56,19.56,0,0,1,3.947,9.972,1.247,1.247,0,0,1-1.2,1.3h-.053" transform="translate(-2514.089 1147.733)" fill="#6b3b30"/>
  <path id="path118" d="M2781.22-1107.328a1.279,1.279,0,0,1-.973-.452,38.607,38.607,0,0,0-11.067-8.5c-7-3.529-16.854-7.624-16.947-7.664a1.26,1.26,0,0,1-.68-1.644,1.257,1.257,0,0,1,1.64-.681c.093.043,10.04,4.172,17.12,7.744a40.357,40.357,0,0,1,11.867,9.14,1.259,1.259,0,0,1-.16,1.769,1.251,1.251,0,0,1-.8.292" transform="translate(-2514.089 1147.733)" fill="#6b3b30"/>
  <path id="path120" d="M2645.847-1105.928a1.237,1.237,0,0,1-.653-.184,1.252,1.252,0,0,1-.427-1.727c.24-.4,5.987-9.819,11.733-14.767,5.626-4.849,7.773-5.9,8-6.007a1.258,1.258,0,0,1,1.667.616,1.26,1.26,0,0,1-.613,1.669c-.013,0-2.053,1.016-7.413,5.628-5.44,4.685-11.16,14.069-11.227,14.165a1.226,1.226,0,0,1-1.067.605" transform="translate(-2514.089 1147.733)" fill="#6b3b30"/>
  <path id="path122" d="M2691.313-1063.749a1.356,1.356,0,0,1-.374-.053,1.26,1.26,0,0,1-.84-1.569c.12-.389,2.973-9.6,8.613-14.756,5.013-4.573,11.28-6.952,21.667-10.895l4.107-1.563c11.88-4.555,17.453-19.444,17.507-19.593a1.247,1.247,0,0,1,1.613-.748,1.253,1.253,0,0,1,.747,1.612c-.24.656-6.013,16.108-18.973,21.077l-4.107,1.567c-10.107,3.836-16.213,6.151-20.866,10.4-5.133,4.691-7.867,13.543-7.893,13.631a1.254,1.254,0,0,1-1.2.891" transform="translate(-2514.089 1147.733)" fill="#6b3b30"/>
  <path id="path124" d="M2717.247-1098.189a1.268,1.268,0,0,1-1.026-.515,1.27,1.27,0,0,1,.28-1.759,74.923,74.923,0,0,0,12.267-12.076c5.974-7.367,7.08-12.755,7.094-12.808a1.233,1.233,0,0,1,1.467-1,1.26,1.26,0,0,1,1,1.464c-.04.241-1.187,6.012-7.6,13.927a75.654,75.654,0,0,1-12.747,12.523,1.24,1.24,0,0,1-.733.241" transform="translate(-2514.089 1147.733)" fill="#6b3b30"/>
  <path id="path126" d="M2610.26-966.044a1.24,1.24,0,0,1-.733-.235,1.256,1.256,0,0,1-.293-1.756c.013-.021,2.04-2.98,4.64-11.985,1.467-5.1,1.36-9.428,1.213-14.913a111.386,111.386,0,0,1,.413-15.439c1.093-10.4,4.226-12.285,8.96-15.137a42.9,42.9,0,0,0,6.773-4.791c8.453-7.455,16.547-30.067,16.613-30.293a1.277,1.277,0,0,1,1.613-.767,1.251,1.251,0,0,1,.76,1.607c-.333.953-8.387,23.457-17.333,31.34a44.6,44.6,0,0,1-7.133,5.059c-4.373,2.637-6.787,4.091-7.747,13.245a106.364,106.364,0,0,0-.4,15.111c.133,5.476.253,10.205-1.32,15.677-2.76,9.532-4.92,12.624-5.013,12.752a1.237,1.237,0,0,1-1.013.525" transform="translate(-2514.089 1147.733)" fill="#6b3b30"/>
  <path id="path128" d="M2651.553-1048.853a1.264,1.264,0,0,1-.667-.192,1.258,1.258,0,0,1-.413-1.713c.826-1.594,6.2-21.845,9.4-34.259a1.253,1.253,0,0,1,1.533-.9,1.254,1.254,0,0,1,.907,1.532c-2,7.765-8.626,33.234-9.693,34.944a1.262,1.262,0,0,1-1.066.591" transform="translate(-2514.089 1147.733)" fill="#6b3b30"/>
  <path id="path130" d="M2701.247-859.337a1.271,1.271,0,0,1-1.267-1.18c0-.167-1.067-16.864-2.707-28.837-1.16-8.395-1.907-10.26-4.107-15.8-.973-2.423-2.173-5.439-3.8-9.941-5.467-15.128-5.533-25.768-5.533-26.215a1.267,1.267,0,0,1,1.267-1.257,1.255,1.255,0,0,1,1.253,1.257c0,.105.08,10.679,5.374,25.36,1.613,4.465,2.813,7.459,3.773,9.864,2.227,5.595,3.066,7.688,4.267,16.387,1.653,12.065,2.72,28.855,2.733,29.024a1.267,1.267,0,0,1-1.187,1.333l-.067,0" transform="translate(-2514.089 1147.733)" fill="#6b3b30"/>
  <path id="path132" d="M2681.54-916.988a1.246,1.246,0,0,1-1.146-.739c-.174-.369-4.093-9.191-4.733-23.524-.626-14.276,3.64-31.343,3.813-32.063a1.256,1.256,0,0,1,1.533-.912,1.258,1.258,0,0,1,.906,1.528c-.04.172-4.346,17.435-3.733,31.336.613,13.812,4.467,22.512,4.507,22.6a1.26,1.26,0,0,1-.64,1.663,1.177,1.177,0,0,1-.507.112" transform="translate(-2514.089 1147.733)" fill="#6b3b30"/>
  <path id="path134" d="M2673.98-815.521a1.261,1.261,0,0,1-.907-.384c-.387-.395-9.373-9.781-11.933-19.529-2.413-9.159-12.947-21.6-13.053-21.724a1.262,1.262,0,0,1,.133-1.773,1.257,1.257,0,0,1,1.773.143c.453.527,11.013,13.007,13.573,22.713,2.4,9.107,11.227,18.331,11.32,18.424a1.266,1.266,0,0,1-.027,1.779,1.279,1.279,0,0,1-.88.352" transform="translate(-2514.089 1147.733)" fill="#6b3b30"/>
  <path id="path136" d="M2636.247-874.013a1.253,1.253,0,0,1-1.253-1.253c0-.077-.107-7.865-6.453-19.921a105.014,105.014,0,0,0-5.893-9.464c-5.627-8.347-11.44-16.976-11.133-31.441.427-19.371,6.8-31.312,7.08-31.811a1.244,1.244,0,0,1,1.693-.5,1.254,1.254,0,0,1,.507,1.705c-.053.117-6.36,11.945-6.76,30.663-.307,13.668,5.04,21.593,10.693,29.981a104.119,104.119,0,0,1,6.04,9.7c6.667,12.665,6.747,20.752,6.747,21.091a1.263,1.263,0,0,1-1.253,1.256h-.013" transform="translate(-2514.089 1147.733)" fill="#6b3b30"/>
  <path id="path138" d="M2646.727-894.515a1.249,1.249,0,0,1-1.227-1.007c-.013-.079-1.667-8.02-5.24-12.975-3.747-5.213-7.427-11.043-7.453-11.1a1.254,1.254,0,0,1,.387-1.735,1.262,1.262,0,0,1,1.733.4c.04.059,3.667,5.824,7.373,10.972,3.893,5.4,5.6,13.595,5.667,13.941a1.267,1.267,0,0,1-.987,1.484l-.253.025" transform="translate(-2514.089 1147.733)" fill="#6b3b30"/>
  <path id="path140" d="M2985.353-967.451c-4.974-5.952-8.626,1.341-11.4,6.213-2.174,3.116-3.947,6.587-6.134,9.644,2.747-8.705,5.414-17.435,7.934-26.211,1-3.483,3.693-9.172.987-12.579a9.843,9.843,0,0,0-3.854-2.653c1.52-4.293,3.04-7.727.347-10.52-4.893-5.075-10.093,1.185-12.36,5.4-3.026,5.637-5.733,11.469-8.667,17.159-1.68,3.255-10.506,20.177-10.506,20.177q1.44-7.3,3.146-14.547c.866-3.673,1.826-7.319,2.907-10.929,1.32-4.411,7.267-14.624-.12-17.041-5.053-1.653-10.626,10.76-12.24,14.407a355.143,355.143,0,0,0-12.853,33.524c-1.52,4.6-2.773,11.767-5.974,16.56-4.72-7.76-5.28-15.735-6.2-24.588-.307-2.972-1-6.573-4.36-7.545a4.316,4.316,0,0,0-5.44,2.564c-.96,2.211-.32,5.417-.227,7.617q.26,5.922.52,11.843c.32,7.623.427,15.3,1.093,22.9,1.16,13.285,6.32,21.761,15.92,30.04a1.442,1.442,0,0,0,.827,1.944c8.12,2.925,31.826,2.569,31.826,2.569s4.586-6.339,8.68-13.219c5.187-8.759,12.627-26.4,17.293-38,2.56-6.348,11.64-21.384,8.853-24.729" transform="translate(-2514.089 1147.733)" fill="#ffa18a"/>
  <path id="path142" d="M2936.233-906.3a1.254,1.254,0,0,1-1.253-1.2c-.013-.084-.44-8.391-3.827-14.548s-13.36-13.347-13.453-13.419a1.256,1.256,0,0,1-.293-1.756,1.264,1.264,0,0,1,1.76-.291c.427.307,10.533,7.581,14.2,14.255s4.107,15.279,4.12,15.641a1.256,1.256,0,0,1-1.2,1.315h-.053" transform="translate(-2514.089 1147.733)" fill="#f2795c"/>
  <path id="path144" d="M2954.7-953.256a1.21,1.21,0,0,1-.493-.1,1.266,1.266,0,0,1-.667-1.652l15.307-35.64a1.259,1.259,0,0,1,1.653-.66,1.248,1.248,0,0,1,.653,1.652l-15.293,35.64a1.278,1.278,0,0,1-1.16.761" transform="translate(-2514.089 1147.733)" fill="#f2795c"/>
  <path id="path146" d="M2773.3-622.417c-2.733-5.708-10.92-5.045-16.12-5.553-1.813-.176-3.613-.412-5.427-.633a7.2,7.2,0,0,0,3.36-1.579c7.253-7-10.467-8.192-13.2-8.4-14.68-1.141-8.974-.5-23.48-2.88-4.8-.785-10.84.409-15.427,2.284-3.4,1.387-12.667,8.139-12.667,8.139s-6.8-1.544-15.613-3.548c-1.387,13.007-2.2,26.069-4.973,38.9-.32,1.485-.68,2.961-1.027,4.437,11.947,1.252,19.84,2.041,19.84,2.041s27.386,10.42,42,12.089c8.4.959,30.573,4.877,33.56-5.067a6.214,6.214,0,0,0,5.773-6.6,7.991,7.991,0,0,0-3.52-6.395s4.547-1.86,5.48-5.556c1.027-4.025-1.667-8.036-4.707-10.457,3.8-2.875,8.867-5.565,6.147-11.217" transform="translate(-2514.089 1147.733)" fill="#ffa18a"/>
  <path id="path148" d="M2762.993-610.631h-.04l-13.48-.4a1.251,1.251,0,0,1-1.214-1.3,1.273,1.273,0,0,1,1.293-1.22l13.48.4a1.25,1.25,0,0,1,1.213,1.3,1.257,1.257,0,0,1-1.253,1.219" transform="translate(-2514.089 1147.733)" fill="#f2795c"/>
  <path id="path150" d="M2746.7-627.966h-.04l-22.093-.668a1.25,1.25,0,0,1-1.213-1.295,1.3,1.3,0,0,1,1.293-1.22l22.093.668a1.251,1.251,0,0,1,1.213,1.3,1.248,1.248,0,0,1-1.253,1.219" transform="translate(-2514.089 1147.733)" fill="#f2795c"/>
  <path id="path152" d="M2763.22-595l-.08,0-13.92-.785a1.258,1.258,0,0,1-1.187-1.327,1.243,1.243,0,0,1,1.333-1.185l13.92.787a1.26,1.26,0,0,1,1.187,1.327A1.265,1.265,0,0,1,2763.22-595" transform="translate(-2514.089 1147.733)" fill="#f2795c"/>
  <path id="path154" d="M2760.42-582.563l-.08,0-18.507-1.236a1.255,1.255,0,0,1-1.173-1.339,1.266,1.266,0,0,1,1.333-1.171l18.507,1.235a1.256,1.256,0,0,1,1.173,1.339,1.257,1.257,0,0,1-1.253,1.175" transform="translate(-2514.089 1147.733)" fill="#f2795c"/>
  <path id="path156" d="M2611.234-674.977s18.013,4.739,29.067,13.963,11.253,5.451,21.213,7.967,20.854,4.192,20.027,9.644-6.52,61.9-9.04,64.274-5.067-1.92-17.827-1.868-17.373,3.416-27.6,2.585-34.64-3.755-34.64-3.755l18.8-92.81" transform="translate(-2514.089 1147.733)" fill="#3b3348"/>
  <path id="path158" d="M2658.914-628.349a2.552,2.552,0,0,0-4.293-1.779,15.551,15.551,0,0,0-1.72,1.76c-.667-2.757-2.227-5.043-5.4-4.567-5.28.792-4.547,7.313-3.173,10.951,1.293,3.449,4.707,9.805,9.28,7.429,4.4-2.293,5.693-9.36,5.307-13.795" transform="translate(-2514.089 1147.733)" fill="#637595"/>
  <path id="path160" d="M2666.74-715.653l-4.227,32.035,56.36,1.568,5.053-32.895-57.187-.708" transform="translate(-2514.089 1147.733)" fill="#fff"/>
  <path id="path162" d="M2624.1-673.718l-.213-.017a1.262,1.262,0,0,1-1.04-1.441l10.907-67.8a1.254,1.254,0,0,1,1.44-1.043,1.264,1.264,0,0,1,1.04,1.443l-10.893,67.8a1.269,1.269,0,0,1-1.24,1.059" transform="translate(-2514.089 1147.733)" fill="#382823"/>
  <path id="path164" d="M2606.354-569.205l-.28-.032a1.263,1.263,0,0,1-.96-1.5l1.76-7.815a1.25,1.25,0,0,1,1.493-.953,1.263,1.263,0,0,1,.96,1.5l-1.747,7.815a1.263,1.263,0,0,1-1.227.985" transform="translate(-2514.089 1147.733)" fill="#382823"/>
  <path id="path166" d="M2707.22-709.337h-.04l-26.827-.629a1.26,1.26,0,0,1-1.227-1.287,1.3,1.3,0,0,1,1.28-1.228l26.84.628a1.262,1.262,0,0,1,1.227,1.288,1.254,1.254,0,0,1-1.253,1.228" transform="translate(-2514.089 1147.733)" fill="#f5ebe3"/>
  <path id="path168" d="M2717.647-697.06h-.027l-49.213-1.047a1.267,1.267,0,0,1-1.24-1.284,1.276,1.276,0,0,1,1.267-1.232h.026l49.213,1.047a1.259,1.259,0,0,1,1.24,1.285,1.258,1.258,0,0,1-1.267,1.231" transform="translate(-2514.089 1147.733)" fill="#f5ebe3"/>
  <path id="path170" d="M2716.086-689.769h-.026l-48.707-1.035a1.255,1.255,0,0,1-1.227-1.284,1.255,1.255,0,0,1,1.253-1.231h.027l48.707,1.033A1.257,1.257,0,0,1,2717.34-691a1.255,1.255,0,0,1-1.253,1.231" transform="translate(-2514.089 1147.733)" fill="#f5ebe3"/>
  <path id="path172" d="M2571.94-540.049a1.265,1.265,0,0,1-1.267-1.213l-1.4-40.252a1.256,1.256,0,0,1,1.213-1.3,1.21,1.21,0,0,1,1.293,1.212l1.413,40.251a1.257,1.257,0,0,1-1.213,1.3h-.04" transform="translate(-2514.089 1147.733)" fill="#382823"/>
  <path id="path174" d="M2566.647-567.088a124.389,124.389,0,0,1-23.107-2.145,134.71,134.71,0,0,1-24.787-7.9,1.243,1.243,0,0,1-.627-1.663,1.244,1.244,0,0,1,1.654-.628,133.171,133.171,0,0,0,24.28,7.729,126.154,126.154,0,0,0,23.413,2.085h.013a1.251,1.251,0,0,1,1.253,1.239,1.25,1.25,0,0,1-1.24,1.277c-.067,0-.36.005-.854.005" transform="translate(-2514.089 1147.733)" fill="#382823"/>
  <path id="path176" d="M2879.433-653.885a1.257,1.257,0,0,1-1.253-1.191c-.053-.928-5.04-93.114-6.08-119.793-1.04-26.653-3.6-67-3.626-67.406a1.26,1.26,0,0,1,1.173-1.336,1.222,1.222,0,0,1,1.333,1.176c.027.4,2.6,40.785,3.64,67.468,1.026,26.66,6.026,118.828,6.066,119.757a1.257,1.257,0,0,1-1.187,1.324h-.067" transform="translate(-2514.089 1147.733)" fill="#595166"/>
  <path id="path178" d="M2897.806-684.389l-.214-.017a1.267,1.267,0,0,1-1.04-1.444c.04-.211,3.453-21.015,3.427-25.367,0-.637,0-1.637.013-2.945.027-8.177.107-27.327-1.2-45.924a163.84,163.84,0,0,1,2.747-41.356,1.258,1.258,0,0,1,1.493-.957,1.259,1.259,0,0,1,.96,1.5,161.811,161.811,0,0,0-2.693,40.637c1.32,18.692,1.24,37.907,1.2,46.113v2.919c.013,4.563-3.32,24.925-3.453,25.789a1.267,1.267,0,0,1-1.24,1.053" transform="translate(-2514.089 1147.733)" fill="#595166"/>
  <path id="path180" d="M2611.234-673.718a1.227,1.227,0,0,1-.387-.064l-32.52-10.669a1.242,1.242,0,0,1-.8-1.587,1.25,1.25,0,0,1,1.587-.8l32.52,10.671a1.264,1.264,0,0,1,.8,1.588,1.26,1.26,0,0,1-1.2.865" transform="translate(-2514.089 1147.733)" fill="#595166"/>
  <path id="path182" d="M2713.927-1059.463a15.175,15.175,0,0,0-15.16,15.157,15.176,15.176,0,0,0,15.16,15.157,15.175,15.175,0,0,0,15.16-15.157A15.175,15.175,0,0,0,2713.927-1059.463Zm0,34.088a18.953,18.953,0,0,1-18.933-18.931,18.952,18.952,0,0,1,18.933-18.931,18.952,18.952,0,0,1,18.933,18.931,18.953,18.953,0,0,1-18.933,18.931" transform="translate(-2514.089 1147.733)" fill="#3b3348"/>
  <path id="path184" d="M2769.753-1059.463a15.175,15.175,0,0,0-15.16,15.157,15.176,15.176,0,0,0,15.16,15.157,15.176,15.176,0,0,0,15.16-15.157A15.175,15.175,0,0,0,2769.753-1059.463Zm0,34.088a18.953,18.953,0,0,1-18.934-18.931,18.953,18.953,0,0,1,18.934-18.931,18.952,18.952,0,0,1,18.933,18.931,18.953,18.953,0,0,1-18.933,18.931" transform="translate(-2514.089 1147.733)" fill="#3b3348"/>
  <path id="path186" d="M2730.967-1042.419a1.887,1.887,0,0,1-1.84-1.493,1.877,1.877,0,0,1,1.44-2.239,62.586,62.586,0,0,1,11.28-1.235,60.92,60.92,0,0,1,11.28,1.239,1.887,1.887,0,0,1,1.426,2.253,1.888,1.888,0,0,1-2.253,1.429,54.693,54.693,0,0,0-10.293-1.148h-.146a59.281,59.281,0,0,0-10.493,1.152,1.943,1.943,0,0,1-.4.041" transform="translate(-2514.089 1147.733)" fill="#3b3348"/>
</svg>
