<svg id="Komponente_4_1" data-name="Komponente 4 – 1" xmlns="http://www.w3.org/2000/svg" width="212.112" height="488.859" viewBox="0 0 212.112 488.859">
  <path id="path642" d="M1806.051-419.1H1607.6c.687-6.169,1.2-12.363,1.655-18.558.041-.505.082-1.011.117-1.5.378-5.3.714-10.614,1.065-15.914.543-8.217,1.271-16.393,2.122-24.558.261-2.514.549-5.028.831-7.529,3.036-26.217,7.4-52.239,11.985-78.287,1.909-10.82,3.84-20.462,5.756-29.028v-.013c.117-.6.247-1.166.391-1.736.646-2.929,1.305-5.714,1.958-8.384v-.014c.124-.518.254-1.023.371-1.516,9.485-38.4,17.768-51.487,18.641-57.085a.678.678,0,0,1,.151-1.037c.206-1.283.391-2.579.584-3.861.117-.83,1.374-.479,1.257.337q-.268,1.73-.515,3.46c13.448-.052,26.745-2.863,40.208-2.113,7.4.415,14.8,1,22.192,1.62l1.916.155c4.355.363,8.7.726,13.05,1.063,3.469.273,6.944.532,10.419.8.6.052,1.216.091,1.827.142,2.294.182,4.588.35,6.882.532q4.76.369,9.547.751c1.635.117,4.341-.169,5.715,1.05.948.829.975,2.124,1.106,3.278.529,4.808,1.3,9.487,2.253,14.1.337,1.711.714,3.408,1.1,5.106,1.738,7.659,3.812,15.24,5.756,23.067q1.659,6.629,3.153,13.283c.117.479.22.959.323,1.438q2.637,11.721,4.822,23.547,1.587,8.631,2.953,17.314c.062.453.131.894.206,1.348q2.349,15.357,3.915,30.817c.233,2.151.44,4.315.618,6.467.234,2.566.453,5.144.652,7.71.543,7.024,2.644,22.718,5.248,40.55.089.582.165,1.179.261,1.775,2.528,17.275,5.495,36.338,7.967,51.422" transform="translate(-1599.923 907.963)" fill="#637595"/>
  <path id="path644" d="M1666.187-431.7c12.906-7.905,26.32-17.185,33.161-31.18,3.99-8.151,4.794-18.026-1.346-25.335a.645.645,0,0,0-.79-.091,204.451,204.451,0,0,0-46.808,49.737c-3.269,4.911-6.12,10.056-9.2,15.071a50.007,50.007,0,0,1-8.373,10.2c2.136-5.041,4.952-9.746,7.232-14.735,2.734-6,4.21-12.376,5.584-18.8q4.708-21.792,9.4-43.608a.659.659,0,0,0-.625-.817c-6.037-.557-8.476,7.128-10.234,11.547a148.13,148.13,0,0,0-7.088,23.78c-3.008,13.97-4.4,28.2-5.577,42.415-.3.713-.577,1.438-.838,2.164-.652.531-1.3,1.076-1.958,1.594-3.537,2.786-7.294,5.52-10.667,8.566-.281,2.5-.57,5.015-.831,7.529a39.627,39.627,0,0,1,11.628-6.493c4.87-1.5,9.952-.791,14.925-1.5,4.4-.622,8.475-2.423,12.741-3.551,5.522-1.451,11.161-1.076,16.793-1.554,6.649-.571,13.819-2.9,16.8-9.409a.658.658,0,0,0-.556-.972,106.36,106.36,0,0,0-57.166,8.864c.014-.091.014-.2.028-.3,9.925-9.383,22.144-16,33.772-23.119" transform="translate(-1604.59 821.986)" fill="#3b3348"/>
  <path id="path646" d="M1883.984-393.77c-.261.622-.494,1.257-.714,1.892-1.971,1.71-3.99,3.356-6.078,4.925a31.088,31.088,0,0,1-15.392,6.324,123.942,123.942,0,0,0-13.091,2.2c-16.848,4.082-32.893,13.321-41.87,28.536a.658.658,0,0,0,.556.984c15.227-.038,28.923-5.637,41.588-13.309q-13.218,10.964-26.429,21.94c-6.305,5.248-12.631,10.367-16.985,17.456a47.982,47.982,0,0,0-6.827,20.825.652.652,0,0,0,.969.571c7.542-4.9,15.344-9.525,22.535-14.9a70.016,70.016,0,0,0,15.358-16.42c8.785-12.583,16.875-25.723,25.1-38.709,2.088-1.529,4.149-3.1,6.2-4.652q4.832-3.538,9.719-7.024c-10.447,15.629-13.283,34.8-13.119,53.314a.653.653,0,0,0,1.209.324,88.124,88.124,0,0,0,14.822-37.141c.975-6.506.44-13.245,1.607-19.7.158-.1.3-.207.453-.311q.5-.349,1.01-.661c-.179-2.151-.385-4.315-.618-6.467" transform="translate(-1692.602 774.704)" fill="#3b3348"/>
  <path id="path648" d="M1849.79-613.7c-.385-1.7-.762-3.4-1.1-5.106a46.9,46.9,0,0,0-6.182,4.017c-3.812,2.942-6.621,6.8-10.069,10.1a.633.633,0,0,0-.57.273c-.179.234-.337.479-.508.725l-.151.142c-4.265,3.694-9.616,5.573-14.98,7.011-16.7,4.458-35.812,8.942-44.363,25.763a.649.649,0,0,0,.556.973c20.66-.428,38.765-11.469,53.306-25.5a198.1,198.1,0,0,0-18.187,36.234.663.663,0,0,0,.962.739,74.31,74.31,0,0,0,17.9-17.9,32.385,32.385,0,0,0,5.289-11.352,38.714,38.714,0,0,0,.6-9.836A82.5,82.5,0,0,1,1849.79-613.7" transform="translate(-1679.536 883.815)" fill="#3b3348"/>
  <path id="path650" d="M1765.725-659.1a160.965,160.965,0,0,1-16.409,12.246c-10.261,6.622-21.525,11.158-32.487,16.433a124.633,124.633,0,0,0-13.091,7.179,101.136,101.136,0,0,1-13.256,14.036,53.376,53.376,0,0,1-13.476,8.4c-5.921,2.514-12.219,4.03-18.043,6.791a60.729,60.729,0,0,0-5.687,3.084c.117-.6.247-1.166.392-1.736a58.6,58.6,0,0,1,6.491-3.317c6.127-2.67,12.727-4.16,18.751-7.1a56.171,56.171,0,0,0,14.2-10.251c2.411-2.319,4.65-4.794,6.82-7.322-4.437,3.2-8.62,6.765-13.469,9.344-9.664,5.132-20.694,6.428-30.839,10.25.124-.518.254-1.023.371-1.516,10.522-3.81,22.006-5.106,31.739-10.95,5.117-3.072,9.6-7.089,14.6-10.368.179-.117.385-.234.57-.35,4.238-5.262,8.242-10.717,12.528-15.914a109.705,109.705,0,0,1,23.084-21.1l1.916.155q-1.288.837-2.555,1.711c-9.966,6.947-18.091,15.655-25.557,25.166-2.061,2.644-4.107,5.314-6.182,7.971,3.915-2.294,7.988-4.328,12.1-6.247,11.037-5.184,22.171-9.914,32.357-16.73a159.33,159.33,0,0,0,13.311-10c.6.052,1.216.091,1.827.142" transform="translate(-1622.072 904.405)" fill="#3b3348"/>
  <path id="path652" d="M1677.357-399.038c4.732-10.094,9.732-19.775,16.766-28.561a135.266,135.266,0,0,1,14-14.917c-7.205,16.549-15.667,33.176-30.764,43.478Zm111.385-96.986c-12.068,6.674-24.108,13.413-36.018,20.372-14.327,8.371-28.518,17.417-41.128,28.289,4.032-9.511,7.995-19.076,13.242-27.991,6.415-10.886,14.932-20.346,23.469-29.586q15.536-16.776,32.659-31.944c-.1-.479-.206-.959-.323-1.438q-13.888,12.247-26.752,25.581c-8.256,8.579-16.484,17.365-23.607,26.9-7.274,9.745-12.473,20.631-17.24,31.763-1.216,2.851-2.438,5.754-3.7,8.683-3.2,2.851-6.3,5.844-9.252,8.967a117.23,117.23,0,0,0-18.895,26.243c-2.15,4.16-4.094,8.41-6.078,12.622-10.042,6.091-21.69,7.478-32.941,10.16a136.731,136.731,0,0,0-31.258,11.4c-.034.492-.076,1-.117,1.5a133.494,133.494,0,0,1,29.575-11.132c10.962-2.773,22.576-3.913,32.721-9.265.35-.194.687-.415,1.051-.609-3.2,6.674-6.607,13.218-11.264,19.128a109.385,109.385,0,0,1-21.656,20.437h2.129a120.628,120.628,0,0,0,13.84-12.027c8.173-8.345,14.087-17.935,18.957-28.51.041-.091.082-.168.13-.26,16.628-10.354,26.038-29.015,33.538-46.5.192-.454.391-.907.584-1.374,10.873-9.668,23.057-17.923,35.441-25.465,14.128-8.592,28.593-16.64,43.092-24.609-.075-.453-.144-.894-.206-1.348" transform="translate(-1601.481 844.794)" fill="#3b3348"/>
  <path id="path654" d="M1930.563-285.755c-13.792,16.977-29.211,32.553-44.727,47.949-1.161,1.154-2.328,2.32-3.51,3.473h-1.5c10.948-10.536,21.464-21.616,31.711-32.7,6.14-6.648,12.116-13.464,17.768-20.5.089.582.165,1.179.261,1.775" transform="translate(-1732.402 723.192)" fill="#3b3348"/>
  <path id="path656" d="M1922.035-842.541,1950.2-739.028l-37.233-8.046-5.8-21.9s-4.135-4.339-4.993-5.959-13.483-33.992-7.068-38.553,26.931-29.051,26.931-29.051" transform="translate(-1738.448 992.3)" fill="#ffa18a"/>
  <path id="path658" d="M1621.563-842.541,1593.4-739.028l37.233-8.046,5.8-21.9s4.135-4.339,5-5.959,13.476-33.992,7.061-38.553-26.931-29.051-26.931-29.051" transform="translate(-1593.038 992.3)" fill="#ffa18a"/>
  <path id="path660" d="M1797.3-1044.631c-2.988-9.557-1.69-19.56-2.85-29.364a35.9,35.9,0,0,0-3.2-11.7c-2.273-4.639-4.938-8.589-6.2-13.7-1.071-4.346-1.7-8.818-3.51-12.945a27.086,27.086,0,0,0-2.926-5.038,19.586,19.586,0,0,0-2.253-3.806c-3.681-4.8-11.573-9.66-17.274-10.631-12.734-2.169-23.373-2.278-35.894,2.3a31.319,31.319,0,0,0-15.564,13.132c-.041.067-.076.136-.11.2-3.469,5.107-5.914,10.969-8.05,16.727a40.7,40.7,0,0,0-2.548,16.194c.11,3.26.35,6.6-.392,9.807a21.773,21.773,0,0,1-4.094,7.977c-2.8,3.8-6.154,7.677-6.387,12.625-.172,3.584.961,6.252-.7,9.755-.941,1.977-2.232,3.8-2.376,6.056-.158,2.583,1.738,5.7,4.719,4.969a5.608,5.608,0,0,0,2.885-2.407,6.134,6.134,0,0,0,.955,2.438c2.473,3.653,7.191,3.9,11.168,3.956a.655.655,0,0,0,.625-.475q.948-3.552,1.889-7.1l.034,1.455c.034,1.677-.22,3.563.227,5.2.6,2.192,2.232,2.13,4.156,1.985a9.324,9.324,0,0,1,5.192.595c.831.384,1.587.917,2.4,1.333a4.092,4.092,0,0,0,2.521.65c2.328-.212,4.595-1.3,7.006-1.479a26.37,26.37,0,0,1,7.6.629.63.63,0,0,0,.714-.345c1.964.037,3.963-.181,5.742-.321,3.791-.3,7.583-.709,11.388-.81,4.155-.11,8.3.2,12.452.093,4.011-.107,8.008-.488,11.992-.947,2.129-.246,5.852.039,7.672-1.328,1.793-1.344,1.58-4.851,1.827-6.774.1-.79.2-1.58.3-2.371l1.175,8a.642.642,0,0,0,.453.453,4.67,4.67,0,0,0,.481.133.633.633,0,0,0,.707.343c2.638-.519,5.66-.747,8.208-1.613.962-.326,1.5-.483,1.985-1.44,1.738-3.4-1.154-9.241-2.143-12.412" transform="translate(-1636.467 1133.262)" fill="#f7dab2"/>
  <path id="path662" d="M1817.684-915.708a34.771,34.771,0,0,0-4.217-14.661,24.745,24.745,0,0,0-1.429-2.315c-.886-.144-1.765-.265-2.589-.374-16.718-2.191-25.434-7.874-31.965-24.235-4.025-10.075-2.473-19.909-.742-30.32a.655.655,0,0,0-.749-.708q-16.2,2.467-32.536,3.593c-.1-1.922-.2-3.845-.288-5.766-.041-.83-1.319-.615-1.277.211.083,1.883.178,3.767.268,5.651-.433.03-.865.065-1.3.1-.337-.4-1.113-.35-1.126.3-.124,6.954.337,13.909.007,20.861-.172,3.606-.144,7.406-1.559,10.8-1.607,3.855-4.9,6.71-8.215,9.086-2.727,1.948-18.778,9.2-18.778,9.2s17.734,15.4,20.784,15.885c9,1.429,18.167,2.31,27.233,3.187a100.812,100.812,0,0,0,24.609-1.12,16.611,16.611,0,0,0,6.319,6.25,29.726,29.726,0,0,0,12.391,3.906q6.655.868,13.325,1.71a29.481,29.481,0,0,0,1.841-11.231" transform="translate(-1650.149 1064.294)" fill="#ffa18a"/>
  <path id="path664" d="M1798.051-1075.388a57.375,57.375,0,0,0,.3-5.846c-.206-9.379-.083-16.575-6.333-24.565-4.265-5.451-11.23-8.519-18.208-10.069-9.238-2.053-19.63-1.442-26.745,4.79-7.974,6.982-10.825,13.137-11.711,23.089-.989,11.116.048,19.448,3.194,30.289a53.946,53.946,0,0,0,7.328,16.265,30.748,30.748,0,0,0,14.211,11.338,25.771,25.771,0,0,0,23.414-3.055c6.03-4.377,9.327-11.382,11.044-18.224a122.129,122.129,0,0,0,3.51-24.01" transform="translate(-1661.692 1125.34)" fill="#ffa18a"/>
  <path id="path666" d="M1679.8-807.567c-.2,3.477-1.257,6.75-1.992,10.128-1.305,6.028-.282,11.748,1.69,17.519,2.651,7.759,11.731,5.372,18.682,5.372h85.553c4.863,0,9.781,1.89,14.657,1.138,7.033-1.084,5.089-5.256,5.179-10.928q.144-8.891.343-17.782c.337-16.411,1.449-32.794,1.978-49.2.192-5.969.309-11.941.289-17.913q-.021-3.758-.11-7.515c-.206-7.959.014-15.6-5.172-22.162-3.647-4.607-8.572-5.656-14.066-6.614-9.183-1.6-10.2-3.1-19.39-.566-16.518,4.551-35.31,7.269-51.307-.53a21.143,21.143,0,0,0-5.131-2.086c-7.02-1.353-20.227,2.155-25.969,6.482-3.256,2.452-4.526,6.469-5.028,10.353-.735,5.624-.46,11.419-.488,17.078a178.66,178.66,0,0,1-.989,20.014c-.714,6.061-1.669,12.1-1.58,18.223.1,6.4,1.2,12.693,2.129,19.008a48.651,48.651,0,0,1,.721,9.983" transform="translate(-1633.548 1024.525)" fill="#f5ded3"/>
  <path id="path668" d="M1765.757-1035.561c-3.153-.836-3.1,6.9-.755,7.11a1.948,1.948,0,0,0,1.525-.646c1.36-1.416,1.628-5.829-.769-6.464" transform="translate(-1675.423 1085.92)" fill="#382823"/>
  <path id="path670" d="M1824.941-1037.8c-3.159-.836-3.1,6.9-.756,7.11a1.929,1.929,0,0,0,1.518-.646c1.36-1.416,1.635-5.829-.762-6.464" transform="translate(-1704.118 1087.008)" fill="#382823"/>
  <path id="path672" d="M1830.02-1049.585c.24-.281-.357-.724-.57-.876a13.012,13.012,0,0,0-8.531-2.673c-2.2-.062-6.291.3-6.992,2.187-.172.457-.11,1.263.378,1.377s15.481.266,15.715-.016" transform="translate(-1699.925 1094.413)" fill="#f7dab2"/>
  <path id="path674" d="M1749.743-1049.585c-.24-.281.357-.724.57-.876a13.012,13.012,0,0,1,8.53-2.673c2.2-.062,6.292.3,7,2.187.165.457.1,1.263-.385,1.377s-15.481.266-15.715-.016" transform="translate(-1668.818 1094.413)" fill="#f7dab2"/>
  <path id="path676" d="M1797.132-1006.684c-1.47,0-3.359-.356-3.894-2.078-.762-2.446-.055-9.828-.027-10.141a.648.648,0,0,1,.707-.583.648.648,0,0,1,.584.708c-.2,2.06-.591,7.808-.027,9.631.536,1.731,4.231,1.025,4.272,1.016a.646.646,0,0,1,.762.5.645.645,0,0,1-.5.766,10.039,10.039,0,0,1-1.875.177" transform="translate(-1689.764 1078.097)" fill="#f2795c"/>
  <path id="path678" d="M1784.213-950.531h-.055c-7.39-.025-15.536-6.669-15.88-6.952a.644.644,0,0,1-.089-.912.651.651,0,0,1,.913-.089c.076.067,8.139,6.633,15.055,6.656h.055c8.249,0,16.766-6.6,16.848-6.666a.654.654,0,0,1,.914.111.649.649,0,0,1-.11.91c-.364.284-8.963,6.941-17.652,6.941" transform="translate(-1677.717 1048.588)" fill="#f2795c"/>
  <path id="path680" d="M1782.822-986.3s2.94,1.053,9.554,1.053a29.145,29.145,0,0,0,8.585-1.053s-1.216,5.346-9.073,5.427-9.066-5.427-9.066-5.427" transform="translate(-1684.885 1062.006)" fill="#f2795c"/>
  <path id="path682" d="M1847.732-1036.432s5.083-3.2,6.333,5.489-1.36,14.687-5.66,15.1-5.556-6.341-5.556-6.341l4.883-14.248" transform="translate(-1713.99 1086.592)" fill="#ffa18a"/>
  <path id="path684" d="M1736.031-1036.432s-5.083-3.2-6.333,5.489,1.36,14.687,5.66,15.1,5.557-6.341,5.557-6.341l-4.883-14.248" transform="translate(-1658.973 1086.592)" fill="#ffa18a"/>
  <path id="path686" d="M1797.612-1077.342c-.371-5.648-1.133-11.29-1.724-16.918-.508-4.911-.824-9.238-3.764-13.375s-6.539-6.3-11.278-7.86a89.931,89.931,0,0,0-17.858-4.407.557.557,0,0,0-.323.056c-1.614-.992-4.073-1.088-5.742-1.236-7.123-.635-12.878,1.38-17.459,6.791-4.506,5.315-6.085,12.3-7.947,18.867-2.143,7.577-2.225,15.766-1.916,23.6a.621.621,0,0,0-.206.612c.467,2.253-.309,5.545,2.212,6.837,1.669.857,3.159-.536,3.482-2.154a16.219,16.219,0,0,0-.062-2.452,10.164,10.164,0,0,1,1.216-3.844c-.618,3.913-.543,7.841,2.6,6.4,2.363-1.078,2.033-5.777,2.322-7.7.6-4.029,1.4-8.024,2.225-12.014.536-2.249.913-4.554,1.628-6.774a23.741,23.741,0,0,1,19.328-16.315c1.12,3.1,3.469,5.421,6.168,7.412,2.294,1.694,5.007,3.109,6.978,5.207a8.824,8.824,0,0,1,2.383,4.8,8.363,8.363,0,0,0,.405,2.012c.707,1.713,2.459,2.533,3.819,3.667a23.1,23.1,0,0,1,5.193,5.911c1.58,2.737,1.065,6.633.975,9.714-.048,1.686-.611,4.074.4,5.6,1.38,2.089,3.565.941,4.732-.662,2.4-3.295,2.466-7.9,2.212-11.779" transform="translate(-1658.972 1127.412)" fill="#f7dab2"/>
  <path id="path688" d="M1856.8-986.614c-.13-.518-.247-1.049-.364-1.568-.076-.323-.144-.635-.206-.959-.089-.427-.186-.855-.275-1.283-.22-1.049-.426-2.1-.632-3.149-.055-.272-.117-.557-.172-.829-.021-.156-.062-.3-.089-.454-.309-1.516-.632-3.045-1-4.561-.337-1.4-1.243,2.6-1.374,3.291q-.257,1.264-.494,2.528c-.117.518-.206,1.036-.309,1.555-.144.712-.275,1.426-.419,2.125-.124.622-.254,1.245-.357,1.866-.055.285-.1.583-.144.868-.027.207-.075.454-.117.713a2.378,2.378,0,0,0,.1,1.3c.673,1.348,4.416.972,5.509.479.309-.143.584-.285.646-.648v-.129a6.674,6.674,0,0,0-.309-1.141" transform="translate(-1717.852 1068.508)" fill="#4d4644"/>
  <path id="path690" d="M1856.336-989c-1.14.505-2.294,1-3.434,1.53.1-.519.192-1.037.309-1.555.962-.428,1.916-.843,2.864-1.258.027.156.069.3.089.454.055.272.117.557.172.829" transform="translate(-1718.864 1063.937)" fill="#fff"/>
  <path id="path692" d="M1856.267-980.4c-1.813.856-3.606,1.736-5.378,2.67.041-.259.089-.505.117-.713.041-.285.089-.583.144-.868,1.593-.83,3.214-1.62,4.842-2.372.089.428.186.856.275,1.283" transform="translate(-1717.888 1059.765)" fill="#fff"/>
  <path id="path694" d="M1739.838-988.218c-.13-.518-.247-1.049-.364-1.567-.117-.545-.247-1.089-.35-1.633-.089-.427-.179-.868-.275-1.3-.22-1.037-.412-2.087-.618-3.124l-.041-.168c-.076-.376-.158-.751-.234-1.127q-.391-1.944-.838-3.888c-.343-1.4-1.264,2.605-1.387,3.292-.117.582-.234,1.166-.337,1.749-.117.518-.213,1.023-.316,1.529-.192.985-.371,1.957-.57,2.929l-.192.972c-.1.519-.206,1.037-.275,1.569a1.886,1.886,0,0,0-.034.194,3.7,3.7,0,0,0-.014,2.009c.687,1.348,4.416.972,5.509.479.309-.143.584-.285.646-.648v-.13a6.668,6.668,0,0,0-.309-1.141" transform="translate(-1661.139 1069.286)" fill="#4d4644"/>
  <path id="path696" d="M1739.388-991.9c-1.051.466-2.1.92-3.153,1.387.1-.506.2-1.01.316-1.529.852-.389,1.71-.765,2.562-1.153.075.376.158.751.234,1.127l.041.168" transform="translate(-1662.296 1065.348)" fill="#fff"/>
  <path id="path698" d="M1739.305-983.322c-1.71.765-3.393,1.581-5.083,2.437.069-.532.172-1.05.275-1.569,1.5-.764,3.008-1.477,4.533-2.164.1.427.186.868.275,1.3" transform="translate(-1661.32 1061.189)" fill="#fff"/>
  <path id="path700" d="M1899.422-900.371s13.723,4.411,18.9,9.6,9.073,3.241,9.719,6.48,3.565,16.523-2.589,25.271-6.154,16.323-6.477,22.093-10.007,17.325-10.007,17.325l-9.547-80.763" transform="translate(-1741.421 1020.34)" fill="#f5ded3"/>
  <path id="path702" d="M1672.23-900.371s-13.723,4.411-18.9,9.6-9.073,3.241-9.726,6.48-3.558,16.523,2.6,25.271,6.154,16.323,6.477,22.093,10.007,17.325,10.007,17.325l9.547-80.763" transform="translate(-1616.774 1020.34)" fill="#f5ded3"/>
  <path id="path704" d="M1733.849-911.871s2.892-4.637,4.382-4.8,17.686,6.844,33.071,4.8,24.513-6.424,25.949-4.8,6.937,8.226,6.937,8.226-25.269,8.947-33.937,10.081-22.35,1.944-27.171-1.944-9.231-11.562-9.231-11.562" transform="translate(-1661.139 1028.416)" fill="#f5ded3"/>
  <path id="path706" d="M1795.938-1116.092a.645.645,0,0,1-.392-.132.648.648,0,0,1-.13-.907c.028-.03,2.239-3.009,1.339-5.664-1.023-3.013-1.559-4.86-1.463-5.987a13.07,13.07,0,0,0-.007-1.948.651.651,0,0,1,.6-.694.652.652,0,0,1,.7.6,15.971,15.971,0,0,1-.007,2.155c-.069.891.481,2.751,1.4,5.461,1.126,3.311-1.415,6.72-1.525,6.864a.654.654,0,0,1-.515.256" transform="translate(-1690.926 1132.372)" fill="#ebc899"/>
  <path id="path708" d="M1741.747-1063.177l-.137-.015a.647.647,0,0,1-.495-.771c.021-.095,2.088-9.565,2.83-13.3a15.646,15.646,0,0,0,.261-3c.034-2.225.076-4.526,2.617-9.072,3.6-6.433,7.322-8.972,7.48-9.077a.65.65,0,0,1,.9.177.65.65,0,0,1-.179.9c-.034.024-3.633,2.5-7.068,8.634-2.383,4.262-2.418,6.3-2.459,8.462a16.5,16.5,0,0,1-.281,3.229c-.749,3.741-2.816,13.223-2.837,13.318a.652.652,0,0,1-.632.509" transform="translate(-1664.655 1116.414)" fill="#ebc899"/>
  <path id="path710" d="M1727.121-1055.16a.648.648,0,0,1-.646-.644c0-.48-.034-11.824,2.164-18.08a40.43,40.43,0,0,1,4.574-9.561.648.648,0,0,1,.907-.145.651.651,0,0,1,.144.9,40.142,40.142,0,0,0-4.4,9.232c-2.129,6.046-2.088,17.526-2.088,17.641a.651.651,0,0,1-.646.652h-.007" transform="translate(-1657.564 1109.237)" fill="#ebc899"/>
  <path id="path712" d="M1762.7-1112.2a.64.64,0,0,1-.515-.262.646.646,0,0,1,.131-.906c.2-.148,4.959-3.655,9.458-4.753,4.355-1.063,6.539-1.683,6.559-1.689a.648.648,0,0,1,.8.446.65.65,0,0,1-.446.8c-.021.006-2.232.631-6.614,1.7-4.238,1.035-8.943,4.5-8.984,4.534a.659.659,0,0,1-.391.128" transform="translate(-1674.814 1126.752)" fill="#ebc899"/>
  <path id="path714" d="M1842.245-1072.394l-.062,0a.652.652,0,0,1-.584-.709,17.019,17.019,0,0,0-.343-5.009,25.121,25.121,0,0,0-4.238-8.917,30.377,30.377,0,0,1-3.029-5.783,55.048,55.048,0,0,0-3.7-7.32,18.276,18.276,0,0,0-8.627-7.392.646.646,0,0,1-.4-.823.645.645,0,0,1,.817-.4,19.245,19.245,0,0,1,9.313,7.943,55.677,55.677,0,0,1,3.778,7.477,29.812,29.812,0,0,0,2.9,5.555,26.342,26.342,0,0,1,4.444,9.364,18.254,18.254,0,0,1,.371,5.438.649.649,0,0,1-.646.583" transform="translate(-1703.509 1121.396)" fill="#ebc899"/>
  <path id="path716" d="M1880.453-987.365h-.034a.643.643,0,0,1-.611-.679c0-.11.529-11.094,0-20.627a66.43,66.43,0,0,0-2.562-15.663.648.648,0,0,1,.412-.819.642.642,0,0,1,.817.409,66.612,66.612,0,0,1,2.624,16c.536,9.6.007,20.652,0,20.762a.645.645,0,0,1-.646.617" transform="translate(-1730.652 1080.86)" fill="#ebc899"/>
  <path id="path718" d="M1890.014-962.739a.646.646,0,0,1-.646-.648v-14.6a.646.646,0,0,1,.646-.648.648.648,0,0,1,.652.648v14.6a.648.648,0,0,1-.652.648" transform="translate(-1736.546 1058.286)" fill="#ebc899"/>
  <path id="path720" d="M1725.452-959.013l-.055,0a.642.642,0,0,1-.591-.7l.859-10.636a.653.653,0,0,1,.7-.594.643.643,0,0,1,.591.7l-.859,10.636a.652.652,0,0,1-.646.6" transform="translate(-1656.753 1054.56)" fill="#ebc899"/>
  <path id="path722" d="M1699.744-977.988a.659.659,0,0,1-.268-.057.645.645,0,0,1-.323-.856c.041-.1,4.609-10.349,6.731-17.175a73.377,73.377,0,0,0,2.672-14.294.654.654,0,0,1,.694-.6.645.645,0,0,1,.6.693,74.478,74.478,0,0,1-2.727,14.586c-2.143,6.9-6.738,17.216-6.786,17.319a.65.65,0,0,1-.591.384" transform="translate(-1644.288 1073.968)" fill="#ebc899"/>
  <path id="path724" d="M1824.458-1086.571a.656.656,0,0,1-.625-.461,27.177,27.177,0,0,0-5.371-9.358c-3.743-4.045-10.365-6.5-10.426-6.528a.646.646,0,0,1-.385-.831.651.651,0,0,1,.831-.386c.281.1,6.971,2.587,10.927,6.864a28.065,28.065,0,0,1,5.667,9.866.646.646,0,0,1-.433.806.624.624,0,0,1-.186.028" transform="translate(-1696.904 1119.158)" fill="#ebc899"/>
  <path id="path726" d="M1677.272-899.836s3.626,60.311.694,86.848-16.69,68.464-16.69,71.107,2.535,7.6,2.535,7.6,19.568-49.858,21.848-76.605c2.4-28.21,1.745-41.469.481-65.768-.955-18.23-1.264-24.514-3.537-25.486s-5.33,2.307-5.33,2.307" transform="translate(-1625.95 1021.287)" fill="#875549"/>
  <path id="path728" d="M1895.09-900.4s-3.819,60.844-.886,87.381,16.69,68.464,16.69,71.107-2.534,7.6-2.534,7.6-19.568-49.858-21.848-76.605c-2.4-28.21-1.752-41.469-.481-65.768.955-18.23,1.264-24.514,3.531-25.486s5.529,1.774,5.529,1.774" transform="translate(-1734.375 1021.314)" fill="#875549"/>
  <path id="path730" d="M1658.363-717.552s-.309.466-.893,1.322c-.872,1.27-2.349,3.4-4.327,6.091-.989,1.322-2.088,2.8-3.3,4.38a248.094,248.094,0,0,1-20.742,23.871c-16.848,16.847-35.743,13.5-36.389-.751s19.98-27.5,29.053-32.359c4.856-2.605,12.088-7.983,17.755-12.415,1.683-1.31,3.235-2.554,4.533-3.6.233-.181.453-.363.659-.544,2.115-1.7,3.434-2.812,3.434-2.812l10.213,16.821" transform="translate(-1592.7 939.852)" fill="#ffa18a"/>
  <path id="path732" d="M1608.255-693.628a.635.635,0,0,1-.426-.164.645.645,0,0,1-.055-.914,32.172,32.172,0,0,1,5.529-4.864c2.926-1.915,16.141-9.269,16.271-9.34.632-.35,9.4-6.524,15.138-10.589a.652.652,0,0,1,.907.155.647.647,0,0,1-.158.9c-1.47,1.039-14.362,10.168-15.262,10.665-.13.072-13.29,7.4-16.189,9.291a31.29,31.29,0,0,0-5.268,4.64.656.656,0,0,1-.488.218" transform="translate(-1599.93 932.698)" fill="#f2795c"/>
  <path id="path734" d="M1768.845-867.468c-13.75,0-32.989-41.609-33.8-43.39a.648.648,0,0,1,.316-.859.651.651,0,0,1,.859.319c.2.429,19.7,42.635,32.611,42.635.069,0,.13,0,.192,0,12.61-.415,33.051-40.448,33.257-40.852a.648.648,0,0,1,.872-.285.647.647,0,0,1,.281.871c-.845,1.679-21,41.122-34.363,41.561-.075,0-.151,0-.227,0" transform="translate(-1661.69 1025.87)" fill="#ebc899"/>
  <path id="path736" d="M1769.311-875.549a12.986,12.986,0,0,1-3.262-.4c-13.5-3.485-27.336-27.452-27.92-28.47a.648.648,0,0,1,.24-.884.64.64,0,0,1,.879.241c.144.245,14.156,24.51,27.123,27.857,12.851,3.319,30.756-17.467,30.935-17.677a.647.647,0,0,1,.913-.073.643.643,0,0,1,.069.913c-.694.815-15.928,18.494-28.978,18.494" transform="translate(-1663.172 1022.774)" fill="#ebc899"/>
  <path id="path738" d="M1798.369-829.671a3.086,3.086,0,0,1-3.3,2.816,3.079,3.079,0,0,1-3.29-2.816,3.079,3.079,0,0,1,3.29-2.816,3.086,3.086,0,0,1,3.3,2.816" transform="translate(-1689.229 987.425)" fill="#fff"/>
  <path id="path740" d="M1818.162-837.478a2.3,2.3,0,0,1-2.15,2.43,2.3,2.3,0,0,1-2.15-2.43,2.3,2.3,0,0,1,2.15-2.429,2.3,2.3,0,0,1,2.15,2.429" transform="translate(-1699.935 991.023)" fill="#fff"/>
  <path id="path742" d="M1822.335-859.8a2.3,2.3,0,0,1-2.15,2.43,2.3,2.3,0,0,1-2.15-2.43,2.3,2.3,0,0,1,2.15-2.429,2.3,2.3,0,0,1,2.15,2.429" transform="translate(-1701.959 1001.849)" fill="#fff"/>
  <path id="path744" d="M1776.969-846.912a2.3,2.3,0,0,1-2.143,2.43,2.3,2.3,0,0,1-2.15-2.43,2.3,2.3,0,0,1,2.15-2.43,2.3,2.3,0,0,1,2.143,2.43" transform="translate(-1679.965 995.598)" fill="#fff"/>
  <path id="path746" d="M1671.712-810.15l-.083,0a.649.649,0,0,1-.563-.72c.007-.093,1.1-9.38,1.106-14.965a13.168,13.168,0,0,0-1.435-6.248,21.41,21.41,0,0,1-1.8-5.718c-.233-1.432-.405-2.938-.584-4.534-.549-4.932-1.113-10.033-3.839-13.816-3.791-5.271-4.464-16.867-4.492-17.358a.647.647,0,0,1,.611-.682.653.653,0,0,1,.68.611c.007.117.687,11.709,4.252,16.672,2.926,4.059,3.537,9.569,4.08,14.431.172,1.577.337,3.067.57,4.464a19.917,19.917,0,0,0,1.71,5.4,14.417,14.417,0,0,1,1.539,6.776c0,5.66-1.1,15.022-1.113,15.115a.647.647,0,0,1-.639.572" transform="translate(-1625.342 1007.649)" fill="#ebc6b5"/>
  <path id="path748" d="M1665.512-833.715a.654.654,0,0,1-.515-.256,123.922,123.922,0,0,1-11.079-18.476c-5.24-10.809-2.637-18.185-2.521-18.494a.645.645,0,0,1,.824-.385.654.654,0,0,1,.391.83c-.027.071-2.514,7.2,2.473,17.482a121.342,121.342,0,0,0,10.948,18.259.649.649,0,0,1-.13.908.649.649,0,0,1-.391.131" transform="translate(-1620.798 1006.276)" fill="#ebc6b5"/>
  <path id="path750" d="M1922.607-816.381h-.048a.652.652,0,0,1-.6-.69c.007-.073.508-7.513,1.594-15.7a94.06,94.06,0,0,0,.632-13.173c-.007-2.459-.014-4.781.151-7.066.419-5.875,5.543-21.342,5.763-22a.65.65,0,0,1,.817-.411.643.643,0,0,1,.412.819c-.055.159-5.289,15.968-5.7,21.681-.165,2.237-.151,4.535-.144,6.969a94.814,94.814,0,0,1-.646,13.347c-1.078,8.145-1.58,15.544-1.58,15.618a.653.653,0,0,1-.646.605" transform="translate(-1752.345 1008.258)" fill="#ebc6b5"/>
  <path id="path752" d="M1934.755-838.716l-.1-.007a.689.689,0,0,1-.55-.777,2.233,2.233,0,0,1,.433-.852c.831-1.273,3.036-4.651,3.681-11.605.8-8.612.8-14.3.8-14.358a.652.652,0,0,1,.653-.648.646.646,0,0,1,.646.648c0,.057-.007,5.8-.811,14.476-.673,7.274-3.008,10.849-3.887,12.195a3.571,3.571,0,0,0-.254.413.6.6,0,0,1-.618.515" transform="translate(-1758.236 1004.142)" fill="#ebc6b5"/>
  <path id="path754" d="M1719.261-816.573c-1.82,2.7-.426,9.2-.639,19.5-.3,14.856.007,35.466.57,50.969.453,12.375-.831,20.476,1.648,21.841,1.243.683,10.309.615,22.679.671,11.463.052,25.248-.053,36.347-.347s17.631,1.237,20.193-1.475,1.216-9,1.628-20.37c.488-13.735.756-31.894.646-46.276-.1-13.042,1.284-21.286-1.305-23.695s-9.5-1.345-20.887-1.786c-11.422-.442-25.543-.687-37.11-.607-12.1.084-22.755.067-23.771,1.573" transform="translate(-1653.605 980.479)" fill="#fff"/>
  <path id="path756" d="M1730.5-775.49a4.838,4.838,0,0,0,.934-1.49c1.326-3.758-1.841-4.109-4.7-3.551a1.619,1.619,0,0,0,.172-.48c.488-3.537-5.344-2.618-7.088-2.4a50.367,50.367,0,0,0-14.994,4.561,15.788,15.788,0,0,0-8.929,10.419c-1.353,4.3-2.624,8.605-3.75,12.959-.137.571-.281,1.141-.439,1.711q-.6,2.429-1.168,4.9a.642.642,0,0,0,.653.8c.982.687,1.964,1.374,2.953,2.074,1.49,1.036,2.967,2.086,4.444,3.123,1.415,1,3.228,2.734,5.1,2.864a3.041,3.041,0,0,0,1.209-.143,8.029,8.029,0,0,0,2.706-1.944c2.411-2.125,5.316-7.024,7.7-9.175s10.886-7.192,12.48-9.252c1.655-2.113,1.312-4.083-.3-5.585a37.075,37.075,0,0,0,3.922-3.732c2.452-2.7,1.463-4.834-.907-5.664" transform="translate(-1640.127 963.76)" fill="#ffa18a"/>
  <path id="path758" d="M1725.028-769.768a.643.643,0,0,1-.543-.3.647.647,0,0,1,.192-.9c.062-.041,1.573-1,4.9-2.831,3.393-1.858,11.285-3.651,11.621-3.727a.643.643,0,0,1,.769.49.643.643,0,0,1-.488.775c-.083.018-8.05,1.828-11.278,3.6-3.283,1.8-4.808,2.775-4.822,2.784a.644.644,0,0,1-.35.1" transform="translate(-1656.549 960.781)" fill="#f2795c"/>
  <path id="path760" d="M1731.947-760a.642.642,0,0,1-.591-.386.646.646,0,0,1,.33-.854l16.848-7.452a.643.643,0,0,1,.852.33.646.646,0,0,1-.33.854l-16.848,7.452a.626.626,0,0,1-.261.056" transform="translate(-1659.904 956.521)" fill="#f2795c"/>
  <path id="path762" d="M1740.853-743.957a.641.641,0,0,1-.563-.335.64.64,0,0,1,.254-.88l9.121-5.044a.644.644,0,0,1,.879.254.64.64,0,0,1-.254.88l-9.121,5.045a.655.655,0,0,1-.316.081" transform="translate(-1664.222 947.574)" fill="#f2795c"/>
  <path id="path764" d="M1887.208-734.385s17.322,14.518,26.4,19.377,29.7,18.107,29.046,32.362-19.54,17.6-36.389.756a258.357,258.357,0,0,1-29.252-35.665l10.2-16.831" transform="translate(-1730.553 939.858)" fill="#ffa18a"/>
  <path id="path766" d="M1953.47-692.476a.631.631,0,0,1-.378-.122c-.124-.086-12.027-8.637-16.525-11.214-4.554-2.609-11.2-7.419-11.264-7.467a.646.646,0,0,1-.144-.9.639.639,0,0,1,.9-.144c.069.048,6.656,4.818,11.154,7.392,4.554,2.609,16.141,10.933,16.635,11.286a.647.647,0,0,1,.144.905.64.64,0,0,1-.522.269" transform="translate(-1753.839 929.224)" fill="#f2795c"/>
  <path id="path768" d="M1771.881-900.7c-.46,0-.913,0-1.367-.015-16.429-.379-24.973-4.67-25.33-4.852a.648.648,0,0,1-.282-.872.649.649,0,0,1,.872-.282c.083.043,8.668,4.338,24.767,4.709s31.622-6.151,31.78-6.216a.64.64,0,0,1,.845.341.642.642,0,0,1-.336.85c-.151.065-15.035,6.335-30.949,6.335" transform="translate(-1666.463 1024.174)" fill="#ebc6b5"/>
  <path id="path770" d="M1800.561-810.29h-.014c-.124,0-12.082-.33-33.854-.81s-39.479,0-39.658,0a.684.684,0,0,1-.666-.63.653.653,0,0,1,.632-.666c.178,0,17.92-.48,39.72,0,21.78.481,33.738.807,33.861.81a.642.642,0,0,1,.625.666.644.644,0,0,1-.646.63" transform="translate(-1657.512 977.787)" fill="#f5ebe3"/>
  <path id="path772" d="M1800.561-641.526h-.014c-.124,0-12.082-.33-33.854-.81s-39.479,0-39.658,0a.7.7,0,0,1-.666-.63.652.652,0,0,1,.632-.665c.178,0,17.92-.479,39.72,0,21.78.481,33.738.807,33.861.809a.643.643,0,0,1,.625.666.644.644,0,0,1-.646.63" transform="translate(-1657.512 895.959)" fill="#f5ebe3"/>
  <path id="path774" d="M1800.846-770.576c0,3.042-4.753,5.508-10.612,5.508s-10.612-2.466-10.612-5.508,4.753-5.508,10.612-5.508,10.612,2.466,10.612,5.508" transform="translate(-1683.333 960.077)" fill="#f5ebe3"/>
  <path id="path776" d="M1865.636-746.985c-2.37-6.8-5.1-13.452-8.015-20.034a18.118,18.118,0,0,0-4.753-6.636c-4.148.278-9.162-.126-13.366-.163-4.952-.044-8.73-1.194-13.593-2.021-2.933-.5-9.2-.707-6.882,4.062a4.955,4.955,0,0,0,1.168,1.472c-2.411,1.162-3.187,3.534-.281,6.091,1.422,1.251,3.709,1.725,5.337,2.789-1.511,1.789-1.532,3.484.467,5.517,1.944,1.979,4.657,3.463,6.9,5.1,2.761,2.01,4.7,4.6,7.452,7.1,2.534,2.289,5.543,3.99,8.345,5.937,1.36.948,2.589,2.079,4.375,1.741,1.971-.373,3.681-2.43,5.062-3.654q3.585-3.19,7.177-6.379a.681.681,0,0,0,.6-.919" transform="translate(-1701.961 960.078)" fill="#ffa18a"/>
  <path id="path778" d="M1867.408-783.083s-8.029-9-13.325-12.561-8.1-3.455-9.073-2.052,3.888,5.353,6.807,8.508,8.208,9.419,8.208,9.419,6.106-.972,5.859-1.3,1.525-2.019,1.525-2.019" transform="translate(-1714.977 970.997)" fill="#ffa18a"/>
  <path id="path780" d="M1840.826-760.413a.626.626,0,0,1-.343-.1,46.659,46.659,0,0,0-4.849-2.245c-3.915-1.67-12.521-2.588-12.61-2.6a.649.649,0,0,1-.577-.712.647.647,0,0,1,.714-.576c.357.037,8.888.948,12.981,2.694a45.386,45.386,0,0,1,5.034,2.345.647.647,0,0,1,.2.894.654.654,0,0,1-.549.3" transform="translate(-1704.096 955.502)" fill="#f2795c"/>
  <path id="path782" d="M1843.8-743.4a.692.692,0,0,1-.213-.036l-9.719-3.4a.65.65,0,0,1-.4-.826.651.651,0,0,1,.824-.4l9.726,3.4a.641.641,0,0,1,.391.826.643.643,0,0,1-.611.434" transform="translate(-1709.424 946.506)" fill="#f2795c"/>
  <path id="path784" d="M1864.413-654.749a2.224,2.224,0,0,0-2.225-2.224,2.223,2.223,0,0,0-2.219,2.224,2.223,2.223,0,0,0,2.219,2.223,2.224,2.224,0,0,0,2.225-2.223" transform="translate(-1722.291 902.324)" fill="#f5ebe3"/>
  <path id="path786" d="M1697.216-706.98c-.989,1.322-2.088,2.8-3.3,4.38-4.492-6.791-8.407-13.879-10.323-21.654,1.683-1.31,3.235-2.554,4.533-3.6.069.389.144.778.22,1.167a43.563,43.563,0,0,0,2.438,7.776,73.394,73.394,0,0,0,6.429,11.935" transform="translate(-1636.773 936.694)" fill="#382823"/>
  <path id="path788" d="M1693.069-720.918c-2.322-2.74-6.875-2.7-10.172.091s-4.1,7.275-1.779,10.015,6.868,2.7,10.165-.092,4.1-7.274,1.786-10.015" transform="translate(-1634.927 934.312)" fill="#fff"/>
  <path id="path790" d="M1753.149-1013.787a6.151,6.151,0,0,0-3.008.727,2.022,2.022,0,0,0-1.01,2.407,2.535,2.535,0,0,0,1.429,1.157,8.77,8.77,0,0,0,4.368.618,5.086,5.086,0,0,0,2.686-1.025,1.976,1.976,0,0,0,.618-2.548,2.331,2.331,0,0,0-1.236-.727,12.831,12.831,0,0,0-3.846-.61" transform="translate(-1668.488 1075.333)" fill="#fc8c72"/>
  <path id="path792" d="M1828.114-1013.924a2.371,2.371,0,0,0-1.243.727,1.985,1.985,0,0,0,.625,2.548,5.08,5.08,0,0,0,2.686,1.025,8.762,8.762,0,0,0,4.368-.617,2.561,2.561,0,0,0,1.429-1.157,2.023,2.023,0,0,0-1.01-2.408,6.15,6.15,0,0,0-3.008-.727,12.773,12.773,0,0,0-3.846.61" transform="translate(-1706.116 1075.695)" fill="#fc8c72"/>
</svg>
