<svg id="Komponente_7_1" data-name="Komponente 7 – 1" xmlns="http://www.w3.org/2000/svg" width="201.534" height="514.895" viewBox="0 0 201.534 514.895">
  <path id="path1306" d="M3932.885-687.4a.648.648,0,0,1-.385-.123.653.653,0,0,1-.144-.9l2.348-3.238a.651.651,0,0,1,.906-.143.646.646,0,0,1,.144.9l-2.348,3.239a.638.638,0,0,1-.522.267" transform="translate(-3901.8 946.672)" fill="#382823"/>
  <path id="path1308" d="M3994.067-997.636l-2.245,7.333a.447.447,0,0,1-.852.02l-2.574-7.223a.475.475,0,0,1,.014-.35l2.3-4.9a.446.446,0,0,1,.8-.018l2.52,4.789a.417.417,0,0,1,.034.349Zm2.115-.943-4.442-8.463a.805.805,0,0,0-1.442.033l-4.064,8.658a.844.844,0,0,0-.021.609l4.538,12.763a.806.806,0,0,0,1.531-.035l3.955-12.957a.839.839,0,0,0-.055-.608" transform="translate(-3927.961 1099.735)" fill="#a18bbc"/>
  <path id="path1310" d="M3995.594-1015.677c.048,2.156-.934,3.928-2.2,3.957s-2.32-1.7-2.368-3.853.934-3.928,2.19-3.957,2.321,1.7,2.375,3.853" transform="translate(-3930.319 1105.585)" fill="#f5ebe3"/>
  <path id="path1312" d="M4182.4-640.064c-.947.994,7.093,34.174,3.262,46.895s-41.07,19.4-41.07,19.4l-17.912-67.615,55.72,1.317" transform="translate(-3996.125 922.149)" fill="#a5b1c7"/>
  <path id="path1314" d="M3929.32-877.9s1.634,70.817.9,91.773-2.162,53.1-2.162,53.1l123.722,8.71s9.447-172.144,9.351-176.461S4040.458-908,4040.458-908l-67.488,11.294L3929.32-877.9" transform="translate(-3899.773 1051.483)" fill="#a86556"/>
  <path id="path1316" d="M4081.361-415.8l-69.156,1.582s-5.54-26.772-9.468-48.424c-.075-.4-.144-.787-.219-1.188-.865-4.838-1.655-9.394-2.259-13.294-1.188-7.591-2.06-15.242-2.9-22.881-.062,11.857.062,23.735-.028,35.594.007.154-.007.3,0,.453-.007.428-.007.842-.027,1.271-.11,12.545-.5,25.1-1.675,37.588q-.515,5.648-1.284,11.289l-73.247,1.675c-.206-8.871-.268-17.719-.261-26.595v-.014c-.007-.427-.007-.855,0-1.269.007-6.259.048-12.492.11-18.752v-.012c-.007-.518.007-1.037.007-1.555.055-6.13.124-12.247.172-18.377.007-.481.007-.946.007-1.426.027-2.748.048-5.482.062-8.229.021-5.132.007-10.262-.014-15.393-.014-.453-.014-.92-.021-1.373-.055-8.032-.171-16.062-.281-24.106-.007-.428-.021-.855-.013-1.3q-.1-7.966-.185-15.933c-.014-.5-.021-1-.021-1.5-.082-10-.082-20,.1-30.011.007-.428.021-.855.035-1.284q.092-4.822.261-9.646c.6-16.858,2.1-33.854,7.524-49.928,0,0,1.263-3.747,1.895-5.615-.508-.066-1.016-.106-1.517-.134a1.2,1.2,0,0,0,.1-.274c.055-.325.1-.663.131-.988.57.039,1.146.091,1.716.155.048-.156.11-.313.158-.47.439-1.293.707-3.19,1.586-4.3a2.129,2.129,0,0,1,2.561-.8.638.638,0,0,1,.336.549l.007.389a.646.646,0,0,1-1.291.042,10.11,10.11,0,0,0-1.538,3.21c-.165.522-.336,1.032-.521,1.554a77.177,77.177,0,0,0,9.941,1.3,55.038,55.038,0,0,0,7.456-.442c.439-.049.879-.111,1.332-.16,3.961-.557,7.9-1.385,11.815-2.176a106.919,106.919,0,0,1,19.511-2.506,125.234,125.234,0,0,1,19.951,1.552c12.5,1.839,24.9,4.367,37.286,6.766,4.14.8,10.477.862,13.676,4.053,1.51,1.521,2.142,3.709,2.835,5.676.94,2.712,1.861,5.451,2.725,8.2a344.363,344.363,0,0,1,10.95,46.447c.09.477.165.955.24,1.42,1.38,8.131,2.574,16.306,3.693,24.508.11.789.227,1.861.357,3.179.041.415.075.853.11,1.32.4,4.318.851,10.656,1.338,18.161.021.44.055.867.075,1.306.405,6.25.824,13.237,1.236,20.483.034.479.062.958.083,1.449.563,9.9,1.126,20.213,1.613,29.7.028.582.069,1.165.1,1.747.625,12.217,1.139,22.908,1.407,29.355.027.543.048,1.061.062,1.54.061,1.451.11,2.615.13,3.444q.361,11.712,1.236,23.385" transform="translate(-3896.16 927.026)" fill="#ffd191"/>
  <path id="path1318" d="M4101.226-552.048c-3.8-1.313-7.552-2.756-11.259-4.421-6.948-3.132-14.081-6.649-19.917-11.62a31.7,31.7,0,0,1-10.449-17.72c-1.8-7.85-2.3-16.105-6.083-23.391-3.831-7.389-10.744-11.688-18.708-13.527-15.956-3.665-32.419,2.685-48.319-1.254-6.694-1.648-9.125-6.451-9.64-12.983a96.546,96.546,0,0,1-.109-13.369c.227-4.139.693-8.269,1.325-12.339.124-.819,1.373-.5,1.25.321-.6,3.926-1.023,7.888-1.243,11.858-.075,1.3-.137,2.607-.158,3.916-.089,4.6-.371,9.8.975,14.257,3.069,10.166,18.5,8.556,26.865,8.028,13.559-.841,28.952-3.111,40.863,5.194,12.722,8.87,10.943,24.718,15.585,37.763,2.835,7.929,9.117,13.318,16.2,17.5a131.9,131.9,0,0,0,22.718,10.468c.041.415.076.853.11,1.32" transform="translate(-3923.302 932.707)" fill="#fff"/>
  <path id="path1320" d="M4075.547-431.4a67.031,67.031,0,0,1-7.024.51c-7.82.063-14.8-4.066-21.05-8.381-5.966-4.114-11.246-11.171-18.5-12.793a70.123,70.123,0,0,0-26.2-.412c-7.573,1.339-14.548,4.686-21.853,6.94a81.189,81.189,0,0,1-21.455,3.523c-12.124.355-26.995-2.388-38.741-8.948-.014-.5-.021-1-.021-1.5a55.683,55.683,0,0,0,9.983,4.721,79.833,79.833,0,0,0,43.644,2.6c6.913-1.532,13.367-4.31,20.068-6.5a61.621,61.621,0,0,1,21.3-2.9c6.371.191,13.827.034,19.339,3.652,5.63,3.694,10.189,8.759,15.935,12.372a46.086,46.086,0,0,0,10.854,5.4,27.65,27.65,0,0,0,10.923.644c.906-.086,1.813-.171,2.719-.243.021.44.055.867.075,1.307" transform="translate(-3896.209 831.525)" fill="#fff"/>
  <path id="path1322" d="M4080.236-331.936c-11.246-5.521-21.331-14.335-29.6-22.814a46.337,46.337,0,0,1-12.344-23.494c-2-9.309-2-19.312-5.376-28.279-1.9-5.061-5.2-8.951-10.292-10.959-4.627-1.838-9.728-2.213-14.637-2.71a91.385,91.385,0,0,0-16.2-.563c-5.67.428-10.847,2.2-16.188,3.972-4.215,1.393-8.575,2.711-13.058,2.658a25.455,25.455,0,0,1-11.026-3.078c-4.476-2.217-8.856-4.838-14.019-4.759-4.792.058-9.323,2.028-13.964,3-.8.173-1.613.309-2.416.418-.007-.428-.021-.855-.014-1.3,6.1-.774,12.488-3.978,18.558-3.326,9.014.947,15.509,8.508,25.011,7.668,9.543-.84,18.056-5.971,27.709-6.594a93.291,93.291,0,0,1,15.571.6,74.21,74.21,0,0,1,12.33,1.856c7.367,2.021,12.063,6.954,14.369,14.17,2.829,8.85,3,18.356,4.991,27.38a46.734,46.734,0,0,0,14.2,24.683c7.73,7.325,16.546,14.884,26.329,19.921.027.543.048,1.061.062,1.54" transform="translate(-3896.401 816.337)" fill="#fff"/>
  <path id="path1324" d="M3997.855-326.118c-.007.428-.007.842-.027,1.271a30.438,30.438,0,0,1-8.932-.9c-4.524-1.361-8.644-4.13-12.653-6.552q-5.54-3.372-10.889-7.007c-7.387-5.04-14.218-10.792-21.448-16.029-6.838-4.949-14.28-8.07-22.2-10.584-.014-.453-.014-.92-.021-1.373,2.65.808,5.231,1.655,7.73,2.61,7.332,2.812,13.662,6.969,19.821,11.791,7.346,5.74,14.781,11.31,22.635,16.34,3.8,2.427,7.648,4.8,11.6,6.978a26.966,26.966,0,0,0,13.539,3.447c.288.007.556,0,.844.007" transform="translate(-3896.681 789.19)" fill="#fff"/>
  <path id="path1326" d="M4151.723-238.9l-3.22.073a21.427,21.427,0,0,1-3.275-2c-3.336-2.5-5.033-5.909-7.4-9.237-3.069-4.3-7.477-5.672-11.816-8.255-5.918-3.532-7.634-9.439-10.428-15.349-2.108-4.474-5.046-7.659-9.934-9.037a85.013,85.013,0,0,0-12.269-2c-4.484-.584-8.96-1.052-13.477-1.195-.075-.4-.144-.787-.22-1.188a190.569,190.569,0,0,1,21.3,2.144c6.5.978,11.706,3.061,14.939,9.051,1.668,3.085,2.705,6.443,4.325,9.542a18.134,18.134,0,0,0,8.122,7.847c2.952,1.539,6.083,2.842,8.479,5.21,2.691,2.647,4.03,6.322,6.57,9.1a19.247,19.247,0,0,0,8.307,5.291" transform="translate(-3973.325 750.283)" fill="#fff"/>
  <path id="path1328" d="M3994.267-252.41l-1.634.037c-2.835-2.759-5.863-5.308-8.877-7.9a88.013,88.013,0,0,1-11.726-11.522,95.352,95.352,0,0,1-8.156-12.512c-5.005-8.8-9.865-18.511-18.489-24.35-7.133-4.813-15.77-5.9-23.768-8.669.007-.481.007-.946.007-1.426,7.854,2.8,16.47,3.925,23.624,8.465,8.884,5.64,14.006,15.176,19.038,24.066a94.943,94.943,0,0,0,9.68,14.757c4.167,4.894,9.2,8.938,14.047,13.128,2.21,1.907,4.3,3.867,6.255,5.921" transform="translate(-3896.649 765.643)" fill="#fff"/>
  <path id="path1330" d="M3990.684-538.041c-6.179,4.132-14.7,5.416-22,5.414a23.51,23.51,0,0,1-18.853-8.587c-2.705-3.139-4.984-6.637-7.916-9.576-3.5-3.51-7.82-5.328-12.358-7.116-2.863-1.14-5.794-2.394-8.65-3.819.007-.428.021-.855.035-1.284,2.307,1.126,4.662,2.135,7.03,3.092,4.078,1.643,8.334,3.035,11.918,5.662,5.719,4.2,8.8,10.876,14.115,15.472,7.037,6.084,17.088,5.453,25.649,3.637a28.315,28.315,0,0,0,11.094-4.517c4.2-3.142,8.053-9.864,2.293-13.592-3.385-2.2-7.909-2.89-11.76-3.8-3.6-.851-7.215-1.624-10.827-2.487-13.758-3.287-27.2-8.642-34.286-21.683a39.561,39.561,0,0,1-.913-36.375c.385-.748,1.51-.126,1.14.621-8.287,16.438-2.719,37.975,12.825,48,7.579,4.881,16.477,7.048,25.162,9.026,4.119.929,8.245,1.819,12.31,2.932,2.911.789,6.179,1.608,8.444,3.733,5.231,4.921.2,12.123-4.456,15.248" transform="translate(-3896.306 910.776)" fill="#fff"/>
  <path id="path1332" d="M4134.881-572.712c-7.5-3.146-12.92-8.645-17.761-15.117-5.774-7.694-11.328-15.471-17.864-22.576A131.045,131.045,0,0,0,4077.9-629.34c-7.641-5.306-16.168-9.3-23.164-15.51-.631-.556.268-1.483.886-.927,8.733,7.717,19.669,12.455,28.8,19.7a149.539,149.539,0,0,1,23.425,23.719c7.044,8.766,12.818,19.985,22.635,26.006a38.873,38.873,0,0,0,4.161,2.224c.089.477.165.955.24,1.42" transform="translate(-3961.118 924.365)" fill="#fff"/>
  <path id="path1334" d="M4211.7-338.738a45.261,45.261,0,0,1-14.1-16.884c-3.124-6.641-5.115-18.866,5.835-17.911a17.541,17.541,0,0,1,6.468,1.9c.034.479.062.958.082,1.449a15.317,15.317,0,0,0-7.47-2.11c-13.113-.115-2.554,19.286,1.332,24.135a48.349,48.349,0,0,0,7.751,7.674c.027.582.069,1.165.1,1.747" transform="translate(-4029.332 792.244)" fill="#fff"/>
  <path id="path1336" d="M3953.478-251.058a.668.668,0,0,1-.467.633c-5.307,1.922-10.532-.446-15.523-2.275-5.471-1.988-10.95-4-16.436-5.986v-.014c-.007-.427-.007-.855,0-1.269q10.144,3.693,20.315,7.309c2.581.926,5.4,1.9,8.2,1.717.673-.119,1.346-.225,2.019-.344a3.227,3.227,0,0,0-.667-3.392,21.853,21.853,0,0,0-2.725-3.216,96.939,96.939,0,0,0-9.406-9.114,93.516,93.516,0,0,0-11.376-8.214c-1.861-1.15-3.755-2.272-5.705-3.238-.186-.087-.357-.174-.543-.26v-.012c-.007-.518.007-1.037.007-1.555,3.92,1.621,7.676,4.333,10.984,6.616a95.711,95.711,0,0,1,13.168,10.881c2.979,2.963,8.218,7.146,8.156,11.733" transform="translate(-3896.372 746.987)" fill="#fff"/>
  <path id="path1338" d="M3913.427-888.419a30.716,30.716,0,0,0-18.633,18.3c-4.339,11.932-17.83,102.869-15.365,117.577,2.451,14.664,24.8,14.5,30.078,4.531s17.273-61.618,17.273-61.618-4.854-56.265-4.881-57.554-8.472-21.233-8.472-21.233" transform="translate(-3876.04 1041.984)" fill="#a86556"/>
  <path id="path1340" d="M4170.472-900a30.737,30.737,0,0,1,19.457,17.425c4.874,11.722,22.511,101.947,20.72,116.751-1.785,14.761-24.111,15.618-29.844,5.9s-20.068-60.763-20.068-60.763,2.272-56.429,2.245-57.717,7.49-21.6,7.49-21.6" transform="translate(-4012.644 1047.6)" fill="#a86556"/>
  <path id="path1342" d="M4057.388-1124.613a32.075,32.075,0,0,0-15-16.238c-9.323-4.853-22.841-5.476-32.906-2.707-8.953,2.465-16.429,7.719-19.937,16.317a32.516,32.516,0,0,0-1.7,5.663,19.24,19.24,0,0,0-.35,6.329,18.037,18.037,0,0,0,2.19,5.919c.913,1.806,1.867,3.592,2.884,5.344a70.853,70.853,0,0,0,6.906,9.975c.583.7,1.188,1.383,1.8,2.055,6.419,6.994,13.044,13.808,19.567,20.7,2.629,2.78,5.2,6.43,8.41,8.58,2.746,1.842,5.4.828,8.039-.758,8.959-5.371,14.692-12.688,18.749-22.054,4.943-11.395,6.426-26.414,1.792-38.052-.144-.361-.288-.72-.446-1.077" transform="translate(-3928.546 1166.546)" fill="#382823"/>
  <path id="path1344" d="M4036.982-958.615c-.8-.279-1.62-.585-2.458-.876-3.6-1.317-7.374-2.747-9.44-3.685-.117-.049-.22-.1-.343-.161a6.4,6.4,0,0,1-.783-.409A36.819,36.819,0,0,1,4020.5-966c-.213-.151-.419-.3-.632-.465a17.373,17.373,0,0,1-4.881-5.511l-.041-.065a11.168,11.168,0,0,1-.577-1.231c-2.272-4.984-2.328-11.463-2.554-16.87-.227-5.639-.137-11.306-.714-16.925-.069-.647-1.448,3.039-1.751,3.461-.426,0-.865.006-1.3.029-.083-1.89-.151-3.767-.247-5.656-.048-.816-1.332-.916-1.284-.088.069,1.916.151,3.845.234,5.761q-16.374.354-32.721-.586a.641.641,0,0,0-.68.754c1.476,5.667,2.458,14.987,2.623,22.835.007.44.02.881.014,1.309.082,3.523.528,8.9-1.339,12.08a14.231,14.231,0,0,1-2.424,2.815c-.563.531-1.208,1.1-1.922,1.69a53.556,53.556,0,0,1-4.662,3.411c-.309.2-.611.4-.934.6-1.668,1.061-3.529,2.141-5.527,3.171-.844.46-1.7.881-2.6,1.3-1.208.559-2.437,1.105-3.721,1.614-.913.371-1.826.715-2.774,1.048a64.925,64.925,0,0,1-7.5,2.192c-5.307,1.184-12.488,4.368-14.493,10.206-1.009,2.977.6,8.8,1.085,11.791a60.919,60.919,0,0,0,3.09,11.5.651.651,0,0,0,.824.4c1.648-.362,3.289-.737,4.936-1.1q4.078-.891,8.136-1.806c2.142-.476,4.263-.953,6.392-1.429s4.257-.966,6.351-1.6a28.949,28.949,0,0,0,8.211-3.648,16.5,16.5,0,0,0,5.726-6.791c1.366.073,2.726.133,4.071.165a92.188,92.188,0,0,0,20.521-1.311c6.488-1.223,13.017-2.474,19.491-3.918,2.451-.549,4.9-1.122,7.333-1.748.782-.2,2.506-1.534,4.614-3.384.707-.638,1.469-1.316,2.245-2.047.213-.2.446-.412.686-.651.852-.8,1.724-1.633,2.6-2.482,4.669-4.526,9.1-9.148,9.1-9.148s-2.911-1.009-6.515-2.3" transform="translate(-3899.634 1100.91)" fill="#a86556"/>
  <path id="path1346" d="M4145.55-831.248a83.259,83.259,0,0,0,23.59.324c11.623-1.777,17.905-3.3,17.905-3.3s11.225,49.5,13.744,55.7,6.8,33.047,5.9,40.842-4.05,16.316-8.328,18.33-12.069,3.543-18.948,1.131-20.418-37.1-20.445-38.4,19.292-12.1,19.292-12.1-11.472-22.177-14.864-28.561a55.879,55.879,0,0,0-8.87-11.765l-8.973-22.2" transform="translate(-4005.276 1015.696)" fill="#4d3932"/>
  <path id="path1348" d="M3930.212-825.771a83.224,83.224,0,0,1-23.549,1.4c-11.685-1.245-17.905-2.487-17.905-2.487s-9.083,49.966-11.314,56.28-5.28,33.324-4.023,41.069,4.792,16.115,9.152,17.931,12.22,2.986,18.983.262,18.7-38,18.674-39.293-16.058-11.025-16.058-11.025,6.673-22.862,9.776-29.394a55.928,55.928,0,0,1,8.321-12.158l7.943-22.587" transform="translate(-3873.127 1012.12)" fill="#4d3932"/>
  <path id="path1350" d="M4047.6-1107.567c-1.867-10.208-5.726-15.426-14.644-21.889-7.957-5.772-18.763-5.417-28.128-2.415-7.072,2.277-14.678,11.139-16.786,18.11a30.536,30.536,0,0,0-.782,3.345c-1.064,6.072-.467,12.685-.35,19.35.158,9.4,1.614,20.746,4.469,28.871,2.423,6.922,4.922,12.724,11.575,16.68,7.14,4.242,16.813,3.885,24.557.206a31.89,31.89,0,0,0,13.628-13.081,55.857,55.857,0,0,0,6.042-17.527,84.8,84.8,0,0,0,1.792-19.262v-.013a81.978,81.978,0,0,0-1.373-12.374" transform="translate(-3928.188 1161.113)" fill="#a86556"/>
  <path id="path1352" d="M4008.157-1045.746c-3.357-.47-2.341,7.5.1,7.429a2.009,2.009,0,0,0,1.49-.856c1.229-1.629.961-6.215-1.593-6.573" transform="translate(-3937.589 1118.311)" fill="#382823"/>
  <path id="path1354" d="M4067.611-1048.244c-3.336-.617-2.67,7.392-.227,7.426a2.019,2.019,0,0,0,1.531-.79c1.3-1.573,1.229-6.168-1.3-6.637" transform="translate(-3966.361 1119.53)" fill="#382823"/>
  <path id="path1356" d="M4099.154-1058.15s5.156-3.521,6.791,5.457-.852,15.3-5.307,15.9-6.008-6.372-6.008-6.372l4.524-14.981" transform="translate(-3980.575 1124.649)" fill="#a86556"/>
  <path id="path1358" d="M4034.453-1016.975a5.364,5.364,0,0,1-2.842-.663,2.609,2.609,0,0,1-1.181-1.718c-.59-2.882.852-8.417.913-8.652a.647.647,0,0,1,.79-.461.65.65,0,0,1,.46.791c-.014.054-1.428,5.476-.893,8.06a1.3,1.3,0,0,0,.611.891c1.119.719,3.351.425,4.12.249a.643.643,0,0,1,.776.488.645.645,0,0,1-.487.776,11.314,11.314,0,0,1-2.266.239" transform="translate(-3949.364 1109.931)" fill="#8a4130"/>
  <path id="path1360" d="M4103.9-1038.258a.632.632,0,0,1-.4-.137.649.649,0,0,1-.117-.91,8.43,8.43,0,0,0,1.05-3.352c.371-2.245-.5-3.057-.536-3.09a.658.658,0,0,1-.068-.909.647.647,0,0,1,.9-.085c.151.125,1.476,1.306.989,4.294a9.135,9.135,0,0,1-1.312,3.941.637.637,0,0,1-.508.249" transform="translate(-3984.756 1118.854)" fill="#8a4130"/>
  <path id="path1362" d="M4030.8-967.977a26.918,26.918,0,0,1-8.287-1.248.643.643,0,0,1-.391-.826.65.65,0,0,1,.824-.4,26.482,26.482,0,0,0,15.894-.16c8.122-2.875,14.129-9.756,14.184-9.825a.649.649,0,0,1,.913-.067.645.645,0,0,1,.069.914c-.254.293-6.282,7.207-14.733,10.2a25.329,25.329,0,0,1-8.472,1.41" transform="translate(-3945.386 1086.728)" fill="#8a4130"/>
  <path id="path1364" d="M4120.324-900.144l-2.458,4.189-1.634-4.679-8.376-24.012a36.838,36.838,0,0,0,3.46,2.253,6.445,6.445,0,0,0,.783.409h.014l7.023,18.679,1.188,3.16" transform="translate(-3986.992 1059.557)" fill="#4d3932"/>
  <path id="path1366" d="M4001.273-1062.721a13.928,13.928,0,0,0-2.011.873,14.906,14.906,0,0,0-2.938,2.118c-.385.341-1.682,1.82-.247,1.8,3.083-.042,6.09-.805,9.179-.895,1.847-.054,3.632.124,5.4-.545a2.112,2.112,0,0,0,.776-.443,1.448,1.448,0,0,0,.082-1.627c-.988-2.11-3.762-2.281-5.781-2.154a17.021,17.021,0,0,0-4.462.872" transform="translate(-3932.448 1126.975)" fill="#382823"/>
  <path id="path1368" d="M4059.165-1065.914c-2.025-.034-4.785.264-5.678,2.417a1.469,1.469,0,0,0,.159,1.621,2.091,2.091,0,0,0,.8.407c1.8.587,3.57.328,5.417.3,3.1-.052,6.131.572,9.213.474,1.435-.046.069-1.464-.33-1.787a14.623,14.623,0,0,0-3.034-1.982,13.977,13.977,0,0,0-2.046-.779,17.03,17.03,0,0,0-4.5-.668" transform="translate(-3960.537 1128.086)" fill="#382823"/>
  <path id="path1370" d="M4021.643-999.57s2.541,1.124,8.445,1.07a51.707,51.707,0,0,0,11.582-1.528s-1.682,7.362-10.7,7.064c-8.169-.271-9.33-6.606-9.33-6.606" transform="translate(-3945.17 1096.125)" fill="#914a3a"/>
  <path id="path1372" d="M4048.685-1108.621c-1.86-10.208-5.671-15.69-14.582-22.153-7.957-5.772-19.45-5.225-28.808-2.223-7.071,2.276-14.877,11.377-16.978,18.348a35.495,35.495,0,0,0-.474,3.648c2.781-3.363,6.412-6.841,10.559-6.41,3.391.354,6.536,1.4,9.948,1.577a76.785,76.785,0,0,0,19.3-1.492h.041c5.019-1.435,10.037,3.623,12.488,7.392a29.205,29.205,0,0,1,4.154,13.186c.124,1.276-.371,4.749,1.517,5.07,1.476.249,2.781-2.165,3.708-4.086v-.013a84.612,84.612,0,0,0-.872-12.843" transform="translate(-3928.774 1161.698)" fill="#382823"/>
  <path id="path1374" d="M4064.723-707.907c-3.076-8.4-4.408-16.677-5.527-25.529-1.352-10.707-4.723-21.237-8.856-31.175-3.467-8.363-3.206-17.467-3.343-26.425-.158-10.015-2.9-19.552-4.812-29.3-1.27-6.466-2.355-13.447-4-20.18a74.167,74.167,0,0,0-4.483-13.469c-2.568-6.066-5.719-11.9-7.964-18.1q-.937-2.551-1.854-5.1c-2.183.534-4.38,1.022-6.6,1.407-10.394,1.8-21.166,1.786-31.684,1.6-9.151-.165-18.461-.15-27.579-.974a43.037,43.037,0,0,1-11-2.159c-.529,1.128-1.064,2.254-1.58,3.388a189.539,189.539,0,0,1-10.47,20.543c-4.545,7.483-6.46,15.582-8.946,23.837-2.231,7.4-4.737,14.9-5.842,22.576a222.8,222.8,0,0,0-1.654,23.634c-.337,8.963,1.338,20.2-1.064,28.844-3.261,11.75-5.328,23.575-7.477,35.717a58.085,58.085,0,0,0-.377,18.47,41.194,41.194,0,0,0,1.833,8.248c.412,1.121,1,2.459,2.313,2.654,3.22.475,6.481-6.142,7.511-8.442a25.418,25.418,0,0,0,1.929-6.989,4.608,4.608,0,0,1,3.09-4.187,17,17,0,0,0,3.453-1.434c1.5-1.027,2.279-2.8,2.938-4.5,3.351-8.674,7.861-14.663,13.2-22.144a75.323,75.323,0,0,0,6.268-10.519c19.024.723,38.09.248,57.142.408.5.546,1,1.093,1.476,1.659a66.842,66.842,0,0,1,8.334,12.688c1.806,3.561,3.378,7.334,6.632,9.84,3.57,2.75,8.183,3.615,11.706,6.467,5.575,4.516,8.218,11.59,13.449,16.43a17.612,17.612,0,0,0,3.584,2.617c1.943,1.046,4.318,1.25,5.382,3.435.68,1.4.515,2.677,1.518,4a7.489,7.489,0,0,0,3.975,2.607.653.653,0,0,0,.728-.314c3.007-6.669,1.057-13.59-1.339-20.127" transform="translate(-3890.548 1036.597)" fill="#4d3932"/>
  <path id="path1376" d="M4124.865-917.866c-.6.446-3.824,29.457-3.88,51.7s.5,39.559,4.545,55.125c4.332,16.665,18.757,32.594,25.972,37.468a38.556,38.556,0,0,0,13.065,5.964l-3.083-11.971s-12.866-4.652-19.237-15.052c-7.113-11.607-12.345-20.226-13.6-46.983s4.3-72.887,2.979-73.828-6.172-2.869-6.762-2.423" transform="translate(-3993.358 1056.301)" fill="#a5b1c7"/>
  <path id="path1378" d="M4144.794-780.408s-9.4-14.544-13.73-17.508c-5.2-3.565-17.226.022-20.734,1.773-2.705,1.348-1.49,3.928-.831,6.738a5.669,5.669,0,0,0-1.661,1.812,4.56,4.56,0,0,0-.563,3.012,4.171,4.171,0,0,0,1.613,2.575c-.027.087-.048.174-.068.261a6.04,6.04,0,0,0-1.456,4.188,2.454,2.454,0,0,0,1.861,2.408,3.477,3.477,0,0,0-.09,3.768,7.746,7.746,0,0,0,3.131,2.6,8.861,8.861,0,0,0,1.916,1.323c6.186,3.214,18.42,5.52,18.42,5.52l15.976-.18-3.783-18.293" transform="translate(-3986.677 998.82)" fill="#a86556"/>
  <path id="path1380" d="M4112.965-780.738a.648.648,0,0,1-.618-.444.653.653,0,0,1,.412-.818,26.871,26.871,0,0,1,6.021-1.28l3.46-.08a.657.657,0,0,1,.666.633.648.648,0,0,1-.632.663l-3.467.079a26.2,26.2,0,0,0-5.643,1.214.631.631,0,0,1-.2.033" transform="translate(-3989.155 991.021)" fill="#8a4130"/>
  <path id="path1382" d="M4112.259-765.858a.647.647,0,0,1-.638-.532.65.65,0,0,1,.522-.752c.24-.045,5.952-1.076,7.9-.832l1.875.236a.644.644,0,0,1,.556.724.651.651,0,0,1-.721.562l-1.874-.236c-1.456-.184-5.912.53-7.5.82l-.117.011" transform="translate(-3988.813 983.576)" fill="#8a4130"/>
  <path id="path1384" d="M4112.535-752.971a.655.655,0,0,1-.652-.633.653.653,0,0,1,.638-.662l8.074-.185a.661.661,0,0,1,.665.633.653.653,0,0,1-.631.663l-8.081.185h-.014" transform="translate(-3988.946 976.998)" fill="#8a4130"/>
  <path id="path1386" d="M4173.282-718.026c2.423-.61,4.7-.417,6.94-1.516a15.805,15.805,0,0,0,6.653-6.408l1.833-5.031a13.746,13.746,0,0,0,.213-2.185l-20.206-29.315-12.193,18.473,11.383,26.217a12.225,12.225,0,0,0,5.375-.235" transform="translate(-4010.599 980.893)" fill="#a86556"/>
  <path id="path1388" d="M4060.043-1181.277c-3.131-3.711-6.227-4.913-10.744-5.28-8.012-.652-16.58,1.809-19.5,11.528-.955,3.171-.906,6.972,1.3,9.4,3.014,3.319,9.234,2.031,13.044,2.111a.641.641,0,0,0,.3-.067c6.495.947,18.509,3.517,20.24-6.039.844-4.623-2.067-8.6-4.641-11.654" transform="translate(-3948.838 1186.656)" fill="#382823"/>
  <path id="path1390" d="M3996.988-918.164l-11.911,25.176-2.286-4.146,9.536-17.62a53.481,53.481,0,0,0,4.662-3.411" transform="translate(-3926.324 1056.413)" fill="#4d3932"/>
  <path id="path1392" d="M3894.826-756.147s-9.577,29.077-8.932,35.779,9.948,10.5,18.016,7.669c4.647-1.634,5.155-29.6,5.155-29.6l-14.239-13.848" transform="translate(-3879.305 977.821)" fill="#a86556"/>
  <path id="path1394" d="M4059.375-1143.363l-.144-.016a96.286,96.286,0,0,0-11.177-1.86,47.215,47.215,0,0,0-10.758.634.659.659,0,0,1-.755-.518.65.65,0,0,1,.522-.756,47.628,47.628,0,0,1,11.1-.65,97.23,97.23,0,0,1,11.356,1.889.647.647,0,0,1,.487.777.648.648,0,0,1-.631.5" transform="translate(-3952.392 1167.244)" fill="#4d3932"/>
  <path id="path1396" d="M4081.362-1160.908a.643.643,0,0,1-.453-.183.651.651,0,0,1-.013-.915,12.069,12.069,0,0,0,2.815-8.451,13.215,13.215,0,0,0-2.877-7.991.644.644,0,0,1,.021-.915.647.647,0,0,1,.913.016c.117.124,2.931,3.1,3.233,8.821a13.108,13.108,0,0,1-3.179,9.422.637.637,0,0,1-.459.2" transform="translate(-3973.796 1183.205)" fill="#4d3932"/>
  <path id="path1398" d="M4075.862-1169.847a.624.624,0,0,1-.275-.062.643.643,0,0,1-.309-.862,8.757,8.757,0,0,0,.219-4.986c-.659-3.175-3.618-7.2-3.646-7.236a.641.641,0,0,1,.13-.907.65.65,0,0,1,.906.135c.13.174,3.165,4.293,3.879,7.746a9.707,9.707,0,0,1-.323,5.8.646.646,0,0,1-.584.371" transform="translate(-3969.463 1185.38)" fill="#4d3932"/>
  <path id="path1400" d="M4041.286-1163.445a.64.64,0,0,1-.556-.326,11.518,11.518,0,0,1-.638-9.054,16.4,16.4,0,0,1,5.87-7.582.642.642,0,0,1,.892.185.647.647,0,0,1-.178.9,15.326,15.326,0,0,0-5.362,6.93,10.387,10.387,0,0,0,.536,7.98.644.644,0,0,1-.24.885.657.657,0,0,1-.323.085" transform="translate(-3953.808 1183.676)" fill="#4d3932"/>
  <path id="path1402" d="M4000.592-1120.958a.6.6,0,0,1-.2-.032.649.649,0,0,1-.419-.818c.13-.393,3.2-9.657,7.257-13.082a35.823,35.823,0,0,1,7.724-5.044.642.642,0,0,1,.851.329.642.642,0,0,1-.33.855,35.18,35.18,0,0,0-7.408,4.85c-3.776,3.188-6.831,12.4-6.858,12.5a.649.649,0,0,1-.618.446" transform="translate(-3934.644 1164.018)" fill="#4d3932"/>
  <path id="path1404" d="M4015.875-1128.762a.652.652,0,0,1-.4-.14.656.656,0,0,1-.1-.91c.213-.266,5.225-6.557,8.623-9.015a19.287,19.287,0,0,1,5.706-3.089.648.648,0,0,1,.79.461.652.652,0,0,1-.46.792,18.49,18.49,0,0,0-5.273,2.886c-3.261,2.355-8.321,8.708-8.369,8.771a.649.649,0,0,1-.508.244" transform="translate(-3942.059 1164.963)" fill="#4d3932"/>
  <path id="path1406" d="M4074.736-1120.6l-.117-.011a.643.643,0,0,1-.522-.755,32.76,32.76,0,0,0,.24-9.381,33.969,33.969,0,0,0-3.508-9.246.647.647,0,0,1,.24-.883.649.649,0,0,1,.885.243,34.676,34.676,0,0,1,3.659,9.678,33.1,33.1,0,0,1-.247,9.824.639.639,0,0,1-.632.53" transform="translate(-3968.989 1164.489)" fill="#4d3932"/>
  <path id="path1408" d="M4085.344-1108.814h-.034a.646.646,0,0,1-.611-.682c.007-.076.405-7.63.178-10.411a39.819,39.819,0,0,0-.5-4.119.646.646,0,0,1,.5-.766.649.649,0,0,1,.769.5,40.815,40.815,0,0,1,.522,4.278c.233,2.868-.158,10.272-.178,10.586a.643.643,0,0,1-.646.613" transform="translate(-3975.595 1156.653)" fill="#4d3932"/>
  <path id="path1410" d="M4111.454-1091l-.144-.016a.645.645,0,0,1-.487-.776c.007-.033.742-3.355.4-10.328a30.525,30.525,0,0,0-4.058-12.951.646.646,0,0,1,.206-.892.647.647,0,0,1,.893.205,31.367,31.367,0,0,1,4.256,13.574c.351,7.183-.4,10.541-.433,10.681a.648.648,0,0,1-.631.5" transform="translate(-3986.607 1152.411)" fill="#4d3932"/>
  <path id="path1412" d="M4032.38-869.437h0c-8.939.2-20.857-48.542-22.182-54.1a.642.642,0,0,1,.474-.78.644.644,0,0,1,.783.479c5.122,21.421,14.918,53.241,20.9,53.106,6.028-.136,19.738-33.855,27.489-56.487a.644.644,0,0,1,.817-.4.644.644,0,0,1,.4.822c-2,5.849-19.814,57.159-28.684,57.362" transform="translate(-3939.609 1061.018)" fill="#fff"/>
  <path id="path1414" d="M4053.893-813.586c.062,2.682-1.318,4.889-3.076,4.929s-3.234-2.1-3.3-4.784,1.318-4.889,3.076-4.929,3.234,2.1,3.3,4.783" transform="translate(-3957.723 1008.004)" fill="#fff"/>
  <path id="path1416" d="M4048.657-427.783a.642.642,0,0,1-.632-.515c-.1-.462-9.763-46.416-12.207-51.847a96.533,96.533,0,0,0-7.353-12.466.645.645,0,0,1,.158-.9.646.646,0,0,1,.9.159A97.582,97.582,0,0,1,4037-480.676c2.5,5.558,11.891,50.215,12.289,52.114a.646.646,0,0,1-.5.767l-.13.013" transform="translate(-3948.422 850.476)" fill="#382823"/>
  <path id="path1418" d="M4012.963-609.685c-12.406,0-24.564-.573-24.7-.58a.652.652,0,0,1-.618-.678.658.658,0,0,1,.68-.616c.151.008,15.015.7,28.636.557s34.616-.79,34.822-.8h.021a.654.654,0,0,1,.652.628.655.655,0,0,1-.632.667c-.213.007-21.207.646-34.849.8-1.325.015-2.671.021-4.01.021" transform="translate(-3928.677 907.799)" fill="#382823"/>
  <path id="path1420" d="M4237.72-695.745a.641.641,0,0,1-.549-.313,24.092,24.092,0,0,0-5.644-6c-3.686-2.751-11.273-5.94-11.348-5.972a.647.647,0,0,1-.344-.847.644.644,0,0,1,.845-.348c.316.133,7.813,3.282,11.623,6.13a24.815,24.815,0,0,1,5.974,6.372.644.644,0,0,1-.221.888.638.638,0,0,1-.336.093" transform="translate(-4041.287 955.085)" fill="#382823"/>
  <path id="path1422" d="M4233.011-708.591a.643.643,0,0,1-.192-.029c-4.764-1.462-12.062-3.672-12.612-3.77h-.013a.609.609,0,0,1-.6-.63.689.689,0,0,1,.68-.66c.131-.008.378-.028,12.935,3.823a.651.651,0,0,1,.426.809.645.645,0,0,1-.618.458" transform="translate(-4041.192 957.221)" fill="#382823"/>
  <path id="path1424" d="M4158.056-806.494a.647.647,0,0,1-.618-.463l-4.195-14.148a.644.644,0,0,1,.433-.805.64.64,0,0,1,.8.437l4.2,14.148a.648.648,0,0,1-.439.805.666.666,0,0,1-.186.026" transform="translate(-4008.995 1009.734)" fill="#382823"/>
  <path id="path1426" d="M3945.474-806.909a.636.636,0,0,1-.206-.034.642.642,0,0,1-.4-.821c.5-1.483,3-8.891,3.1-9.136a.652.652,0,0,1,.844-.363.649.649,0,0,1,.364.838c-.1.262-1.895,5.568-3.083,9.076a.645.645,0,0,1-.611.44" transform="translate(-3907.908 1007.489)" fill="#382823"/>
  <path id="path1428" d="M3994.182-636.21a.636.636,0,0,1-.254-.053.644.644,0,0,1-.336-.851l2.917-6.767a.649.649,0,0,1,.852-.338.644.644,0,0,1,.336.851l-2.918,6.767a.652.652,0,0,1-.6.391" transform="translate(-3931.537 923.551)" fill="#382823"/>
  <path id="path1430" d="M4098.717-635.534a.641.641,0,0,1-.563-.332l-2.87-5.117a.647.647,0,0,1,.247-.881.644.644,0,0,1,.879.248l2.876,5.117a.649.649,0,0,1-.254.882.623.623,0,0,1-.315.083" transform="translate(-3980.852 922.423)" fill="#382823"/>
  <path id="path1432" d="M4182.43-662.42l7.243,17.42,6.289,2.776s1.627-6.84.639-11.029-.357-8.414-3.955-10.032-10.216.864-10.216.864" transform="translate(-4023.167 933.04)" fill="#4d3932"/>
  <path id="path1434" d="M3955.756-900.637c-.831-1.034-5.657.253-6.591,1.933s-5.945,65.851-10.9,90.2c-1.442,7.1-3.227,13.757-5.025,19.646,1.27,4.2,2.657,6.085,2.746,9.176a31.852,31.852,0,0,1-.137,3.793,203.448,203.448,0,0,0,7.682-20.774c7.442-25.148,13.058-102.938,12.221-103.972" transform="translate(-3902.29 1048.091)" fill="#a5b1c7"/>
  <path id="path1436" d="M3905.344-753.594l10.95-3.453s12.111-2.862,18.145-6.356a8.611,8.611,0,0,0,1.854-1.409,7.685,7.685,0,0,0,3.007-2.744,3.474,3.474,0,0,0-.26-3.76,2.442,2.442,0,0,0,1.744-2.491,5.99,5.99,0,0,0-1.641-4.116c-.028-.085-.048-.172-.075-.258a4.193,4.193,0,0,0,1.49-2.645,4.562,4.562,0,0,0-.7-2.982,5.738,5.738,0,0,0-1.744-1.735c.536-2.838,1.627-5.47-1.132-6.693-3.591-1.589-15.763-4.622-20.8-.824-4.188,3.159-12.907,18.118-12.907,18.118l2.073,21.349" transform="translate(-3887.749 996.616)" fill="#a86556"/>
  <path id="path1438" d="M3959.632-777.107l-.171-.024a26.144,26.144,0,0,0-5.7-.956l-3.46.08a.647.647,0,0,1-.659-.633.643.643,0,0,1,.632-.662l3.46-.08a26.249,26.249,0,0,1,6.076,1,.649.649,0,0,1,.446.8.647.647,0,0,1-.625.472" transform="translate(-3910.244 989.093)" fill="#8a4130"/>
  <path id="path1440" d="M3960.764-762.306l-.089-.006c-1.606-.216-6.1-.727-7.539-.476l-1.861.321a.654.654,0,0,1-.748-.528.644.644,0,0,1,.529-.748l1.86-.321c1.929-.332,7.689.436,7.93.468a.648.648,0,0,1,.556.729.646.646,0,0,1-.639.561" transform="translate(-3910.668 981.702)" fill="#8a4130"/>
  <path id="path1442" d="M3954.4-749.354a.646.646,0,0,1-.646-.634.648.648,0,0,1,.632-.662l8.073-.185a.632.632,0,0,1,.666.633.648.648,0,0,1-.631.662l-8.081.185h-.014" transform="translate(-3912.236 975.244)" fill="#8a4130"/>
  <path id="path1444" d="M3923.356-642.9l-.179-.024a.642.642,0,0,1-.439-.8c.069-.252,7.175-25.246,7.394-29.476.213-4.119-3.193-10.606-3.227-10.671a.646.646,0,0,1,.275-.875.645.645,0,0,1,.872.269c.144.278,3.6,6.868,3.371,11.344-.227,4.374-7.147,28.729-7.442,29.764a.651.651,0,0,1-.625.47" transform="translate(-3897.18 943.221)" fill="#382823"/>
  <path id="path1446" d="M4106.2-1000.2l-2.244,7.333a.452.452,0,0,1-.859.019l-2.574-7.223a.476.476,0,0,1,.021-.351l2.3-4.9a.445.445,0,0,1,.8-.018l2.52,4.788A.444.444,0,0,1,4106.2-1000.2Zm2.115-.943-4.442-8.463a.805.805,0,0,0-1.442.033l-4.064,8.657a.844.844,0,0,0-.027.61l4.545,12.763a.807.807,0,0,0,1.531-.035l3.947-12.957a.808.808,0,0,0-.048-.608" transform="translate(-3982.352 1100.98)" fill="#a18bbc"/>
  <path id="path1448" d="M4107.72-1018.242c.055,2.157-.927,3.929-2.19,3.958s-2.32-1.7-2.369-3.854.927-3.928,2.19-3.957,2.32,1.7,2.369,3.853" transform="translate(-3984.712 1106.829)" fill="#f5ebe3"/>
</svg>
