<svg xmlns="http://www.w3.org/2000/svg" viewBox="0 0 1108 564.17"><defs><style>.cls-1{fill:#a8a8a8;}.cls-2{opacity:0.2;}.cls-11,.cls-12,.cls-2,.cls-4,.cls-7{isolation:isolate;}.cls-3,.cls-4{fill:#fff;}.cls-4,.cls-7{opacity:0.1;}.cls-5{fill:none;stroke:#e6e6e6;stroke-miterlimit:10;stroke-width:2px;}.cls-6{fill:#e6e6e6;}.cls-8{fill:#3f3d56;}.cls-9{fill:#f2f2f2;}.cls-10{fill:#2f2e41;}.cls-11,.cls-12,.cls-13{fill:#6c63ff;}.cls-11{opacity:0.4;}.cls-12{opacity:0.8;}</style></defs><g id="Layer_2" data-name="Layer 2"><g id="Layer_1-2" data-name="Layer 1"><path class="cls-1" d="M74.22,57.51S89.64,57,94.29,53.73s23.71-7.26,24.86-1.95,23.17,26.38,5.76,26.52-40.44-2.71-45.07-5.53S74.22,57.51,74.22,57.51Z"/><path class="cls-2" d="M125.22,76.46c-17.4.14-40.44-2.71-45.07-5.54-3.53-2.15-4.94-9.87-5.41-13.43l-.52,0s1,12.43,5.62,15.26,27.67,5.67,45.07,5.53c5,0,6.76-1.82,6.67-4.47C130.88,75.43,129,76.43,125.22,76.46Z"/><ellipse class="cls-3" cx="187" cy="289.67" rx="187" ry="25.44"/><ellipse class="cls-4" cx="187" cy="289.67" rx="157" ry="21.36"/><ellipse class="cls-3" cx="825" cy="525.67" rx="283" ry="38.5"/><path class="cls-5" d="M451,491.17c90,23,263-30,282-90"/><path class="cls-5" d="M298,124.17s130-36,138,80-107,149-17,172"/><path class="cls-5" d="M172.4,402.46s39.07-10.82,41.48,24-32.16,44.78-5.11,51.7"/><path class="cls-6" d="M767.1,428.41l-7.88,50.3s-38.78,20.6-11.52,21.21,155.74,0,155.74,0,24.84,0-14.55-21.82L881,425.38Z"/><path class="cls-7" d="M742.22,499.55c6.19-5.51,17-11.25,17-11.25L767.1,438l113.92.11,7.87,49.58c9.19,5.09,14.88,9,18.21,12,5.06-1.16,10.59-5.45-18.21-21.39L881,425.56l-113.92,3-7.88,50.29S726.63,496.2,742.22,499.55Z"/><rect class="cls-6" x="566.6" y="78" width="513" height="358" rx="18.05"/><rect class="cls-8" x="583.6" y="97" width="479" height="268"/><circle class="cls-9" cx="823.45" cy="88.47" r="3.03"/><path class="cls-6" d="M1079.6,386v31.1a18,18,0,0,1-18,17.9H584.63a18,18,0,0,1-18-17.9h0V386Z"/><polygon class="cls-10" points="957.6 532.91 957.6 539 631.6 539 631.6 534.13 632.05 532.91 640.08 511 950.93 511 957.6 532.91"/><path class="cls-10" d="M1082.83,526.71c-.6,2.53-2.84,5.21-7.9,7.75-18.18,9.09-55.15-2.43-55.15-2.43s-28.48-4.85-28.48-17.57a24.23,24.23,0,0,1,2.5-1.49c7.64-4,33-14,77.92.43a18.77,18.77,0,0,1,8.54,5.59C1082.08,521.13,1083.51,523.83,1082.83,526.71Z"/><path class="cls-7" d="M1082.83,526.71c-22.25,8.52-42.09,9.16-62.44-5-10.27-7.13-19.59-8.89-26.59-8.76,7.64-4,33-14,77.92.43a18.77,18.77,0,0,1,8.54,5.59C1082.08,521.13,1083.51,523.83,1082.83,526.71Z"/><ellipse class="cls-9" cx="1054.93" cy="519.31" rx="7.88" ry="2.42"/><circle class="cls-10" cx="823.45" cy="410.84" r="11.51"/><polygon class="cls-7" points="957.6 533 957.6 539 631.6 539 631.6 534.2 632.05 533 957.6 533"/><rect class="cls-3" x="96.6" y="24" width="208" height="242"/><rect class="cls-6" x="75.6" width="250" height="86"/><rect class="cls-6" x="75.6" y="102" width="250" height="86"/><rect class="cls-6" x="75.6" y="204" width="250" height="86"/><rect class="cls-11" x="259.6" y="15" width="16" height="16"/><rect class="cls-12" x="282.6" y="15" width="16" height="16"/><rect class="cls-13" x="305.6" y="15" width="16" height="16"/><rect class="cls-11" x="259.6" y="116" width="16" height="16"/><rect class="cls-12" x="282.6" y="116" width="16" height="16"/><rect class="cls-13" x="305.6" y="116" width="16" height="16"/><rect class="cls-11" x="259.6" y="217" width="16" height="16"/><rect class="cls-12" x="282.6" y="217" width="16" height="16"/><rect class="cls-13" x="305.6" y="217" width="16" height="16"/><circle class="cls-3" cx="305" cy="403.17" r="79"/><rect class="cls-3" x="268.6" y="465" width="24" height="43"/><rect class="cls-3" x="316.6" y="465" width="24" height="43"/><ellipse class="cls-3" cx="289" cy="508.67" rx="20" ry="7.5"/><ellipse class="cls-3" cx="337" cy="507.67" rx="20" ry="7.5"/><circle class="cls-10" cx="307" cy="383.17" r="27"/><circle class="cls-3" cx="307" cy="383.17" r="9"/><path class="cls-13" d="M228.37,329.7c-6.38-28.56,14-57.43,45.54-64.47s62.27,10.41,68.65,39S328,343.31,296.5,350.35,234.75,358.27,228.37,329.7Z"/><ellipse class="cls-3" cx="374.22" cy="376.02" rx="39.5" ry="12.4" transform="translate(-117.77 177.58) rotate(-23.17)"/><ellipse class="cls-3" cx="226.22" cy="429.02" rx="39.5" ry="12.4" transform="translate(-150.56 123.62) rotate(-23.17)"/><path class="cls-10" d="M351,426.17c0,7.73-19.91,23-42,23s-43-14.27-43-22,20.91-6,43-6S351,418.44,351,426.17Z"/></g></g></svg>