<svg id="Komponente_3_1" data-name="Komponente 3 – 1" xmlns="http://www.w3.org/2000/svg" width="237.333" height="553.878" viewBox="0 0 237.333 553.878">
  <path id="path452" d="M1041.041-844.918s27.607,113.158,25.143,131.062-41.008,18.6-41.008,18.6l-14.656-143.8,30.521-5.861" transform="translate(-830.171 1059.997)" fill="#ffd191"/>
  <path id="path454" d="M887.775-396.035h66.56c4.676-60.26,6.337-155.442,4.4-176.311-2.182-23.455-6.448-46.627-13.959-45.026s-36.924-3.05-44.4,1.689-26.29,18.813-27.415,20.664-.21,60.848-.21,60.848,9.541,111.316,15.024,138.136" transform="translate(-763.201 949.913)" fill="#ebcfa9"/>
  <path id="path456" d="M731.182-386.3h69.136c2.738-14.761,5-117.947,5-117.947l11.7-93.552-95.626,5.846s-.01,69.72,1.3,93.124c1.2,21.519,6.95,100.02,8.495,112.529" transform="translate(-689.982 940.174)" fill="#ebcfa9"/>
  <path id="path458" d="M866.251-1051.1c-4.052-2.569-13.421-5.6-15.527-12.082s-2.717-21.293-2.474-32.275c.11-.026.221-.046.332-.072.727-.176.467-1.436-.262-1.26l-.039.009q.033-1.285.072-2.558c.034-1.13-2.1-.807-.647,1.188-.286.828-.273.788-.558,1.616a114.878,114.878,0,0,1-38.637,2.234c-.076-2.113-.148-4.184-.167-6.171a.579.579,0,1,0-1.154-.042c.019,1.962.091,4.006.168,6.1l-.07.04c-.96-.429-1.091,1.124-.285,1.225.134.017.269.025.4.041.341,9.253-1.255,25.624-2.606,29.445-1.661,4.7-14.716,10.4-23.206,13.052a.554.554,0,0,0-.3.233l-.076-.051c-.645-.4-1.269.691-.622,1.1,7.153,4.489,11.573,12.4,17.73,18.221,6.2,5.871,14.6,7.617,20.638,13.69a.6.6,0,0,0,.69.12c19.688-9.629,46.651-33.759,46.594-33.794" transform="translate(-718.557 1184.218)" fill="#ffa680"/>
  <path id="path460" d="M873.547-1187.5q.195-2.974.3-5.946c.349-9.41.1-18.507-5.565-26.427-4.235-5.922-11.4-9.429-18.64-11.333-9.583-2.521-20.484-2.272-28.193,4.04-8.638,7.072-11.884,13.465-13.226,23.945-1.5,11.707.315,19.106,3.148,30.68,1.626,6.642,2.713,13.465,6.26,19.43,2.905,4.885,5.919,10.12,11.421,12.389,7.991,3.3,21.6,4.335,28.563-.378,6.495-4.394,9.5-12.614,11.59-19.777a124.076,124.076,0,0,0,4.341-26.622" transform="translate(-731.823 1248.023)" fill="#ffa680"/>
  <path id="path462" d="M925.283-1144.09s5.23-2.956,6.065,5.785-2.062,14.606-6.378,14.813-5.246-6.6-5.246-6.6l5.559-14" transform="translate(-786.147 1205.29)" fill="#ffa680"/>
  <path id="path464" d="M808.22-1144.09s-5.229-2.956-6.065,5.785,2.062,14.606,6.378,14.813,5.246-6.6,5.246-6.6l-5.559-14" transform="translate(-729.071 1205.29)" fill="#ffa680"/>
  <path id="path466" d="M843.533-1146.387c-3.156-.836-3.1,6.9-.756,7.109a1.941,1.941,0,0,0,1.525-.645c1.357-1.416,1.63-5.829-.769-6.464" transform="translate(-748.016 1206.201)" fill="#382823"/>
  <path id="path468" d="M901.275-1146.387c-3.157-.836-3.1,6.9-.757,7.109a1.94,1.94,0,0,0,1.525-.645c1.357-1.416,1.63-5.829-.768-6.464" transform="translate(-776.013 1206.201)" fill="#382823"/>
  <path id="path470" d="M843.082-1162.267c-2-3.956-9.805-1.749-13.145-1.306-1.191.158-5.7,1.705-4.072,3.545.969,1.1,5.169.24,6.6.192l7.546-.255a4.185,4.185,0,0,0,2.4-.576c.781-.581.911-1.122.67-1.6" transform="translate(-740.469 1214.994)" fill="#875549"/>
  <path id="path472" d="M887.609-1160.666a4.185,4.185,0,0,0,2.4.576l7.546.255c1.435.047,5.635.9,6.6-.192,1.624-1.84-2.881-3.387-4.072-3.545-3.339-.443-11.147-2.65-13.145,1.306-.241.479-.111,1.02.67,1.6" transform="translate(-770.198 1214.994)" fill="#875549"/>
  <path id="path474" d="M873.456-1122.24a.648.648,0,0,1-.648-.648.649.649,0,0,1,.647-.649c.044,0,4.348-.036,4.875-2.408.236-1.058-.136-1.955-.7-3.312a25.026,25.026,0,0,1-1.459-4.4,76.461,76.461,0,0,1-1.311-10.491.65.65,0,0,1,.613-.683.639.639,0,0,1,.682.613,76.494,76.494,0,0,0,1.281,10.277,23.827,23.827,0,0,0,1.392,4.185c.61,1.471,1.091,2.632.768,4.089-.752,3.385-5.921,3.424-6.14,3.424" transform="translate(-763.399 1205.414)" fill="#f07f4f"/>
  <path id="path476" d="M853.134-1091.024a113.7,113.7,0,0,0,11.561.415c7.811-.122,11.583-.534,11.583-.534s-1.993,5.81-11.7,5.81a13.535,13.535,0,0,1-11.448-5.691" transform="translate(-753.859 1179.384)" fill="#fff"/>
  <path id="path478" d="M856.309-1054.971a32.668,32.668,0,0,1-11.61-1.968c-3.9-1.55-10.466-9.785-10.744-10.135a.648.648,0,0,1,.1-.91.647.647,0,0,1,.911.1c.065.083,6.626,8.314,10.207,9.736,6.873,2.732,16.435,2.089,20,.446,3.389-1.56,7.283-6.662,7.322-6.714a.646.646,0,0,1,.907-.124.646.646,0,0,1,.125.907c-.166.22-4.128,5.413-7.813,7.109a24.343,24.343,0,0,1-9.41,1.55" transform="translate(-744.492 1168.223)" fill="#f07f4f"/>
  <path id="path480" d="M931.057-1122.116a.648.648,0,0,1-.507-.243.648.648,0,0,1,.1-.911h0a5.3,5.3,0,0,0,.979-2.756,6.767,6.767,0,0,0-.346-3.74.65.65,0,0,1,.3-.866.647.647,0,0,1,.865.29,7.906,7.906,0,0,1,.465,4.523c-.423,2.624-1.282,3.427-1.449,3.562a.647.647,0,0,1-.4.141" transform="translate(-791.327 1198.564)" fill="#f07f4f"/>
  <path id="path482" d="M812.192-1122.12a.629.629,0,0,1-.394-.138c-.167-.135-1.026-.937-1.449-3.562a7.921,7.921,0,0,1,.465-4.524.649.649,0,0,1,.87-.29.647.647,0,0,1,.291.866,6.79,6.79,0,0,0-.346,3.74,5.162,5.162,0,0,0,1,2.771.658.658,0,0,1,.059.906.652.652,0,0,1-.494.229" transform="translate(-733.055 1198.565)" fill="#f07f4f"/>
  <path id="path484" d="M839.971-1140.257a9.983,9.983,0,0,1-5.33,3.445c-3.411.826-7.929-.327-10.205-2.762a8.176,8.176,0,0,1-2.024-4.04c-.139-.716-.857-4.313-.6-5.176.407-1.39,1.942-1.648,3.2-1.873a46.527,46.527,0,0,1,9.808-.368c1.423.094,2.842.248,4.255.439.97.131,2.624.2,3.2,1.107.532.845.291,2.556.054,3.469C841.816-1144.09,841.181-1141.749,839.971-1140.257Zm4.32-10.937a3.249,3.249,0,0,0-.908-.379c-5.853-1.644-14.035-1.645-20.033-.922-1.461.176-5.49.72-5.49.72l-.088,2.86s1.769,1.2,2.4,4.964c.968,5.813,8.414,10,14.549,8.469a11.819,11.819,0,0,0,7.555-5.506,30.388,30.388,0,0,0,2.465-9.668,1.072,1.072,0,0,0-.446-.537" transform="translate(-736.713 1209.355)" fill="#382823"/>
  <path id="path486" d="M881.2-1146.016c-.236-.912-.477-2.623.054-3.469.571-.908,2.225-.977,3.2-1.107,1.413-.191,2.832-.345,4.256-.439a46.535,46.535,0,0,1,9.808.368c1.253.225,2.788.483,3.2,1.873.253.863-.466,4.46-.6,5.176a8.174,8.174,0,0,1-2.023,4.04c-2.277,2.435-6.794,3.588-10.205,2.762a9.988,9.988,0,0,1-5.331-3.445C882.34-1141.749,881.7-1144.09,881.2-1146.016Zm-2.42-4.641a30.388,30.388,0,0,0,2.465,9.668,11.819,11.819,0,0,0,7.555,5.506c6.135,1.529,13.581-2.655,14.549-8.469.627-3.766,2.4-4.964,2.4-4.964l-.089-2.86s-4.029-.544-5.489-.72c-6-.723-14.18-.722-20.033.922a3.254,3.254,0,0,0-.909.379,1.07,1.07,0,0,0-.445.537" transform="translate(-766.288 1209.355)" fill="#382823"/>
  <path id="path488" d="M867.45-1150.4a12.171,12.171,0,0,0,3.521.685,10.786,10.786,0,0,0,4.206-.821l-.473,3.914a7.088,7.088,0,0,0-3.561-.842,5.518,5.518,0,0,0-3.694,1.691v-4.627" transform="translate(-760.801 1208.181)" fill="#382823"/>
  <path id="path490" d="M814.774-1148.153l-6.371-2.381-.716,2.1,8.168,5.544-1.08-5.267" transform="translate(-731.823 1208.181)" fill="#382823"/>
  <path id="path492" d="M926.106-1148.153l6.372-2.381.716,2.1-8.169,5.544,1.08-5.267" transform="translate(-788.718 1208.181)" fill="#382823"/>
  <path id="path494" d="M873.658-1232a8.867,8.867,0,0,0-2.609-5.224c-1.175-1.264-2.471-2.374-2.972-4.1-.422-1.457-.256-3.049-.58-4.53-.98-4.488-3.838-6.384-7.434-6.978a29.157,29.157,0,0,0-2.513-5.409,9.75,9.75,0,0,0-6.905-4.122c-4.1-.517-6.418,1.637-9.847,3.362-5.127,2.578-10.748-.879-15.955-1.536a19.453,19.453,0,0,0-9.8,1,13.426,13.426,0,0,0-4.014,2.545,59.979,59.979,0,0,1-5.855,5.159c-2.6,1.869-3.08,3.965-2.489,6.087-.155-.058-.3-.126-.464-.174a11.378,11.378,0,0,0-6.737.146c-4.43,1.461-7.469,5.437-8.833,9.767-.386,1.225-.49,2.511-.848,3.737-.591,2.02-1.883,3.266-3.2,4.792a8.522,8.522,0,0,0-2.095,5.925c.047,4.163,1.519,9.5,5.635,11.324.594,1.127.512,2.306,1.039,3.447a4.458,4.458,0,0,0,2.441,2.212,4.185,4.185,0,0,0,.909,1.751c1.437,1.619,5.569,2.965,6.972.844,1.249-1.889,1.751-4.746,2.018-6.947.349-2.881,3.331-3.306,5.5-4.679a12.733,12.733,0,0,0,2.681-2.019c1.168-1.306.806-2.129,1.264-3.618.482-1.565,1.021-1.542,2.034-2.443a9.723,9.723,0,0,0,2.85-4.194,6.377,6.377,0,0,1,1.222.931c2.289,2.317,1.425,5.925,4.022,8.19a7.226,7.226,0,0,0,6.165,1.519,5.78,5.78,0,0,1,2.892-.118,8.038,8.038,0,0,0,4.129-.592,7.649,7.649,0,0,1,6.513-.171,39.435,39.435,0,0,0,5.125,1.749c2.334.525,4.638.836,6.463-.613,1.2.71,2.5,1.3,3.416,1.9,1.8,1.169,1.808,2.407,2.334,4.344a3.529,3.529,0,0,0,.681,1.686,2.643,2.643,0,0,0,1.164.7c.007,2.386.341,4.951,1.9,5.028a1.864,1.864,0,0,0,1.131-.308,5.232,5.232,0,0,0,5.1-1.862c2.317-2.581,1.279-5.325,1.883-8.33.464-2.31,1.8-2.351,2.961-4.12a6.937,6.937,0,0,0,1.019-3.763,13.916,13.916,0,0,0-1.2-5.2c1.53-2.078,3.19-4.088,2.884-7.095" transform="translate(-718.646 1262.442)" fill="#875549"/>
  <path id="path496" d="M763.029-1013.119s30.456,25.087,32.733,24.782,33.986-21.949,36.4-21.644S858-993.228,858-993.228s7.934,132.134,12.755,144.023,13.84,69.193,11.832,73.269-41.96,7.178-68.474,4.912-49.412-.635-63.473-3.9-33.6,1.814-35.2-.878,25.561-231.9,27.972-232.715,19.624-4.605,19.624-4.605" transform="translate(-687.059 1141.552)" fill="#fff"/>
  <path id="path498" d="M742.858-1013.119s-18.42,135.857-20.026,152.161-2.813,26.033-7.231,32.786-12.842,36.55-14.348,45.517-2.24,53.356-2.24,53.356-7.114-6.929-12.738-8.152-11.65-.408-12.453-2.446,6.829-59.92,10.043-88.248,12.855-169.363,17.676-176.7,41.317-8.274,41.317-8.274" transform="translate(-666.888 1141.552)" fill="#e35f4b"/>
  <path id="path500" d="M715.868-590.636c.212.734,2.611,7.4,2.438,7.569-.585.594-.672,3.065-.731,3.883a54.745,54.745,0,0,0,.738,10.364q.3,2.461.742,4.9c.109.6,1.388,5.11,1.109,5.341,8.545-7.074,17.538-13.608,25.94-20.865a132.578,132.578,0,0,0-6.758-17.111c-3.554-7.436-8.075-35.314-8.075-35.314l-32.54,5.122c5.208,9.463,10.68,18.852,14.628,28.948.924,2.363,1.8,4.722,2.509,7.162" transform="translate(-678.994 956.695)" fill="#ffa680"/>
  <path id="path502" d="M701.884-1004.583A40.085,40.085,0,0,0,679.4-992.146c-5.33,5.9-13.375,39.882-12.11,49.29s-1.95,33.229-4.36,45.775.8,22.535,0,30.583-4.64,27.853-.913,33.645a44.61,44.61,0,0,1,5.539,12.366,25.609,25.609,0,0,1,1.028,6.48c.016,2.729-.242,4.351,1.933,6.414a15.69,15.69,0,0,1,4.64,7.988c1.015.083,2.151.12,3.44.1,14.864-.247,38.566-9.877,38.566-9.877l-15.28-195.2" transform="translate(-660.417 1137.414)" fill="#e35f4b"/>
  <path id="path504" d="M810.35-834.446a107.694,107.694,0,0,1-9.969,7.194c-.008,2.368-.153,4.759-.345,7.136,3.586-4.646,6.894-9.537,10.314-14.33" transform="translate(-728.114 1054.919)" fill="#f5ded3"/>
  <path id="path506" d="M822.293-756.929c.922-.07,1.843-.174,2.762-.288,3.8-12.7,7.37-25.43,8.354-38.694-8.2,6.548-14.406,15-21.611,22.58-5.07,5.334-10.473,10.415-15.189,16.049a96.2,96.2,0,0,1,12.746-.073,71.679,71.679,0,0,0,12.938.426" transform="translate(-726.452 1036.235)" fill="#f5ded3"/>
  <path id="path508" d="M916.5-863.915c-6.175,11.078-12.565,22.047-16.125,34.279,5.466-.9,10.391-3.785,15.19-6.44,4.042-2.235,8.128-4.326,11.985-6.88,2.377-1.574,4.706-3.216,7.043-4.841q-.4-7.761-.8-15.521a.661.661,0,0,0-.648-.648q-8.323-.163-16.641.051" transform="translate(-776.767 1069.265)" fill="#f5ded3"/>
  <path id="path510" d="M926.719-767.561c-7.85,7.158-15.707,14.507-22.342,22.816,3.448-.013,6.9-.005,10.379.072a49.467,49.467,0,0,0,6.517-.427c1.992-7.436,5.347-14.731,5.447-22.461" transform="translate(-778.706 1022.489)" fill="#f5ded3"/>
  <path id="path512" d="M883.327-801.825c.067-3.952,1.566-7.355,1.031-11.367a51.8,51.8,0,0,1-.7-11.816,96,96,0,0,0,.263-12.423c-.119-2.809-.266-5.616-.407-8.423-3.394,2.384-6.787,4.778-10.365,6.87-7.693,4.5-16.4,10.287-25.462,11.14a1.072,1.072,0,0,1-1.026-1.347c3.413-12.719,9.937-24.043,16.306-35.453-3.316-.216-6.637-.273-9.954-.536-4.69,3.38-9.351,6.791-13.748,10.535-5.976,5.088-12.969,12.3-21.1,13.479-.8.116-1.815-.714-1.2-1.563,5.1-7.052,9.831-14.359,14.689-21.576a107.533,107.533,0,0,1-15.27,1.069c-6.8-.1-11.357-.411-18.194.566-1.135.163-2.265.337-3.4.509-.175,3.476,1.24,7.238,2.068,10.623a35.522,35.522,0,0,1,.919,6.883,178.252,178.252,0,0,0,15.138-11.572,1.065,1.065,0,0,1,1.5,1.5c-6.009,7.634-11.158,16-17.268,23.53-.171,1.905-.337,3.789-.446,5.627-.5,8.406-1.17,16.822-1.409,25.24-.062,2.182-.166,4.5-.109,6.8,4.489-5.17,9.49-9.926,14.212-14.9,7.862-8.272,14.531-17.494,23.816-24.32a1.07,1.07,0,0,1,1.6.919c-.707,14-4.387,27.386-8.361,40.718a64.831,64.831,0,0,1,8.363-.819c4.591-.04,9.147-.111,13.707-.146,7.388-9.544,16.392-17.825,25.3-25.927a1.079,1.079,0,0,1,1.817.753c.663,8.535-3.008,16.528-5.267,24.577a32.578,32.578,0,0,1,5.8-.144c3.743,1,9.09,2.425,8.923-2.629-.115-3.481-1.833-2.828-1.773-6.386" transform="translate(-725.565 1069.82)" fill="#f5ded3"/>
  <path id="path514" d="M863.751-858.305c3.239-2.7,6.621-5.22,10.041-7.693a44.8,44.8,0,0,0-11.746.168c-1.11.2-2.281.391-3.473.575-4.707,6.944-9.265,13.993-14.112,20.841,7.361-2.325,13.628-9.172,19.291-13.891" transform="translate(-749.654 1070.365)" fill="#f5ded3"/>
  <path id="path516" d="M942.091-1007.032s5.881,34.966,15.471,84.287c7.041,36.214,15.915,95.652,20.972,118.133,2.358,10.478,10.94,77.286,11.768,78.1s8.862-6.93,15.691-7.744,9.24.815,9.24-15.082c0-5.839-12.487-50.3-14.844-60.878s-7.4-118.743-7.653-129.316c-.4-16.712-1.607-49.321-9.24-58.7s-41.4-8.8-41.4-8.8" transform="translate(-796.992 1138.604)" fill="#e35f4b"/>
  <path id="path518" d="M989.38-1003.643s29.785,2.258,35.122,31.925c2.293,12.744,15.667,58.971,21.291,72.148s7.173,23.267,8.779,36.685,5.017,22.112.218,30.341c-8.747,15-23.99,13.457-33.9,8.966-7.857-3.559-25.71-58.872-25.71-58.872l-5.8-121.193" transform="translate(-819.921 1136.958)" fill="#e35f4b"/>
  <path id="path520" d="M999.781-787.277,988.558-756.4l-19.3-22.056-7-8.009-.622-.713,12.752-19.97.791.609,7.944,6.22,16.652,13.037" transform="translate(-806.472 1041.681)" fill="#ffa680"/>
  <path id="path522" d="M834.086-1210.515a.648.648,0,0,1-.637-.535c-.012-.069-1.251-6.925-3.847-9.121a50.413,50.413,0,0,1-5.866-6.251.647.647,0,0,1,.109-.909.647.647,0,0,1,.909.109,50.245,50.245,0,0,0,5.685,6.061c2.952,2.5,4.233,9.585,4.286,9.886a.647.647,0,0,1-.525.75l-.113.01" transform="translate(-739.538 1245.485)" fill="#6b3b30"/>
  <path id="path524" d="M802.962-1178.388l-.13-.013a.648.648,0,0,1-.505-.764c.046-.224,1.148-5.517,3.536-7.791a11.392,11.392,0,0,1,3.211-1.966c1.66-.773,3.227-1.5,4.28-3.484a52.254,52.254,0,0,1,5.752-8.006.65.65,0,0,1,.915-.062.648.648,0,0,1,.06.915,52.1,52.1,0,0,0-5.583,7.761,9.2,9.2,0,0,1-4.876,4.052,10.282,10.282,0,0,0-2.865,1.729c-2.1,2-3.149,7.061-3.16,7.111a.647.647,0,0,1-.634.519" transform="translate(-729.218 1232.473)" fill="#6b3b30"/>
  <path id="path526" d="M793.475-1176.781l-.058,0a.649.649,0,0,1-.587-.7c.023-.258.6-6.342,3.681-8.967,3-2.556,4.9-3.034,4.98-3.054a.648.648,0,0,1,.782.479.649.649,0,0,1-.479.782,13.094,13.094,0,0,0-4.443,2.78c-2.683,2.285-3.225,8.038-3.23,8.1a.648.648,0,0,1-.645.59" transform="translate(-724.618 1227.087)" fill="#6b3b30"/>
  <path id="path528" d="M886.22-1243.111a.648.648,0,0,1-.648-.648.648.648,0,0,1,.648-.648,38.319,38.319,0,0,0,8.851-1.417c.98-.237,1.95-.47,2.906-.675,3.963-.845,8.851,1.247,9.058,1.335a.648.648,0,0,1,.337.852.649.649,0,0,1-.852.337c-.046-.02-4.714-2.013-8.274-1.257-.944.2-1.9.433-2.872.666a39.272,39.272,0,0,1-9.155,1.454" transform="translate(-769.588 1254.809)" fill="#6b3b30"/>
  <path id="path530" d="M924.748-1225.363a.645.645,0,0,1-.432-.166c-4.635-4.148-10.458-5.842-17.8-5.183a.645.645,0,0,1-.7-.587.648.648,0,0,1,.587-.7c7.719-.693,13.859,1.108,18.777,5.508a.649.649,0,0,1,.05.915.646.646,0,0,1-.483.216" transform="translate(-779.402 1247.752)" fill="#6b3b30"/>
  <path id="path532" d="M884.364-1192.854h-.039a.648.648,0,0,1-.609-.685c.117-2.018-.106-5.708-2.933-7.727a15.876,15.876,0,0,0-4.272-1.91,19.364,19.364,0,0,1-3.972-1.674,40.58,40.58,0,0,1-3.652-2.614,29.234,29.234,0,0,0-4.746-3.207c-6.14-3.082-17.889.58-18.008.617a.646.646,0,0,1-.813-.422.646.646,0,0,1,.422-.812c.5-.159,12.37-3.858,18.981-.54a30.607,30.607,0,0,1,4.958,3.34,39.609,39.609,0,0,0,3.533,2.532,18.172,18.172,0,0,0,3.711,1.552,17.053,17.053,0,0,1,4.612,2.085c2.47,1.765,3.7,4.91,3.473,8.857a.648.648,0,0,1-.646.61" transform="translate(-750.056 1238.569)" fill="#6b3b30"/>
  <path id="path534" d="M921.839-1192.11a.646.646,0,0,1-.544-.3,25.093,25.093,0,0,0-4.28-5.211c-2.547-2.253-6.2-2.868-9.43-3.411a.648.648,0,0,1-.531-.747.648.648,0,0,1,.747-.532c3.4.572,7.248,1.219,10.073,3.719a25.976,25.976,0,0,1,4.508,5.478.648.648,0,0,1-.192.9.641.641,0,0,1-.352.1" transform="translate(-780 1233.288)" fill="#6b3b30"/>
  <path id="path536" d="M732.637-951.22q-1.027-4.332-2.054-8.664c-.192-.812-1.442-.468-1.249.344l2.053,8.664c.192.811,1.442.468,1.25-.344" transform="translate(-693.823 1115.965)" fill="#f5ebe3"/>
  <path id="path538" d="M715.544-870.355A40.376,40.376,0,0,1,712.3-881.73c-.108-.815-1.4-.826-1.3,0a42.577,42.577,0,0,0,3.421,12.029c.342.759,1.46.1,1.119-.654" transform="translate(-684.942 1078.144)" fill="#f5ebe3"/>
  <path id="path540" d="M767.11-910.126a39,39,0,0,1-1.256-9.338.648.648,0,0,0-1.3,0,40.411,40.411,0,0,0,1.3,9.682.648.648,0,0,0,1.249-.344" transform="translate(-710.912 1096.445)" fill="#f5ebe3"/>
  <path id="path542" d="M743.71-784.313a59.688,59.688,0,0,1-3.1-11.213c-.143-.82-1.392-.473-1.25.344a59.661,59.661,0,0,0,3.1,11.213c.3.77,1.55.435,1.249-.345" transform="translate(-698.69 1036.275)" fill="#f5ebe3"/>
  <path id="path544" d="M692.758-792.485a11.456,11.456,0,0,1-1.515-6.223c.031-.835-1.264-.833-1.3,0a12.761,12.761,0,0,0,1.692,6.877.648.648,0,0,0,1.119-.654" transform="translate(-674.73 1037.894)" fill="#f5ebe3"/>
  <path id="path546" d="M728-720.156q-1.324-4.528-2.648-9.055a.648.648,0,0,0-1.249.345q1.324,4.528,2.648,9.055a.648.648,0,0,0,1.249-.345" transform="translate(-691.282 1004.115)" fill="#f5ebe3"/>
  <path id="path548" d="M687.077-677.028l-2.71-8.6c-.25-.793-1.5-.454-1.25.345q1.355,4.3,2.71,8.6c.249.793,1.5.454,1.249-.344" transform="translate(-671.408 982.982)" fill="#f5ebe3"/>
  <path id="path550" d="M742.793-658.748a19.152,19.152,0,0,1-1.988-7.469c-.049-.829-1.345-.835-1.3,0a20.852,20.852,0,0,0,2.165,8.124c.372.747,1.49.091,1.119-.655" transform="translate(-698.765 973.653)" fill="#f5ebe3"/>
  <path id="path552" d="M787.292-990.576a114.73,114.73,0,0,0-4.794-11.389c-.364-.75-1.482-.093-1.119.654a111.6,111.6,0,0,1,4.663,11.08c.28.779,1.532.443,1.25-.345" transform="translate(-719.033 1136.305)" fill="#f5ebe3"/>
  <path id="path554" d="M764.476-835.541A85.973,85.973,0,0,0,759-845.965c-.437-.709-1.558-.058-1.12.654a85.85,85.85,0,0,1,5.472,10.424c.336.761,1.453.1,1.12-.655" transform="translate(-707.627 1060.653)" fill="#f5ebe3"/>
  <path id="path556" d="M693.213-519.848l-5.572-7.377c-.5-.657-1.622-.012-1.119.655l5.572,7.377c.5.657,1.622.012,1.119-.654" transform="translate(-673.013 906.09)" fill="#f5ebe3"/>
  <path id="path558" d="M699.139-574.071a35.251,35.251,0,0,1-2.841-5.956c-.284-.777-1.537-.442-1.249.345a37.048,37.048,0,0,0,2.971,6.265.648.648,0,0,0,1.119-.654" transform="translate(-677.188 931.773)" fill="#f5ebe3"/>
  <path id="path560" d="M701.447-944.27a46.812,46.812,0,0,1-3.232-9.816c-.173-.815-1.423-.471-1.25.345a48.381,48.381,0,0,0,3.363,10.125c.347.758,1.464.1,1.119-.654" transform="translate(-678.13 1113.155)" fill="#f5ebe3"/>
  <path id="path562" d="M1001.416-981.8a15.484,15.484,0,0,1-3.3-5.756c-.251-.792-1.5-.453-1.25.345a17.051,17.051,0,0,0,3.631,6.328c.561.621,1.475-.3.917-.916" transform="translate(-823.536 1129.377)" fill="#f5ebe3"/>
  <path id="path564" d="M967.976-983.275l-4.322-8.639c-.373-.746-1.491-.09-1.118.654l4.321,8.639c.373.747,1.491.091,1.119-.654" transform="translate(-806.869 1131.43)" fill="#f5ebe3"/>
  <path id="path566" d="M1040.946-916.936a69.275,69.275,0,0,1-5.055-10.246c-.3-.767-1.556-.433-1.249.345a71.394,71.394,0,0,0,5.186,10.556.649.649,0,0,0,1.119-.655" transform="translate(-841.844 1100.095)" fill="#f5ebe3"/>
  <path id="path568" d="M997.787-901.265q-1.574-5.815-3.15-11.63a.648.648,0,0,0-1.249.345q1.574,5.815,3.149,11.629a.649.649,0,0,0,1.25-.344" transform="translate(-821.852 1093.179)" fill="#f5ebe3"/>
  <path id="path570" d="M1002.046-833.407q-1.54-4.958-3.079-9.918c-.246-.795-1.5-.455-1.249.344l3.078,9.919c.247.793,1.5.455,1.25-.345" transform="translate(-823.948 1059.444)" fill="#f5ebe3"/>
  <path id="path572" d="M1041.261-844.344a67.4,67.4,0,0,1-4.7-11.52c-.242-.8-1.493-.456-1.25.345a69.254,69.254,0,0,0,4.827,11.829c.385.74,1.5.086,1.119-.654" transform="translate(-842.179 1065.524)" fill="#f5ebe3"/>
  <path id="path574" d="M1085.706-770.433a66.742,66.742,0,0,1-3.185-11.636c-.147-.819-1.4-.473-1.25.345a66.808,66.808,0,0,0,3.186,11.636c.289.774,1.542.439,1.249-.345" transform="translate(-864.471 1029.75)" fill="#f5ebe3"/>
  <path id="path576" d="M1057.619-727.19q-2.243-5.582-4.488-11.163c-.307-.764-1.561-.431-1.249.344l4.488,11.164c.307.764,1.561.431,1.249-.345" transform="translate(-850.202 1008.536)" fill="#f5ebe3"/>
  <path id="path578" d="M1044.368-668.56l-4.3-11.241c-.294-.771-1.547-.437-1.249.345l4.295,11.24c.295.771,1.548.437,1.25-.344" transform="translate(-843.872 980.148)" fill="#f5ebe3"/>
  <path id="path580" d="M1033.655-598.262a74.794,74.794,0,0,1-3.67-9.421c-.249-.793-1.5-.454-1.25.345a77.451,77.451,0,0,0,3.8,9.731c.354.753,1.472.1,1.119-.655" transform="translate(-838.987 945.188)" fill="#f5ebe3"/>
  <path id="path582" d="M1060.085-553.242a12.848,12.848,0,0,1-3.274-6.655c-.142-.82-1.391-.473-1.249.344a14.061,14.061,0,0,0,3.607,7.228c.569.612,1.484-.306.916-.917" transform="translate(-852.005 922.026)" fill="#f5ebe3"/>
  <path id="path584" d="M1045.034-504.355a32.809,32.809,0,0,1-4.292-10.224c-.19-.812-1.44-.468-1.249.344a33.913,33.913,0,0,0,4.422,10.533c.446.7,1.567.054,1.119-.654" transform="translate(-844.21 900.05)" fill="#f5ebe3"/>
  <path id="path586" d="M740.828-842.256a.649.649,0,0,1-.641-.556c-.078-.552-1.9-13.578.031-19.031,1.5-4.224,1.514-7.07,1.565-14.676.012-1.843.026-3.96.063-6.44a177.234,177.234,0,0,1,1.69-17.781c1.547-12.435,3.473-27.912,3.4-47.948-.157-42.611-23.291-45.093-23.524-45.114a.647.647,0,0,1-.591-.7.647.647,0,0,1,.7-.591c.246.02,24.55,2.525,24.713,46.4.075,20.119-1.856,35.641-3.407,48.114a176.43,176.43,0,0,0-1.681,17.64c-.038,2.475-.051,4.589-.062,6.429-.052,7.765-.071,10.671-1.639,15.1-1.825,5.154.012,18.284.03,18.416a.647.647,0,0,1-.55.732l-.092.007" transform="translate(-690.672 1132.813)" fill="#382823"/>
  <path id="path588" d="M682.836-631.495a.647.647,0,0,1-.624-.478.647.647,0,0,1,.455-.8l41.856-11.413a.649.649,0,0,1,.8.455.648.648,0,0,1-.455.8l-41.856,11.412-.171.023" transform="translate(-670.973 962.677)" fill="#382823"/>
  <path id="path590" d="M690.319-616.086a.648.648,0,0,1-.637-.53.648.648,0,0,1,.519-.756l4.8-.89a.648.648,0,0,1,.755.518.649.649,0,0,1-.518.756l-4.8.891-.119.01" transform="translate(-674.601 950.103)" fill="#382823"/>
  <path id="path592" d="M779.984-940.634a.649.649,0,0,1-.644-.584s-1.3-12.958-2.806-27.21c-1.5-14.145-.018-39.011,0-39.26a.653.653,0,0,1,.686-.608.648.648,0,0,1,.607.686c-.015.249-1.491,25.007,0,39.045,1.512,14.257,2.809,27.218,2.809,27.218a.648.648,0,0,1-.58.709l-.065,0" transform="translate(-716.393 1139.214)" fill="#382823"/>
  <path id="path594" d="M970.889-934.884h-.025a.647.647,0,0,1-.623-.672c0-.126.484-12.726,1.339-29.566.85-16.764-2.763-38.8-2.8-39.024a.648.648,0,0,1,.533-.745.643.643,0,0,1,.745.532c.037.223,3.674,22.4,2.817,39.3-.854,16.831-1.333,29.424-1.339,29.549a.648.648,0,0,1-.646.624" transform="translate(-809.928 1137.568)" fill="#382823"/>
  <path id="path596" d="M1028.409-880.517a.648.648,0,0,1-.628-.488c-.164-.646-4.019-15.907-4.433-23.885-.461-8.893-2.019-25.2-7.276-34.474-5.534-9.765-4.414-49.726-4.364-51.422a.7.7,0,0,1,.667-.629.649.649,0,0,1,.629.668c-.012.411-1.161,41.292,4.2,50.744,5.389,9.51,6.977,26.039,7.444,35.045.406,7.852,4.354,23.477,4.4,23.634a.649.649,0,0,1-.469.788l-.16.019" transform="translate(-830.686 1131.029)" fill="#382823"/>
  <path id="path598" d="M1068.254-764.926a.641.641,0,0,1-.4-.135,50.557,50.557,0,0,0-11.818-6.349c-6.786-2.53-17.992-.9-18.1-.88a.651.651,0,0,1-.737-.545.649.649,0,0,1,.545-.737c.473-.07,11.652-1.7,18.749.949a50.874,50.874,0,0,1,12.156,6.537.649.649,0,0,1,.117.909.645.645,0,0,1-.514.252" transform="translate(-843.104 1025.674)" fill="#382823"/>
  <path id="path600" d="M1038.161-676.538a.653.653,0,0,1-.206-.034c-.646-.216-15.851-5.353-18.747-10.589a47.177,47.177,0,0,1-4.139-10.737l-3.355-4.868a.648.648,0,0,1,.166-.9.648.648,0,0,1,.9.166l3.523,5.19a46.676,46.676,0,0,0,4.039,10.523c2.655,4.8,17.872,9.936,18.025,9.988a.647.647,0,0,1,.409.82.648.648,0,0,1-.614.442" transform="translate(-830.694 991.564)" fill="#382823"/>
  <path id="path602" d="M1018.266-706.151a.666.666,0,0,1-.2-.031.649.649,0,0,1-.419-.815l1.252-3.9a.65.65,0,0,1,.815-.418.647.647,0,0,1,.419.815l-1.251,3.894a.647.647,0,0,1-.617.451" transform="translate(-833.613 995.229)" fill="#382823"/>
  <path id="path604" d="M1023.926-730.673a.66.66,0,0,1-.222-.039.648.648,0,0,1-.387-.831l13.607-37.27a.65.65,0,0,1,.831-.387.649.649,0,0,1,.387.831l-13.608,37.27a.648.648,0,0,1-.609.426" transform="translate(-836.357 1023.302)" fill="#382823"/>
  <path id="path606" d="M924.024-1013.436s-7.3,72.665-5.983,95.152c2.376,40.49,32.665,73.585,45.343,88.085s27.314,21.574,27.772,21.25.838-7.236,0-9.341S973.45-832.836,964.4-842.912c-7.28-8.1-34.046-38.7-37.017-75.982-1.759-22.069,8.944-89.625,5.567-92.218s-8.924-2.324-8.924-2.324" transform="translate(-785.253 1141.71)" fill="#4d3932"/>
  <path id="path608" d="M947.662-827.293s-9.949-16.2-14.628-19.565c-5.626-4.043-18.912-.407-22.811,1.427-3,1.412-1.732,4.274-1.076,7.376a6.218,6.218,0,0,0-1.87,1.948,5.007,5.007,0,0,0-.693,3.292,4.6,4.6,0,0,0,1.7,2.867c-.028.1-.054.191-.08.285a6.628,6.628,0,0,0-1.7,4.561,2.685,2.685,0,0,0,1.982,2.69,3.817,3.817,0,0,0-.2,4.134,8.509,8.509,0,0,0,3.372,2.937,9.658,9.658,0,0,0,2.068,1.5c6.715,3.684,20.082,6.522,20.082,6.522l17.547.2-3.7-20.177" transform="translate(-779.738 1061.827)" fill="#ffa680"/>
  <path id="path610" d="M913.109-828.638a.649.649,0,0,1-.62-.459.646.646,0,0,1,.431-.808,29.3,29.3,0,0,1,6.623-1.251h3.8a.648.648,0,0,1,.648.648.648.648,0,0,1-.648.648h-3.8a28.758,28.758,0,0,0-6.245,1.194.619.619,0,0,1-.189.029" transform="translate(-782.625 1053.324)" fill="#f07f4f"/>
  <path id="path612" d="M911.974-812.385a.648.648,0,0,1-.639-.547.647.647,0,0,1,.539-.741c.266-.043,6.56-1.031,8.678-.714l2.047.306a.648.648,0,0,1,.545.736.649.649,0,0,1-.736.545l-2.048-.306c-1.6-.24-6.521.433-8.284.712l-.1.008" transform="translate(-782.075 1045.224)" fill="#f07f4f"/>
  <path id="path614" d="M920.846-798.21h-8.871a.647.647,0,0,1-.648-.648.647.647,0,0,1,.648-.648h8.871a.648.648,0,0,1,.648.648.648.648,0,0,1-.648.648" transform="translate(-782.076 1037.978)" fill="#f07f4f"/>
  <path id="path616" d="M840.813-973.25c-3.387,0-27.079-20.114-31.8-24.148a.648.648,0,0,1-.071-.914.65.65,0,0,1,.914-.071c13.515,11.558,28.95,23.837,30.949,23.837h0c2.254-.012,16.821-10,25.475-16.3a.647.647,0,0,1,.9.143.647.647,0,0,1-.143.9c-2.326,1.692-22.817,16.527-26.228,16.546h-.006" transform="translate(-732.358 1134.482)" fill="#f5ebe3"/>
  <path id="path618" d="M977.484-608.541a.649.649,0,0,1-.628-.488,150.423,150.423,0,0,0-7.668-21.352c-5.159-11.547-8.761-34.189-8.8-34.416a.649.649,0,0,1,.54-.741.651.651,0,0,1,.741.54c.035.225,3.611,22.7,8.7,34.089a152.188,152.188,0,0,1,7.741,21.559.649.649,0,0,1-.468.788l-.161.021" transform="translate(-805.861 973.025)" fill="#f5ebe3"/>
  <path id="path620" d="M965.351-577.462a.649.649,0,0,1-.639-.545l-4.32-26.7a.648.648,0,0,1,.536-.744.643.643,0,0,1,.744.536l4.32,26.7a.648.648,0,0,1-.536.743l-.1.009" transform="translate(-805.861 943.891)" fill="#f5ebe3"/>
  <path id="path622" d="M727.491-482.856a.646.646,0,0,1-.479-.212.648.648,0,0,1,.042-.916l4.968-4.536a.646.646,0,0,1,.915.042.647.647,0,0,1-.042.916l-4.968,4.536a.641.641,0,0,1-.436.17" transform="translate(-692.624 887.272)" fill="#382823"/>
  <path id="path624" d="M792.06-535.508a.649.649,0,0,1-.473-.2.649.649,0,0,1,.028-.916l3.672-3.455a.647.647,0,0,1,.916.028.649.649,0,0,1-.027.916l-3.673,3.455a.644.644,0,0,1-.444.177" transform="translate(-723.932 912.277)" fill="#382823"/>
  <path id="path626" d="M881.311-453.919a.649.649,0,0,1-.647-.618c-.012-.272-1.256-27.428,0-42.2,1.249-14.685-.547-42.442-.565-42.721a.648.648,0,0,1,.6-.689.643.643,0,0,1,.689.6c.019.28,1.821,28.134.563,42.915-1.25,14.689-.01,41.76,0,42.032a.648.648,0,0,1-.617.678h-.031" transform="translate(-766.934 912.224)" fill="#382823"/>
  <path id="path628" d="M883.9-487.253c-.707,0-1.172-.036-1.247-.041a.647.647,0,0,1-.593-.7.66.66,0,0,1,.7-.593c.075.007,7.611.566,10.261-3.284,2.039-2.962,1.865-30.1,1.253-47.612a.646.646,0,0,1,.624-.67.626.626,0,0,1,.67.624c.158,4.5,1.455,44.127-1.479,48.392-2.385,3.465-7.742,3.883-10.187,3.883" transform="translate(-767.886 912.227)" fill="#382823"/>
  <path id="path630" d="M983.714-799.741l-13.867,21.863-7-8.009,12.921-20.073,7.944,6.22" transform="translate(-807.057 1041.108)" fill="#875549"/>
  <path id="path632" d="M985-790.594a8.56,8.56,0,0,1-8.559,8.56,8.561,8.561,0,0,1-8.56-8.56,8.56,8.56,0,0,1,8.56-8.56,8.56,8.56,0,0,1,8.559,8.56" transform="translate(-809.495 1037.807)" fill="#f5ebe3"/>
  <path id="path636" d="M974.167-1005.912l-.171-.023a.648.648,0,0,1-.455-.8l2.232-8.212a.65.65,0,0,1,.8-.455.648.648,0,0,1,.455.8l-2.232,8.212a.65.65,0,0,1-.625.477" transform="translate(-812.23 1142.668)" fill="#66382e"/>
  <path id="path638" d="M986.671-998.573l-.105-.008a.648.648,0,0,1-.535-.744l2.309-14.175a.648.648,0,0,1,.744-.536.648.648,0,0,1,.535.745l-2.308,14.175a.649.649,0,0,1-.639.543" transform="translate(-818.293 1142.001)" fill="#66382e"/>
  <path id="path640" d="M1002.811-1001.8l-.127-.012a.648.648,0,0,1-.509-.762l1.95-9.78a.647.647,0,0,1,.762-.509.648.648,0,0,1,.509.762l-1.951,9.78a.648.648,0,0,1-.635.521" transform="translate(-826.119 1141.436)" fill="#66382e"/>
</svg>
