<svg id="Komponente_5_1" data-name="Komponente 5 – 1" xmlns="http://www.w3.org/2000/svg" width="270.594" height="544.245" viewBox="0 0 270.594 544.245">
  <path id="path794" d="M2341.074-946.768s36.148-9.19,51.4,23.014c5.653,11.937,6.573,20.529,12.645,58.651s4.863,80.174,2.273,97.076-34.019,27.267-34.019,27.267l-32.3-206.008" transform="translate(-2153.736 1100.116)" fill="#ebcfa9"/>
  <path id="path796" d="M2119.235-984.55s-3.723.8-3.564-5.677c.213-8.393,9.849-11.748,16.47-13.926,8.86-2.914,17.494-7.339,26.711-8.907,10.529-1.791,21.656-1.451,32.281-1.167,16.478.44,47.241-.3,50.867,20.929,1.243,7.277-7.466,11.96-7.919,14.9s-114.846-6.156-114.846-6.156" transform="translate(-2044.442 1132.347)" fill="#ab5855"/>
  <path id="path798" d="M1998.2-419.839s-4.643,1.37-5.721,1.009-15.639-65.049-15.056-65.805,8.682-2.376,8.682-2.376l12.1,67.172" transform="translate(-1977.402 876.605)" fill="#a5b1c7"/>
  <path id="path800" d="M2000.849-420.017l-5.721,1.124-14.039-61.924,7.452-2.33,12.308,63.131" transform="translate(-1979.19 874.732)" fill="#fff"/>
  <path id="path802" d="M2065.476-953.771s-21.9,10.956-24.651,34.931c-2.232,19.442-4.808,102.416-6.133,113.574s-3.908,16.018-3.585,29.625.646,24.622-2.919,35.961-4.533,37.257-3.887,38.229,41.176,3.564,41.176,3.564V-953.771" transform="translate(-2000.051 1102.923)" fill="#ab5855"/>
  <path id="path804" d="M2044.99-516.252s-55.4,13.551-55.943,14.847,13.709,66.74,14.788,67.388,46.437-10.583,46.437-10.583l-5.282-71.652" transform="translate(-1983.041 890.783)" fill="#a5b1c7"/>
  <path id="path806" d="M2037.676-374.819a5.073,5.073,0,0,0,4.753-1.241l.186-.124.062-.074c2.315,2.43,6.793,1.96,7.871-1.566.089-.275.117-.569.178-.853,1.628,1.087,3.853.431,5.22-1.527.13-.19.213-.405.33-.606,1.483,1.32,3.3,2.546,5.137,1.265,1.325-.924,1.271-3.27,1.175-4.71a17.791,17.791,0,0,0-1.175-5.43c-.447-1.124-.9-2.8-2.253-3.131a3.03,3.03,0,0,0-3.455,1.525c-.151-.7-2.411-7.972-4.8-8.289-2.809-.372-4.011,1.745-4.4,4-1.161-1.521-2.775-2.352-4.588-.22-1.346,1.583-1.655,3.9-1.456,6.275-1.511-2.341-3.345-3.638-4.918-2.327-3.008,2.515-1.422,9.355-.591,12.365.467,1.71.824,3.978,2.727,4.672" transform="translate(-2004.739 834.233)" fill="#ffa680"/>
  <path id="path808" d="M2076.959-373.2a.649.649,0,0,1-.639-.568l-1.064-8.442a.645.645,0,0,1,.556-.724.652.652,0,0,1,.728.562l1.064,8.443a.645.645,0,0,1-.563.724l-.082.005" transform="translate(-2024.846 826.145)" fill="#f07f4f"/>
  <path id="path810" d="M2062.667-374.87a.648.648,0,0,1-.632-.5l-3.269-13.985a.65.65,0,0,1,.481-.779.654.654,0,0,1,.783.484l3.27,13.985a.647.647,0,0,1-.488.777l-.144.018" transform="translate(-2016.844 829.64)" fill="#f07f4f"/>
  <path id="path812" d="M2049.212-366.11a.648.648,0,0,1-.639-.523l-1.923-9.785a.648.648,0,0,1,.508-.761.645.645,0,0,1,.762.511l1.923,9.785a.648.648,0,0,1-.508.761l-.124.012" transform="translate(-2010.972 823.357)" fill="#f07f4f"/>
  <path id="path814" d="M2104.022-976.371s-27.748,7.587-35.091,17.091-11.127,46.56-10.694,72.309-19,164.412-12.1,167.869,47.426-.432,48.34,0,11.23-97.313,11.683-102.869-2.143-154.4-2.143-154.4" transform="translate(-2010.011 1113.881)" fill="#ab5855"/>
  <path id="path816" d="M2239.525-393.183h-62.317c-2.363-5.923-4.691-13.088-5.1-19.011a37.5,37.5,0,0,0-.542-4.173c-.062-.428-.144-.855-.233-1.309-1.868-10.069-6.58-26.242-9.794-36.8-.158-.519-.316-1.024-.453-1.5-1.648-5.352-2.8-8.916-2.8-8.916l.467,9.02.076,1.5,1.944,37.464.069,1.31,1.168,22.419h-68.327c-.673-5.754-1.449-12.856-2.02-19.5-.041-.428-.075-.855-.117-1.283-.453-5.728-.749-11.016-.646-14.644.13-4.821-.192-12.972-.659-22.07-.014-.44-.041-.881-.069-1.321-.776-15.1-1.868-32.437-1.868-41.405,0-2.28-.076-5.559-.192-9.474-.014-.427-.028-.855-.041-1.3-.344-10.445-1.023-24.842-1.6-36.869q-.041-.661-.082-1.322c-.6-12.078-1.1-21.447-1.1-21.447s5.481-6.519,12.624-14.709c.632-.712,1.264-1.452,1.916-2.19,9.836-11.2,21.993-24.6,27.639-28.951a12.926,12.926,0,0,1,1.374-.946,5.446,5.446,0,0,1,.508-.285c3.8-1.789,23.181-1.841,41.753-1.128.426.026.872.039,1.3.052,16.848.687,32.694,2.009,35.132,3.227,5.186,2.591,23.415,7.024,26.244,25.167,1.113,7.153,2.356,16.018,3.29,26.243.041.441.076.88.117,1.321a339.639,339.639,0,0,1,1.167,40.886q0,.661-.041,1.322c-.144,3.875-.35,7.815-.646,11.832-.467,6.182-.522,17.4-.35,30.557,0,.441,0,.881.014,1.322.193,14.411.632,30.985,1.1,45.759q.021.641.041,1.282c.385,11.922.776,22.588,1.058,29.871" transform="translate(-2029.713 937.428)" fill="#ffd191"/>
  <path id="path818" d="M2190.152-427.2a274.945,274.945,0,0,0,.906-29.3c-.1-2.981-.35-5.948-.659-8.9,1.93-.35,3.846-.713,5.763-1.127,5.007-1.089,9.938-2.4,14.863-3.784q.35,6.8.886,13.607a135.42,135.42,0,0,0,4.121,24.234c.233.881.488,1.762.735,2.643Q2203.477-428.394,2190.152-427.2Zm-7.61-81.967c-.673-3.745-1.271-7.5-1.827-11.274a171.325,171.325,0,0,1,18.428-.078c3.125.169,6.237.363,9.362.519.254,3.785.515,7.581.749,11.366.749,12.311,1.078,24.661,1.71,36.985-2.4.687-4.78,1.335-7.177,1.957-4.5,1.166-9.018,2.087-13.544,2.839-1.648-14.229-5.2-28.2-7.7-42.313Zm-6.621-56.178c-.014-.129-.014-.259-.028-.389,4.121-.79,8.27-1.49,12.459-2a127.951,127.951,0,0,1,16.079-.972q2.328,23.676,3.977,47.4l-3.688-.194a232.257,232.257,0,0,0-24.2-.168C2178.393-536.151,2176.944-550.729,2175.92-565.348Zm-15.2,45.6c-9.822,1.477-19.582,3.278-29.39,4.716-.234-2.76-.495-5.52-.756-8.294q-1.453-15.492-2.019-31.038c6.243-1.412,12.452-3.006,18.647-4.6,9.087-2.333,18.194-4.7,27.412-6.532,1.03,14.683,2.472,29.327,4.609,43.894C2173.083-521.261,2166.943-520.677,2160.721-519.744Zm-30.791,40.977c-.762,5.223-1.738,10.406-2.555,15.615-2.72.078-5.426.156-8.153.273q-7.438.292-14.877,1.024c-.014-.842-.021-1.7-.048-2.54-.392-14.178-1.5-28.238-3.2-42.313-.172-1.438-.35-2.876-.522-4.3q4.2-.117,8.4-.35c7.1-.427,14.135-1.231,21.161-2.216C2131.1-501.99,2131.613-490.444,2129.93-478.767Zm-3.523,22.536a146,146,0,0,0-.639,23.883c.158,3.123.419,6.221.714,9.317q-10.694.448-21.381.726c-.426-12.739-.44-25.5-.714-38.242,7.541-.751,15.152-1.089,22.769-1.27C2126.88-459.964,2126.626-458.1,2126.406-456.231Zm-29.431-91.739c-.014-.531-.041-1.049-.055-1.581,3.407-.207,6.807-.479,10.2-.907,6.779-.842,13.476-2.113,20.124-3.6q.484,12.849,1.587,25.659c.371,4.537.811,9.046,1.2,13.556-5.117.725-10.241,1.361-15.4,1.788q-7.109.565-14.21.752C2098.953-524.164,2097.49-536.034,2096.975-547.97ZM2221.121-429c6.12-.687,12.246-1.439,18.38-2.113q-.021-.641-.041-1.282c-3.3.363-6.58.751-9.849,1.126q-5.718.661-11.429,1.284a137.948,137.948,0,0,1-4.368-20.579c-.776-6.662-1.243-13.374-1.566-20.1,7.878-2.242,15.708-4.691,23.614-6.829.824-.22,1.655-.441,2.5-.661-.014-.441-.014-.881-.014-1.322-8.778,2.268-17.48,5-26.168,7.491-.467-10.082-.673-20.2-1.257-30.234q-.505-8.864-1.113-17.715c3.874.181,7.748.285,11.628.155a120.3,120.3,0,0,0,17.906-2.087q.041-.66.041-1.322c-3.956.752-7.919,1.361-11.924,1.737a126.618,126.618,0,0,1-17.741.207q-1.165-16.775-2.658-33.525-.618-6.959-1.319-13.893c1,.013,1.992.013,2.988.065,7.4.35,14.52,1.892,21.752,3.357a66.1,66.1,0,0,0,7.734,1.166c-.041-.441-.076-.88-.117-1.321a77.637,77.637,0,0,1-8.448-1.335,138.089,138.089,0,0,0-24.012-3.058q-2.236-22.549-5.11-45.034c-.1-.816-1.4-.829-1.3,0q2.864,22.452,5.1,44.995a108.379,108.379,0,0,0-14.28.6c-4.794.532-9.526,1.3-14.245,2.19-1.188-17.65-1.827-35.327-2.369-52.991-.09-2.811-.172-5.611-.261-8.423a.65.65,0,0,0-1.3,0c.1,2.786.172,5.585.261,8.371.543,17.767,1.181,35.547,2.4,53.288-15.481,3.032-30.647,7.607-46.032,11.119-.192-5.145-.323-10.29-.357-15.435q-.175-23.793,1.731-47.56.3-3.635.625-7.27c.075-.829-1.216-.817-1.3,0-.261,2.734-.488,5.482-.7,8.216a555.468,555.468,0,0,0-1.291,62.347c-5.563,1.244-11.161,2.359-16.821,3.188-4.485.648-9,1.036-13.517,1.308-.35-12.777.6-25.568,3.99-37.893q.742-2.761,1.669-5.482c.261-.8-.982-1.14-1.257-.35q-1.339,3.984-2.328,8.022c-2.892,11.728-3.633,23.728-3.311,35.78-2.734.156-5.481.273-8.215.376q.041.661.083,1.322c2.72-.1,5.453-.207,8.173-.363.412,12.3,1.9,24.636,3.393,36.778.014.143.041.272.055.414-3.345.078-6.676.091-10.021.039.014.44.027.868.041,1.3,3.386.053,6.752.039,10.138-.038,1.669,13.827,3.07,27.628,3.558,41.56.1,2.566.144,5.131.213,7.7-3.97.414-7.919.958-11.848,1.659.027.44.055.881.069,1.321,3.908-.7,7.851-1.243,11.8-1.659.261,11.664.288,23.327.611,34.977.028,1.05.069,2.112.1,3.162-3.73.091-7.473.169-11.209.234.041.428.076.855.117,1.283q5.563-.1,11.134-.234c.247,6.583.611,13.179,1.188,19.737h1.3c-.584-6.583-.934-13.167-1.167-19.776q10.735-.271,21.464-.712c.7,6.868,1.724,13.685,2.912,20.488h1.3c-1.2-6.817-2.218-13.658-2.926-20.554q16.989-.719,33.978-1.865l-.069-1.31q-15.609,1.089-31.265,1.789c-.92.039-1.854.065-2.775.1-.186-1.827-.35-3.654-.481-5.481a155.055,155.055,0,0,1,.041-23.9c.268-3.149.687-6.272,1.154-9.382,9.4-.207,18.826-.207,28.181-.48,1.064-.026,2.143-.065,3.2-.116l-.076-1.5c-10.33.441-20.708.5-31.1.764.735-4.678,1.594-9.331,2.308-14.009,1.861-12.285,1.422-24.363.439-36.571,7.232-1.037,14.438-2.255,21.663-3.46a256.985,256.985,0,0,1,26.327-3.136c.192,1.348.4,2.709.6,4.069,2.631,16.562,7.143,32.943,8.984,49.634a246.374,246.374,0,0,1-26.89,2.6c.137.479.3.985.453,1.5a217.6,217.6,0,0,0,26.581-2.657c.178,1.788.337,3.563.453,5.365.659,10.912.048,21.824-.666,32.735-5.515.492-11.051.946-16.573,1.36.089.454.172.881.233,1.309q8.129-.621,16.251-1.348c-.364,5.548-.749,11.094-.982,16.64-.1,2.631-.185,5.262-.2,7.892h1.168c.069-8.177.652-16.42,1.222-24.635q13.548-1.205,27.068-2.682c1.827,6.375,3.846,12.7,5.378,19.166.639,2.708,1.181,5.417,1.635,8.151h1.319c-1.566-9.344-4.389-18.376-6.93-27.474.852-.091,1.724-.181,2.589-.285" transform="translate(-2030.747 945.49)" fill="#fff"/>
  <path id="path820" d="M2161.168-576.521c.646,0,57.021-6.912,73-7.776s14.252-16.415,14.252-16.415-33.689-9.719-39.953-8.423-40.393,11.015-43.848,13.823-3.455,18.791-3.455,18.791" transform="translate(-2066.505 935.877)" fill="#3b3348"/>
  <path id="path822" d="M2191.233-582.937a1.844,1.844,0,0,0-.213.012l-22.308,2.367a2.006,2.006,0,0,0-1.779,2.2l1.023,9.638a2,2,0,0,0,.735,1.344,1.955,1.955,0,0,0,1.47.433l22.3-2.367a1.981,1.981,0,0,0,1.346-.732,1.987,1.987,0,0,0,.433-1.467l-1.024-9.639a1.992,1.992,0,0,0-.728-1.344A2,2,0,0,0,2191.233-582.937Zm-21.292,18.6a4.553,4.553,0,0,1-2.878-1.02,4.566,4.566,0,0,1-1.683-3.087l-1.024-9.638a4.6,4.6,0,0,1,4.08-5.05l22.309-2.368a4.59,4.59,0,0,1,3.372,1,4.566,4.566,0,0,1,1.683,3.087l1.016,9.638a4.558,4.558,0,0,1-.989,3.37,4.577,4.577,0,0,1-3.091,1.68l-22.309,2.368c-.165.017-.33.025-.487.025" transform="translate(-2068.038 924.373)" fill="#fff"/>
  <path id="path824" d="M2253.938-567.106l-2.6-20.518,3.86-.488,2.589,20.519-3.853.487" transform="translate(-2110.227 925.626)" fill="#ffd191"/>
  <path id="path826" d="M2209.42-1147.043l-.014-.051a61.6,61.6,0,0,1-2.314-10.784c-.261-3.076-.288-6.033-1.539-8.932-1.648-3.826-2.727-6.917-4.142-10.724-.824-2.229-3.7-3.7-4.018-6.053a22.684,22.684,0,0,0-1.662-6.1,16.935,16.935,0,0,0-9.011-9.1c-2.39-.969-7.638-2.32-9.183.595-.391.736.728,1.392,1.12.654,1.387-2.628,7.48-.227,9.142.7a15.1,15.1,0,0,1,5.385,5.1c2.878,4.469,2.61,8.884,3.228,13.9a36.243,36.243,0,0,0-2.83-2.383c-2.8-2.21-7.013-3.462-9.2-6.241-1.8-2.273-2.8-3.841-5.563-5.147a28.321,28.321,0,0,0-9.465-2.393c-12.143-1.146-27.054.813-35.977,9.9a28.8,28.8,0,0,1,5.316-8.941c2.733-3.3,8.407-11.378,13.469-8.612.728.4,1.387-.718.652-1.12-3.977-2.174-7.376.7-10.151,3.458-3.578,3.561-7.535,7.695-9.664,12.339-1.477,3.237-1.759,7.146-3.167,10.463-.089,1.113-2.026.52-2.191,1.637-.8,5.479-3.592,9.892-6.092,14.526-2.129,3.947-1.594,8.568-.577,12.728a9.657,9.657,0,0,1,.158,4.557c-.337,1.477-1.2,2.9-.35,4.388.8,1.412,2.713,1.6,4.32,1.793a23.1,23.1,0,0,1,7.864,2.434,30.592,30.592,0,0,0,3.29,2.01c1.4.5,2.905-.056,4.327-.113,1.669-.067,3.249.613,4.918.521a42.11,42.11,0,0,0,9.98-2.226,77.78,77.78,0,0,1,11.388-2.78c2.658-.4,5.151-.954,7.164-2.7,1.518,2.432,2.685,4.679,5.948,4.936,3.1.244,4.142,1.747,7.164,1.4,6.078-.706,12.294.034,18.229-1.715,2.1-.619,1.861-2.014,2.342-3.8.714-2.67,2.473-5.162,1.71-8.105" transform="translate(-2046.582 1224.033)" fill="#4d3932"/>
  <path id="path828" d="M2231.967-1187.445c-.371-2.1-2.376-3.512-4.148-4.463a16.425,16.425,0,0,0-3.311-1.3,10.7,10.7,0,0,1-3.544-1.637.634.634,0,0,0-.653,0l-.165.1c-.708.438-.062,1.559.653,1.119-.673.417,3.874,1.811,4.018,1.857,1.9.613,4.636,1.807,5.6,3.763a.617.617,0,0,0,.076.761l.392.427c.474.517,1.188-.042,1.078-.63" transform="translate(-2094.953 1219.857)" fill="#4d3932"/>
  <path id="path830" d="M2224.179-1034.815c-14.938-2.423-15.1-16.245-15.8-23.932a222.751,222.751,0,0,1-.563-22.565,9.8,9.8,0,0,0,.021-2.769c-.1-.715-5.186.05-5.192.785-.014.924-.021,1.849-.028,2.773-1.071,6.646-11.354,9.829-17.15,11.031a106.919,106.919,0,0,1-16.3,2.316c-.227-2.185-.495-4.366-.859-6.534-.131-.823-1.408-.579-1.271.245.35,2.12.625,4.247.845,6.379l-.309.021c-.824.056-.577,1.329.248,1.273l.2-.013q.36,4.032.378,8.094c0,7.082,1.607,17.159-2.7,22.847a18.335,18.335,0,0,1-8.62,6.128s-4.76,8.2-2.294,9.713c3.132,1.919,6.346,3.7,9.623,5.371,5.7,2.909,9.039,5.771,15.083,7.9,4.973,1.747,9.877-.813,14.513-2.618,11.642-4.536,24.067-10.35,34.458-17.292,1.573-1.052,4.238-6.406,4.238-6.406a57.573,57.573,0,0,0-8.517-2.745" transform="translate(-2063.064 1166.245)" fill="#ffa680"/>
  <path id="path832" d="M2157-1121.089c4.636,6.505,15.873,10.541,23.73,8.019s15.77-11.129,20.152-18.608c7.789-13.306,7.212-29.208,6.5-44.045-.481-9.979-3.084-16.244-10.77-23.545-6.855-6.516-17.212-7.548-26.526-5.872-7.033,1.266-14.121,4.048-18.606,9.323-6.964,8.2-8.221,19.17-8.029,29.528.151,8.07,2.047,29.082,13.551,45.2" transform="translate(-2057.902 1225.149)" fill="#ffa680"/>
  <path id="path834" d="M2166.107-1121.4c-2.926-.582-2.438,6.472-.282,6.531a1.773,1.773,0,0,0,1.353-.677c1.161-1.369,1.154-5.411-1.072-5.853" transform="translate(-2067.907 1184.216)" fill="#382823"/>
  <path id="path836" d="M2227.593-1125.5c-2.8-.555-2.328,6.173-.275,6.228a1.679,1.679,0,0,0,1.291-.646c1.106-1.306,1.1-5.161-1.017-5.583" transform="translate(-2097.764 1186.206)" fill="#382823"/>
  <path id="path838" d="M2199.063-1094.411h-.034c-.24-.011-5.927-.311-6.305-4.066-.323-3.26.5-13.581.536-14.019a.652.652,0,0,1,.694-.594.653.653,0,0,1,.6.7c-.007.106-.852,10.641-.536,13.785.268,2.644,5.028,2.9,5.076,2.9a.651.651,0,0,1,.618.677.651.651,0,0,1-.646.618" transform="translate(-2081.769 1180.173)" fill="#f07f4f"/>
  <path id="path840" d="M2260.464-1129.929s5.083-3.2,6.333,5.489-1.36,14.687-5.659,15.1-5.557-6.341-5.557-6.341l4.883-14.248" transform="translate(-2112.283 1188.617)" fill="#ffa680"/>
  <path id="path842" d="M2264.626-1108.768a.64.64,0,0,1-.6-.407.645.645,0,0,1,.357-.842s.948-.523,1.133-3.051c.185-2.466-.735-2.96-.749-2.964a.665.665,0,0,1-.316-.849.64.64,0,0,1,.811-.348c.185.072,1.8.8,1.545,4.257-.247,3.383-1.765,4.089-1.944,4.157a.613.613,0,0,1-.24.047" transform="translate(-2116.355 1182.2)" fill="#f07f4f"/>
  <path id="path844" d="M2192.861-1035.678a17.257,17.257,0,0,1-9.458-2.467.649.649,0,0,1-.158-.9.655.655,0,0,1,.906-.16c.041.033,4.732,3.223,12.473,1.9,10.385-1.775,18.613-10.827,18.7-10.917a.646.646,0,0,1,.914-.049.645.645,0,0,1,.048.915c-.344.386-8.606,9.476-19.437,11.329a23.61,23.61,0,0,1-3.984.346" transform="translate(-2077.152 1148.822)" fill="#f07f4f"/>
  <path id="path846" d="M2184.381-1069.614a85.122,85.122,0,0,0,9.561-.567,43.861,43.861,0,0,0,9.884-1.944s-3.97,6.48-10.454,6.642-8.991-4.131-8.991-4.131" transform="translate(-2077.76 1160.309)" fill="#f28557"/>
  <path id="path848" d="M2165.333-1135.539a4.871,4.871,0,0,0-1.319-.516c-2.473-.553-5.268.135-7.672.716-2.679.648-5.392,1.337-6.621,4.028-.179.388.021,1.042.556.975l8.743-1.084c1.868-.231,4.856-.048,6.587-1,1.9-1.043,1.044-2.366-.275-3.12" transform="translate(-2060.923 1191.406)" fill="#4d3932"/>
  <path id="path850" d="M2216.231-1135.131c1.9.556,4.773-.267,6.642-.442l8.771-.824c.542-.051.6-.732.336-1.072-1.779-2.362-4.574-2.452-7.335-2.507-2.473-.05-5.351-.12-7.645.953a4.888,4.888,0,0,0-1.174.788c-1.126,1.021-1.676,2.5.405,3.1" transform="translate(-2092.521 1193.22)" fill="#4d3932"/>
  <path id="path852" d="M2208.675-1184.2c-.563-6.141-1.58-12.556-5.907-17.132a.571.571,0,0,0-.171-.558c-10.028-10.022-26.306-11.924-39.342-7.352a30.93,30.93,0,0,0-20.9,26.305.6.6,0,0,0,.041.3c-.254.528-.508,1.057-.769,1.574a.633.633,0,0,0,.2.821c-.13.258-.268.514-.385.773-.344.755.776,1.415,1.119.655,2.521-5.628,7.116-11.139,12.954-13.487,1.422.958,3.5.919,5.144,1.13a80.867,80.867,0,0,0,9.835.649,83.128,83.128,0,0,0,18.387-2.037,29.851,29.851,0,0,0,3.551,2.532c4.238,2.984,6.869,6.371,7.528,11.625.247,1.977.357,3.977.522,5.962.144,1.69-.11,4.044.542,5.618.46,1.119,1.017,1.54,2.184,1.012,2.184-.989,4.327-4.454,4.993-6.7,1.085-3.708.818-7.893.474-11.685" transform="translate(-2056.908 1227.937)" fill="#4d3932"/>
  <path id="path854" d="M2169.133-1199.646c-4.884,2.812-9.987,5.775-13.531,10.277a17.464,17.464,0,0,0-1.442,2.192,33.728,33.728,0,0,0-5-1.229,8.475,8.475,0,0,0-4.76,1.147c-3.365,1.9-5.556,5.432-7.184,8.814-4.43,9.193-5.976,19.823-8.29,29.684-.124.516.453,1.061.948.731,3.681-2.452,8.091-3.605,8.922-8.537.556-3.291-.446-6.819,1.339-9.853,1.525-2.6,4.32-4.164,6.628-5.973,4.629-3.625,5.378-8.363,7.981-13.323l.041-.062a8.229,8.229,0,0,0,2.6-.044c.817-.157.474-1.406-.344-1.25a6.175,6.175,0,0,1-1.5.08c3.324-5.217,9.018-8.52,14.252-11.536a.648.648,0,0,0-.653-1.118" transform="translate(-2050.863 1222.185)" fill="#4d3932"/>
  <path id="path856" d="M2242.31-1167.125a27.244,27.244,0,0,0-3.5-12.186,12.365,12.365,0,0,0-9.011-6.615c-3.015-.551-6.3-.789-9.107.438a5.888,5.888,0,0,1-1.587-5.553c.185-.812-1.058-1.159-1.25-.345a7.447,7.447,0,0,0,1.676,6.515c-.2.127-.412.234-.6.38-.659.5-.014,1.621.652,1.119a7.8,7.8,0,0,1,.831-.518,13.978,13.978,0,0,0,1.106.984c3.99,3.167,7.782,5.068,10.1,9.892a34.324,34.324,0,0,1,2.4,7.329c.494,2.19.556,4.783,1.38,6.872.756,1.923,2.871,4.089,4.8,2.575,2.445-1.921,2.232-8.164,2.109-10.887" transform="translate(-2093.901 1218.361)" fill="#4d3932"/>
  <path id="path858" d="M2209.02-1216.1c-.089-.179-.178-.361-.254-.547a13.893,13.893,0,0,1-.667-5.562c.062-5.228-.391-11.127-4.375-14.516-2.095-1.782-4.842-2.553-7.507-3.218-11.072-2.762-22.659-4.544-33.882-2.448-7.287,1.361-14.616,4.648-18.792,10.776-2.61,3.844-3.784,8.5-4.348,13.112a12.442,12.442,0,0,1-1.106,4.71c-.68,1.172-2.04,1.729-2.74,2.888-1.518,2.5-1.827,5.579-2.315,8.4-.467,2.677-.927,5.449-.261,8.085a1.522,1.522,0,0,0,.378.776c.536.5,1.4.12,2.019-.271,11.5-7.215,25.028-11.879,38.552-10.752,10.124.844,19.774,4.876,28.373,10.283a12.762,12.762,0,0,0,3.462,1.743,3.967,3.967,0,0,0,3.667-.692c1.882-1.74.749-4.806.756-7.37.013-3.7,2.713-7.288,1.648-10.827-.508-1.683-1.8-3.008-2.61-4.568" transform="translate(-2052.576 1243.314)" fill="#a18bbc"/>
  <path id="path860" d="M2146.722-1193.07a.641.641,0,0,1-.549-.312.65.65,0,0,1,.213-.89c.439-.265,10.976-6.515,34.637-6.731s32.336,5.349,32.693,5.587a.646.646,0,0,1,.179.9.652.652,0,0,1-.9.183c-.083-.056-8.723-5.562-31.958-5.371-23.263.212-33.868,6.479-33.978,6.543a.643.643,0,0,1-.336.094" transform="translate(-2059.188 1222.801)" fill="#382823"/>
  <path id="path862" d="M2271.25-1165.53a.651.651,0,0,1-.392-.13.655.655,0,0,1-.131-.907c.014-.016,1.484-2.1,1.388-7.157-.11-5.355,0-8.642,0-8.674a.654.654,0,0,1,.666-.626.646.646,0,0,1,.625.669c0,.032-.1,3.288,0,8.6.117,5.559-1.566,7.866-1.642,7.961a.64.64,0,0,1-.515.26" transform="translate(-2119.565 1214.081)" fill="#382823"/>
  <path id="path864" d="M2265.024-1163.171l-.055,0a.645.645,0,0,1-.591-.7l.577-6.82a.633.633,0,0,1,.7-.59.644.644,0,0,1,.591.7l-.577,6.82a.655.655,0,0,1-.646.593" transform="translate(-2116.547 1208.39)" fill="#382823"/>
  <path id="path866" d="M2148.943-1171.481a.66.66,0,0,1-.24-.047c-.433-.175-.652-.263-.405-5.073a34.147,34.147,0,0,1,2.527-9.805.651.651,0,0,1,.852-.339.652.652,0,0,1,.343.851,33.052,33.052,0,0,0-2.425,9.36,26.517,26.517,0,0,0-.055,4.146.637.637,0,0,1,.007.5.65.65,0,0,1-.6.4" transform="translate(-2060.214 1215.911)" fill="#382823"/>
  <path id="path868" d="M2131-1110.858a.631.631,0,0,1-.2-.032.646.646,0,0,1-.419-.815l1.511-4.679c1.511-4.656,1.807-7.18,1.594-13.5-.22-6.477,2.871-14.057,3-14.377a.649.649,0,0,1,.845-.352.647.647,0,0,1,.35.846c-.027.076-3.111,7.645-2.905,13.839.22,6.428-.1,9.164-1.648,13.94l-1.511,4.679a.651.651,0,0,1-.618.449" transform="translate(-2051.56 1195.48)" fill="#382823"/>
  <path id="path870" d="M2280.943-1086.386a.648.648,0,0,1-.632-.5c0-.014-.336-1.432-1.284-4.716-1.01-3.464-.055-8.108-.014-8.3a.646.646,0,0,1,.769-.5.651.651,0,0,1,.5.766c-.014.045-.927,4.528-.014,7.678.969,3.326,1.291,4.728,1.305,4.786a.648.648,0,0,1-.488.777l-.144.017" transform="translate(-2123.427 1174.031)" fill="#382823"/>
  <path id="path872" d="M2267.065-1097.36a1.639,1.639,0,0,0-1.642-.509,1.233,1.233,0,0,0-.934,1.151,1.191,1.191,0,0,0,.254,1.365,1.571,1.571,0,0,0,2.576-.462,1.494,1.494,0,0,0-.254-1.546" transform="translate(-2116.548 1172.808)" fill="#382823"/>
  <path id="path874" d="M2115.762-983.839s6.031,14.409,22.329,15.147c26.031,1.177,38.9-23.081,38.9-23.081s25.488,6.99,30.351,17.789-14.582,130.241-12.638,143.254,17.116,38.283,13.421,44.438-57.035,1.944-67.138,9.072-26.952,31.426-43.8,32.4-23.648,4.86-27.535,0,7.665-115.012,12.308-170.893c3.674-44.17,33.8-68.124,33.8-68.124" transform="translate(-2021.752 1121.349)" fill="#fff"/>
  <path id="path876" d="M2269.955-991.774s-14.5,76.862-7.411,100.62-1.971,30.67,5.371,54,11.656,37.333,24.183,57.328,12.528,42.026,16.848,41.594,44.061-19.63,44.494-22.126-10.371-30.969-18.146-55.179-10.8-149.86-19.437-160.686-45.9-15.549-45.9-15.549" transform="translate(-2114.713 1121.349)" fill="#ab5855"/>
  <path id="path878" d="M2293.008-578.3c5.639,4.411,11.587,8.4,17.583,12.312,1.923,1.258,3.936,2.425,5.982,3.549,3.5-8.144,8.05-14.7,9.389-23.477a8.183,8.183,0,0,0,.082-1.988c2.96-3.6,5.921-7.2,8.826-10.843q3.132-3.931,6.216-7.9c1.807-2.319,4.251-4.753,5.66-7.339,3.544-6.524-13.311-9.136-16.937-9.476-9.6-.9-15.509,9.715-21.2,16.1a135.388,135.388,0,0,0-15.859,21.791c-.852,1.46-1.95,3.086-2.919,4.761,1.072.871,2.143,1.706,3.173,2.51" transform="translate(-2128.891 942.792)" fill="#ffa680"/>
  <path id="path880" d="M2205.564-438.663a.645.645,0,0,1-.632-.531c-.062-.32-5.948-32.193-10.213-43.975a64.254,64.254,0,0,1-3.407-16.527,66.307,66.307,0,0,0-2.562-13.937c-3.558-11.31-3.276-25.019-3.269-25.156a.623.623,0,0,1,.659-.632.65.65,0,0,1,.639.663c-.007.136-.281,13.635,3.208,24.737a68.141,68.141,0,0,1,2.617,14.189,63.248,63.248,0,0,0,3.331,16.221c4.306,11.883,10.213,43.861,10.268,44.182a.642.642,0,0,1-.522.754l-.117.011" transform="translate(-2078.29 902.017)" fill="#382823"/>
  <path id="path882" d="M2207.27-481.521a.661.661,0,0,1-.57-.328.656.656,0,0,1,.247-.884c.034-.021,4.21-2.61,4.21-13.025,0-10.816-6.724-40.058-6.793-40.352a.646.646,0,0,1,.488-.777.651.651,0,0,1,.776.486c.275,1.207,6.82,29.68,6.82,40.644,0,11.263-4.664,14.04-4.863,14.153a.655.655,0,0,1-.316.084" transform="translate(-2087.441 900.797)" fill="#382823"/>
  <path id="path884" d="M2281.473-545.342a.641.641,0,0,1-.391-.133l-5.406-4.1a.655.655,0,0,1-.124-.909.653.653,0,0,1,.914-.123l5.4,4.1a.655.655,0,0,1,.124.909.653.653,0,0,1-.515.255" transform="translate(-2121.904 907.506)" fill="#382823"/>
  <path id="path886" d="M2348-499.023c-.007,0-5.5-3.774-5.825-3.99a.645.645,0,0,1-.185-.9.648.648,0,0,1,.9-.18c.323.216,5.838,4,5.838,4l-.728,1.068" transform="translate(-2154.125 884.94)" fill="#382823"/>
  <path id="path888" d="M2366.7-336.069a.646.646,0,0,1-.646-.648,114.556,114.556,0,0,0-1.717-18.027c-1.8-9.869-5.4-43.578-4.547-57.93.852-14.389.007-70.509,0-71.075a.649.649,0,0,1,.639-.658h.007a.641.641,0,0,1,.646.638c.013.565.858,56.735,0,71.171-.845,14.263,2.74,47.8,4.526,57.622a115.143,115.143,0,0,1,1.738,18.259.646.646,0,0,1-.646.648" transform="translate(-2162.75 875.342)" fill="#382823"/>
  <path id="path890" d="M2128.886-880.6c-.934-1.356-24.561,1.455-24.753,1.778a18.421,18.421,0,0,0-1.5,4.927s25.337-.754,25.393-1.025c.261-1.238,1.662-4.513.858-5.68" transform="translate(-2038.124 1067.62)" fill="#f5ebe3"/>
  <path id="path892" d="M2151.586-853.839a36.556,36.556,0,0,0,2.109-5.478.694.694,0,0,0-.309-.1c-8.846-.364-18.084.128-26.937.082-8.462-.043-16.752-.049-25.083,1.352-.426.071-1.642,4.9-1.264,4.872a116.451,116.451,0,0,1,13.489-.056c4.128.232,19.527-1.2,23.16-.949,4.169.287,9.87-.906,14.815.272h.021" transform="translate(-2036.86 1057.238)" fill="#f5ebe3"/>
  <path id="path894" d="M2303.325-989.409c-1.3,1.62-9.011,43.836-9.485,64.9-.611,27.525,6.621,74.173,10.261,83.515,4.362,11.2,9.417,24.046,13.668,28.583s13.963,11.377,13.963,11.377l8.895-9.434s-14.836-15.661-21.409-47.949c-6.642-32.615-9.073-55.941-7.129-81.212,1.642-21.331,9.341-41.816,8.043-44.18s-15.516-7.223-16.807-5.6" transform="translate(-2130.816 1120.36)" fill="#3b3348"/>
  <path id="path896" d="M2339.365-975.666a56.465,56.465,0,0,1,28.607,19.967c8.744,11.781,49.487,96.608,52.193,116.957,1.339,10.024-13.311,21.059-16.553,30.454s-7.452,14.5-13.606,19.721-23.655,18.509-23.655,18.509l-33.689-25.918,20.948-29.7-14.245-149.991" transform="translate(-2149.656 1113.539)" fill="#ab5855"/>
  <path id="path898" d="M2018.841-363.22a.641.641,0,0,1-.625-.491.645.645,0,0,1,.467-.785l6.862-1.716a.655.655,0,0,1,.79.472.655.655,0,0,1-.474.785L2019-363.239l-.158.019" transform="translate(-1997.182 818.042)" fill="#382823"/>
  <path id="path900" d="M2113.151-943.1a.647.647,0,0,1-.584-.372c-.089-.187-2.164-4.63-2.081-7.727s2.645-7.807,2.754-8.006a.645.645,0,0,1,.879-.257.65.65,0,0,1,.254.878c-.021.046-2.514,4.635-2.59,7.421s1.937,7.1,1.958,7.138a.65.65,0,0,1-.309.863.663.663,0,0,1-.282.062" transform="translate(-2041.929 1105.723)" fill="#382823"/>
  <path id="path902" d="M2044.64-699.439h-.021a.645.645,0,0,1-.625-.669c.014-.382,1.188-38.39,1.662-46.94.172-3.113.969-9.761,1.889-17.458,1.662-13.882,3.729-31.16,3.427-38.146-.5-11.8,1.607-34.7,2.507-44.476.13-1.386.233-2.539.309-3.4.632-7.25.014-43.89,0-44.2a.646.646,0,0,1,.625-.672.631.631,0,0,1,.666.622c.014.306.639,37.064,0,44.359-.075.861-.178,2.015-.309,3.4-.9,9.751-3,32.588-2.5,44.3.3,7.093-1.772,24.427-3.441,38.356-.92,7.675-1.71,14.3-1.882,17.377-.474,8.533-1.648,46.525-1.655,46.908a.654.654,0,0,1-.652.628" transform="translate(-2009.691 1074.618)" fill="#382823"/>
  <path id="path904" d="M2366.366-766.77c-5.447,0-11.155-2.372-13.455-9.156a26.761,26.761,0,0,1-1.291-7.125c-.323-4.12-.6-7.677-6.8-14.865-9.561-11.074-9.252-41.063-9.231-42.334a.66.66,0,0,1,.653-.639.643.643,0,0,1,.639.657c0,.307-.316,30.768,8.915,41.469,6.484,7.51,6.786,11.445,7.116,15.61a25.524,25.524,0,0,0,1.229,6.809c2.493,7.35,9.472,8.971,15.172,8.034,2.514-.412,6.333-2.33,10.035-4.185,4-2.006,7.775-3.9,10.378-4.241a35.825,35.825,0,0,1,7.267-.435.645.645,0,0,1,.577.709.657.657,0,0,1-.708.581,35.933,35.933,0,0,0-6.964.429c-2.39.313-6.243,2.246-9.973,4.116-3.784,1.9-7.693,3.861-10.406,4.305a19.538,19.538,0,0,1-3.153.26" transform="translate(-2151.074 1048.19)" fill="#382823"/>
  <path id="path906" d="M2335.441-628.267a.661.661,0,0,1-.364-.109c-.55-.366-3.3-2.275-3.668-3.85-.357-1.549,3-5.808,4.465-7.568a.651.651,0,0,1,.914-.083.643.643,0,0,1,.082.912c-2.363,2.844-4.286,5.8-4.2,6.454.178.79,1.937,2.265,3.125,3.057a.65.65,0,0,1,.178.9.645.645,0,0,1-.536.289" transform="translate(-2149.037 950.798)" fill="#382823"/>
  <path id="path908" d="M2365.01-686.822l-.172-.022a.646.646,0,0,1-.453-.8c.24-.9,2.459-8.886,4.471-10.792,1.944-1.832,3.771-3.628,3.771-3.628a.652.652,0,0,1,.92.01.652.652,0,0,1-.007.916s-1.841,1.8-3.792,3.644c-1.483,1.4-3.475,7.831-4.114,10.19a.655.655,0,0,1-.625.477" transform="translate(-2165.027 980.965)" fill="#382823"/>
  <path id="path910" d="M2392.27-584.58c-1.958,0-4.794-3.3-5.653-4.35a.644.644,0,0,1,.1-.911.643.643,0,0,1,.906.094c1.628,1.99,3.915,4.017,4.7,3.868.975-.183,6.312-4.447,10.914-8.463a.647.647,0,0,1,.913.061.652.652,0,0,1-.062.915c-1.607,1.4-9.719,8.421-11.525,8.76a1.6,1.6,0,0,1-.3.027" transform="translate(-2175.747 928.725)" fill="#382823"/>
  <path id="path912" d="M2382.861-618.355a.634.634,0,0,1-.556-.316c-.027-.045-2.754-4.528-10.33-10.627-7.61-6.129-23.854-12.58-24.019-12.645a.646.646,0,0,1-.364-.841.645.645,0,0,1,.838-.364c.673.266,16.594,6.587,24.355,12.84,7.782,6.265,10.516,10.784,10.632,10.974a.65.65,0,0,1-.227.887.641.641,0,0,1-.33.092" transform="translate(-2156.874 952.333)" fill="#382823"/>
  <path id="path914" d="M2400.119-597.354a2.915,2.915,0,0,0-2.912-2.916,2.916,2.916,0,0,0-2.919,2.916,2.916,2.916,0,0,0,2.919,2.916,2.915,2.915,0,0,0,2.912-2.916" transform="translate(-2179.537 931.521)" fill="#ebcfa9"/>
  <path id="path916" d="M2423.159-699.036h-.034l-18.153-.85a.651.651,0,0,1-.618-.677.639.639,0,0,1,.68-.617l18.153.85a.652.652,0,0,1,.618.678.646.646,0,0,1-.646.617" transform="translate(-2184.418 980.451)" fill="#382823"/>
  <path id="path918" d="M2353.062-973.033a.672.672,0,0,1-.268-.057l-5.763-2.593a.65.65,0,0,1-.33-.857.655.655,0,0,1,.858-.325l5.763,2.593a.649.649,0,0,1,.33.857.649.649,0,0,1-.591.382" transform="translate(-2156.438 1114.148)" fill="#382823"/>
  <path id="path920" d="M2271.357-958.075a.642.642,0,0,1-.563-.33.646.646,0,0,1,.24-.883c.831-.47,3.118-1.947,3.709-3.128.405-.81,2.095-3.674,6.807-6.5,2.823-1.692,6.422-11.193,7.576-14.711a.644.644,0,0,1,.818-.415.651.651,0,0,1,.412.817c-.172.535-4.327,13.134-8.139,15.419-3.5,2.1-5.556,4.464-6.312,5.971-.872,1.746-3.887,3.484-4.231,3.676a.638.638,0,0,1-.316.084" transform="translate(-2119.617 1117.617)" fill="#382823"/>
  <path id="path922" d="M2220.414-599.255a.642.642,0,0,1-.625-.49.647.647,0,0,1,.467-.786,14.058,14.058,0,0,0,8.173-6.424c4.32-8.2,13.5-10.646,13.895-10.746a.644.644,0,0,1,.783.466.641.641,0,0,1-.46.788c-.09.024-9.025,2.418-13.078,10.1a15.09,15.09,0,0,1-9,7.075l-.158.02" transform="translate(-2094.918 939.983)" fill="#f5ebe3"/>
  <path id="path924" d="M2274.395-917.053l-.1-.008a.655.655,0,0,1-.549-.735l.542-3.672a.641.641,0,0,1,.735-.547.65.65,0,0,1,.549.735l-.542,3.672a.648.648,0,0,1-.639.554" transform="translate(-2121.089 1087.53)" fill="#382823"/>
  <path id="path926" d="M2268.52-861.917a.646.646,0,0,1-.646-.648v-3.672a.647.647,0,0,1,.646-.648.648.648,0,0,1,.653.648v3.672a.648.648,0,0,1-.653.648" transform="translate(-2118.244 1060.794)" fill="#382823"/>
  <path id="path928" d="M2270.592-800.166a.652.652,0,0,1-.639-.519l-.811-4a.652.652,0,0,1,.508-.764.644.644,0,0,1,.762.507l.811,3.995a.642.642,0,0,1-.508.764l-.124.012" transform="translate(-2118.853 1031.01)" fill="#382823"/>
  <path id="path930" d="M2274.183-733.824l-.075,0a.648.648,0,0,1-.57-.719l.433-3.672a.647.647,0,0,1,.721-.567.649.649,0,0,1,.57.719l-.433,3.672a.654.654,0,0,1-.646.572" transform="translate(-2120.987 998.686)" fill="#382823"/>
  <path id="path932" d="M2289.544-669.221a.649.649,0,0,1-.6-.407l-1.724-4.3a.645.645,0,0,1,.357-.843.65.65,0,0,1,.845.361l1.724,4.3a.645.645,0,0,1-.357.843.661.661,0,0,1-.24.046" transform="translate(-2127.598 967.669)" fill="#382823"/>
  <path id="path934" d="M2317.626-598.51a.649.649,0,0,1-.591-.381l-1.511-3.348a.64.64,0,0,1,.323-.857.65.65,0,0,1,.858.323l1.511,3.348a.652.652,0,0,1-.323.857.658.658,0,0,1-.268.057" transform="translate(-2141.318 932.919)" fill="#382823"/>
  <path id="path936" d="M2353.672-511.065a.655.655,0,0,1-.625-.461l-1.078-3.581a.647.647,0,0,1,.433-.808.648.648,0,0,1,.811.433l1.078,3.581a.647.647,0,0,1-.433.807.622.622,0,0,1-.186.028" transform="translate(-2159.005 890.633)" fill="#382823"/>
  <path id="path938" d="M2298.43-1002.619a.638.638,0,0,1-.206-.034,115.03,115.03,0,0,0-17.494-4.184,86.3,86.3,0,0,0-13.043-1.155.636.636,0,0,1-.666-.626.644.644,0,0,1,.625-.668,84.909,84.909,0,0,1,13.27,1.167,116.224,116.224,0,0,1,17.72,4.239.647.647,0,0,1,.405.821.646.646,0,0,1-.611.441" transform="translate(-2117.83 1129.844)" fill="#382823"/>
  <path id="path940" d="M2134.612-991.01a.646.646,0,0,1-.6-.4.647.647,0,0,1,.35-.846l21.223-8.747a.65.65,0,0,1,.845.352.648.648,0,0,1-.35.846l-21.223,8.748a.635.635,0,0,1-.247.049" transform="translate(-2053.315 1125.849)" fill="#382823"/>
</svg>
