<svg id="Komponente_2_1" data-name="Komponente 2 – 1" xmlns="http://www.w3.org/2000/svg" width="203.676" height="495.238" viewBox="0 0 203.676 495.238">
  <path id="path318" d="M467.206-415.609c-.97-9.906-.569-19.852-1.311-29.775-.661-8.842-.917-17.7-1.516-26.548-.6-8.912-3.14-67.46-4.375-76.367-1.065-7.691-5.532-39.006-6.016-47.131a94.8,94.8,0,0,0-5.3-24.882c-1.457-4.34-2.895-8.681-3.925-13.108-.256-.748-.525-1.491-.762-2.247a.659.659,0,0,0-.594-.487,55.011,55.011,0,0,1-15.31-3.9c-3.972-1.651-7.391-3.08-11.751-2.748-5.092.387-10.127,1.311-15.234,1.62-4.992.3-9.993.386-14.993.4-10,.029-20.014-.227-30,.435a132.28,132.28,0,0,0-13.853,1.622,96.5,96.5,0,0,1-12.912,1.758c.334-.6.654-1.216,1-1.815.411-.719-.656-1.393-1.067-.674-.477.833-.931,1.679-1.394,2.521-.453,0-.907-.027-1.362-.046-.1.429-.211.857-.315,1.285.325.011.65.024.975.032-.623,1.158-1.225,2.328-1.82,3.5-3.662,15.362-6.932,30.822-9.2,46.456-2.328,16.08-2.635,32.222-4.19,48.362-.758,7.861-1.646,15.721-1.747,23.627-.1,8.022,1.553,98.12,1.722,102.01.023.529.05,1.054.078,1.578l67.978,1.341c1.085-5.087,2.558-10.1,3.921-15.14,2.565-9.477,1.116-18.758,1.146-28.6.047-15.218,2.03-34.67,2.03-34.67s.918,38.32,3.886,53.312c1.086,5.486-1.142,10.562-1,16.222.077,3.037-.038,6.084.043,9.12L467.6-407.1c.051-1.243.1-2.486.149-3.727-.192-1.592-.39-3.184-.547-4.78" transform="translate(-281.44 902.341)" fill="#ab5855"/>
  <path id="path320" d="M441.111-530.632c-.764,0-4.174-.232-6.717-4.187-2.678-4.166-1.134-48.519-.949-53.563a.637.637,0,0,1,.672-.623.647.647,0,0,1,.623.672c-.72,19.644-1.117,49.919.744,52.812,2.409,3.749,5.667,3.591,5.7,3.592a.653.653,0,0,1,.687.606.647.647,0,0,1-.606.688c-.016,0-.068,0-.15,0" transform="translate(-340.89 876.236)" fill="#382823"/>
  <path id="path322" d="M491.1-975.988l-4.923-14.025-5,4.874s-.182,6.91-.137,7.234,10.064,1.917,10.064,1.917" transform="translate(-364.26 1070.673)" fill="#4d3932"/>
  <path id="path324" d="M473.51-938.3c-2.311-5.726-9.41-7.124-14.772-8.035-16.62-2.825-27.706-8.9-33.612-25.5-3.636-10.22-1.714-19.99.413-30.327a.654.654,0,0,0-.722-.736q-16.273,1.85-32.646,2.355-.042-2.889-.073-5.774c-.008-.831-1.293-.665-1.286.162q.025,2.828.058,5.658c-.435.012-.872.031-1.307.046-.323-.411-1.1-.391-1.14.258-.389,6.944-.193,13.912-.786,20.846-.308,3.6-.426,7.4-1.968,10.729-1.754,3.791-5.146,6.519-8.556,8.767-2.8,1.844-19.114,8.476-19.114,8.476s17.141,16.064,20.168,16.663c8.941,1.77,18.065,3,27.1,4.219a100.809,100.809,0,0,0,24.631-.183,16.573,16.573,0,0,0,6.079,6.485c4.482,2.681,9.75,3.583,14.822,4.44,6.563,1.11,13.129,2.194,19.693,3.292a.666.666,0,0,0,.806-.437,61.408,61.408,0,0,0,2.458-11.665c.321-3.007.935-6.832-.24-9.743" transform="translate(-304.604 1078.844)" fill="#ffa18a"/>
  <path id="path326" d="M382.64-456.53l7.138-2.353s1.949-79.152,1.466-79.8-52.922-15.879-52.922-15.879l-1.532,8.688L382.64-456.53" transform="translate(-294.32 859.536)" fill="#ffd191"/>
  <path id="path328" d="M333.233-549.532l50.059,16.191-.308,74.191-8,2.666-48.663-88.11,6.915-4.938" transform="translate(-289.242 857.096)" fill="#fff"/>
  <path id="path330" d="M254.667-567.585l88.314,28.877-.315,75.865L254.345-490.1l.322-77.484" transform="translate(-254.345 865.849)" fill="#ffd191"/>
  <path id="path332" d="M451.881-1112.782c-3.494-11.115-9.364-20.506-19.207-26.979-5.167-3.4-10.389-6.33-16.679-6.769a26.884,26.884,0,0,0-14.319,3.023c-3.675.352-7.427.83-10.592,2.552a40.233,40.233,0,0,0-9.536,7.7c-6.445,6.8-8.778,14.226-8.022,23.473a41.13,41.13,0,0,1,.308,7.093c-.232,2.487-1.208,4.861-1.165,7.382a14.831,14.831,0,0,0,2.67,7.48c3.254,5.151,6.533,10.607,11.105,14.71,2.422,2.172,5.8,3.778,8.118,6.182-.053.373-.117.742-.151,1.12-.071.762,1,.834,1.242.205a8.366,8.366,0,0,1,1.027,1.971c.276.779,1.535.468,1.256-.321a10.012,10.012,0,0,0-2.023-3.363c.069-.412.159-.819.251-1.225a31.9,31.9,0,0,0,4.721,2.832,21.126,21.126,0,0,0,7.1,2.071c3.384.317,6.618-.8,9.983-.832,2.994-.032,5.985.737,8.98.337a14.881,14.881,0,0,0,6.781-3.043,34.527,34.527,0,0,0,6.513-5.765c2.157-2.648,3.043-6.078,5.142-8.794,3.429-4.438,6.559-7.98,7.739-13.666a34.759,34.759,0,0,0-1.241-17.376" transform="translate(-311.716 1146.594)" fill="#4d3932"/>
  <path id="path334" d="M450.837-1089.156a56.912,56.912,0,0,0,.521-5.832c.153-9.38.545-16.567-5.4-24.788-4.053-5.609-10.9-8.939-17.814-10.753-9.152-2.4-19.558-2.186-26.905,3.771-8.233,6.675-11.32,12.716-12.582,22.627-1.41,11.07-.686,19.436,2.039,30.388a53.932,53.932,0,0,0,6.711,16.532,30.708,30.708,0,0,0,13.77,11.869,25.769,25.769,0,0,0,23.513-2.164c6.192-4.145,9.75-11.02,11.728-17.792a121.914,121.914,0,0,0,4.415-23.859" transform="translate(-319.129 1139.499)" fill="#ffa18a"/>
  <path id="path336" d="M418.261-1051.017c-3.157-.837-3.1,6.9-.756,7.109a1.94,1.94,0,0,0,1.524-.646c1.358-1.415,1.63-5.829-.768-6.464" transform="translate(-332.635 1100.282)" fill="#382823"/>
  <path id="path338" d="M476.392-1050.776c-3.157-.836-3.1,6.9-.756,7.109a1.942,1.942,0,0,0,1.525-.646c1.357-1.416,1.63-5.828-.769-6.464" transform="translate(-360.821 1100.165)" fill="#382823"/>
  <path id="path340" d="M446.119-1025.81a.641.641,0,0,1-.375-.121c-3.46-2.463-3.407-3.3-3.39-3.577a9.181,9.181,0,0,1,.685-2.166,36.416,36.416,0,0,0,1.2-3.475,23.676,23.676,0,0,0,.5-6,.648.648,0,0,1,.617-.678.656.656,0,0,1,.678.616,24.631,24.631,0,0,1-.55,6.4,37.334,37.334,0,0,1-1.237,3.6,11,11,0,0,0-.6,1.781,15.72,15.72,0,0,0,2.848,2.441.647.647,0,0,1,.152.9.648.648,0,0,1-.528.273" transform="translate(-345.503 1095.794)" fill="#f2795c"/>
  <path id="path342" d="M430.526-999.715a83.486,83.486,0,0,0,9.886.759c6.7.111,9.945-.189,9.945-.189s-3.4,6.2-10.673,5.418-9.158-5.989-9.158-5.989" transform="translate(-339.77 1075.377)" fill="#f2795c"/>
  <path id="path344" d="M436.553-964.972c-.334,0-.673-.008-1.018-.025-9.747-.5-16.5-7.517-16.778-7.815a.649.649,0,0,1,.025-.916.648.648,0,0,1,.916.024c.067.069,6.687,6.938,15.9,7.412a18.843,18.843,0,0,0,14.692-6.236.649.649,0,0,1,.911-.1.65.65,0,0,1,.1.912,19.942,19.942,0,0,1-14.749,6.742" transform="translate(-333.978 1062.863)" fill="#f2795c"/>
  <path id="path346" d="M417.078-1066.044a2.966,2.966,0,0,0-1.619-1.087c-4.428-1.424-10.133-.171-12.851,3.8a.966.966,0,0,0-.2.463.707.707,0,0,0,.668.666,2.117,2.117,0,0,0,1-.234,17.509,17.509,0,0,1,8.483-1.666,9.422,9.422,0,0,0,3.265.153,1.734,1.734,0,0,0,1.433-1.394,1.2,1.2,0,0,0-.179-.7" transform="translate(-326.133 1108.339)" fill="#4d3932"/>
  <path id="path348" d="M467.5-1066.165a2.971,2.971,0,0,1,1.653-1.034c4.471-1.283,10.134.152,12.724,4.2a.978.978,0,0,1,.19.469.707.707,0,0,1-.689.644,2.1,2.1,0,0,1-1-.265,17.517,17.517,0,0,0-8.426-1.935,9.411,9.411,0,0,1-3.268.049,1.732,1.732,0,0,1-1.387-1.44,1.2,1.2,0,0,1,.2-.692" transform="translate(-357.602 1108.319)" fill="#4d3932"/>
  <path id="path350" d="M499.81-1050.718s5.45-2.363,5.577,5.976-3.236,13.647-7.554,13.485-4.695-6.679-4.695-6.679l6.671-12.783" transform="translate(-370.129 1100.256)" fill="#ffa18a"/>
  <path id="path352" d="M386.4-1054.269s-5.113-3.026-6.279,5.233,1.507,13.945,5.811,14.323,5.491-6.04,5.491-6.04l-5.023-13.516" transform="translate(-315.196 1102.091)" fill="#ffa18a"/>
  <path id="path354" d="M443.745-1123.98c-7.042-8.26-21.439-17.73-32.867-13.559a3.293,3.293,0,0,0-2.059-.432c-2.168.175-4.471,1.757-6.387,2.642-2.533,1.17-5.788,1.363-8.082,2.92-1.721,1.168-2.8,3.355-3.838,5.086a61.937,61.937,0,0,0-3.9,7.69,62.829,62.829,0,0,0-4.328,15.883.524.524,0,0,0-.33.525c.009.536.036,1.063.071,1.587l-.018.146a.6.6,0,0,0,.052.317,29,29,0,0,0,.876,5.123c.1.364,1.745.694,2.11.655a7.71,7.71,0,0,0,4.767-2c2.224-1.722,1.609-3.461,2.492-5.885a33.33,33.33,0,0,1,2.531-4.627,6.285,6.285,0,0,0,1.745,2.662,1.5,1.5,0,0,0,1.324.226c1.939-.554,4.368-.621,5.666-2.327.828-1.517,1-3.225,2.106-4.684,1.071-1.416,2.543-2.484,3.729-3.795,2.212-2.442,2.486-5.156,2.462-7.962a10.068,10.068,0,0,0,2.281,3.3,14.7,14.7,0,0,0,4.391,2.731c2.453,1.044,6.144,1.094,7.771,3.314,1.209,1.65,1.188,3.743,2.769,5.21,1.469,1.365,3.583,2.058,5.281,3.089a20.651,20.651,0,0,1,6.111,5.256,12.427,12.427,0,0,1,2.279,6.519c.105,1.447-.753,3.956.36,5.16,1.745,1.887,4.608-.725,5.037-2.471a60.875,60.875,0,0,0,1.748-11.622c.3-7.107-1.484-15.206-6.15-20.679" transform="translate(-316.22 1142.697)" fill="#4d3932"/>
  <path id="path356" d="M458.018-878.333a16.4,16.4,0,0,0-.038-2.009,5.827,5.827,0,0,0-.26-1.3c-.466-1.374-1.529-2.177-3.693-3.214-5.21-2.475-10.95-3.006-16.665-3.045h-.155c-2.19-.026-4.381.039-6.532.078-6.48.142-12.972.349-19.231-1.5-6.816-2.035-36.065-5.119-43.932-6.532-8.463-1.516-22.769-4.756-29.871-5.974a18.636,18.636,0,0,0-7.114,0,12.465,12.465,0,0,0-6.842,4.16c-2.916,3.331-3.681,8.048-3.836,12.752-.026.44-.026.881-.026,1.321-.039,2.333.051,4.627.078,6.713a130.1,130.1,0,0,0-1.089,27.953q.039.642.078,1.283c.506,8.851,1.477,17.715,2.164,26.54a43.6,43.6,0,0,1,.091,7.011c-.025.311-.052.622-.091.933-.013.129-.026.246-.052.376-1.076,8.086-4.73,14.034-1.7,22.121.143.389.3.778.492,1.18a2.765,2.765,0,0,0,.168.4c.777-.778.881,7.827.273,13.218a30.258,30.258,0,0,0,.635,10.665,12.462,12.462,0,0,0,.4,1.4,15.487,15.487,0,0,0,2.838,5.3c1.218,4.924,5.4,6.051,9.719,6.467,1.089.117,2.19.181,3.253.246l.155.013c5.56.363,10,2.4,15.577,1.089,3.6-.855,7.218-1.737,10.82-2.631h.013c1.568-.376,3.149-.765,4.717-1.154,3.058-.738,10.691-3.654,13.516-2.527,4.083,1.62,9.149,1.3,13.452,2.41,3.668.96,7.089,2.735,10.86,3.318a32.315,32.315,0,0,0,9.6-.4h.013c.907-.143,1.8-.285,2.7-.415a114.969,114.969,0,0,1,14.631-1.036c3.486-.052,11.676-1.037,16.549-.739a12.764,12.764,0,0,1,2.281.311c1.309.324,2.8-1.736,3.965-4.834a34.493,34.493,0,0,0,2.087-11.987c0-.234,0-.454-.013-.674,0-.194-.013-.389-.013-.57-.052-1.218-.077-2.411-.064-3.616.025-4.677-2.955-10.561-3.564-15.421-.234-1.892-.415-3.6-.545-5.17-.038-.453-.065-.907-.091-1.335-.648-9.954.92-13.827,2.411-23.767.065-.415.116-.855.194-1.309.208-1.5.415-3.149.609-4.963.96-8.721.83-17.431.713-26.165,0-.44,0-.868-.013-1.308-.025-3.227-.052-6.454,0-9.681.078-4.665.22-9.318.376-13.983" transform="translate(-285.27 1028.079)" fill="#f5ebe3"/>
  <path id="path358" d="M309.351-492.938c-.826-6.9-1.374-4.545-1.61-11.469a12.454,12.454,0,0,0-1.7-6.575,51.521,51.521,0,0,0-4.929-5.107s.552-20.577.711-25.415q.475-14.515,1.113-29.024a.705.705,0,0,0,.032-.747c.023-.5.041-1,.064-1.494a.649.649,0,0,0-1.3-.025c-.018.388-.032.776-.049,1.164-7.884-.425-15.529,1.7-23.306,2.624-.119-2.388-.251-4.774-.359-7.163-.037-.829-1.333-.86-1.3-.025.111,2.445.245,4.888.367,7.332-1.232.122-2.467.209-3.708.245-.831.024-.86,1.319-.024,1.3,1.27-.036,2.534-.126,3.8-.254.914,18.105,4.456,54.521,4.456,54.521s-2.3,13.617-1.724,20.526c.339,4.087.034,8.022,5.343,8.158,1.1.028,1.446,1.2,2.232,1.731.641.43,2.4.418,2.719.95,1.824,3.052,5.1.525,7.713,2.082,2.069,1.234,3.982,4.833,6.866,2.667,2.386-1.793,1.326-5.516,1.082-7.965-.085-.854-.142-1.71-.206-2.565a3.405,3.405,0,0,0,1.039,1.406c3.9,2.708,2.824-5.594,2.671-6.873" transform="translate(-263.27 870.321)" fill="#ffa18a"/>
  <path id="path360" d="M309.091-805.668c-.025-2.838-.091-5.663-.22-8.476-.013-.427-.038-.855-.065-1.282a253.139,253.139,0,0,0-3.421-30.934c-.065-.428-.142-.868-.234-1.3-.324-1.879-.674-3.771-1.049-5.663-1.736-8.735-3.589-17.469-4.587-26.333-.065-.583-.13-1.179-.181-1.762-.039-.44-.078-.868-.117-1.308-.3-3.539-.415-7.063-.441-10.627a11.73,11.73,0,0,0-1.2-6.065c.725-.311,1.477-.609,2.268-.868a.694.694,0,0,0,.091-1.257.647.647,0,0,0-.415,0,28.944,28.944,0,0,0-16,13.944c-.324.609-.635,1.218-.933,1.84-.194.4-.376.8-.558,1.219q-.5,1.127-.933,2.293c-3.991,10.783-9.434,22.225-9.953,33.526-.025.427-.038.842-.038,1.257v.026a91.374,91.374,0,0,1-2.657,21.447,84.944,84.944,0,0,0-1.8,9.772c-.065.427-.117.855-.168,1.3-.311,2.359-.583,4.743-.881,7.153a116.668,116.668,0,0,0-.635,16.212c0,.376,0,.764.013,1.141,0,.972.013,1.931.026,2.9.038,3.188.091,6.388-.065,9.59-.207,3.939,1.127,7.01-.687,10.471a17.7,17.7,0,0,0-1.879,6.169c-.065.415-.1.829-.143,1.257-.531,6.6,1.218,13.7-.466,20.074l-.13-.026c-1.348-.207-2.682-.713-4.043-.194a3.622,3.622,0,0,0-1.451,1,3.554,3.554,0,0,0-.726,1.205c-.725,1.918-.246,4.509.1,6.35.635,3.213.881,5.572-.129,8.721-2.475,7.7,11.041,9.4,15.279,9.641,2.981.182,5.974.35,8.968.531q9.272.545,18.571,1.1a.66.66,0,0,0,.661-.635q.932-6.92,1.387-13.88c.038-.427.065-.855.078-1.3.065-.855.117-1.723.155-2.578.4-1.153.8-2.319,1.192-3.486a.543.543,0,0,0,.13-.363c.1-.324.22-.648.337-.972a126.028,126.028,0,0,0,4.355-16.665q.524-2.76.855-5.559c.4-3.331,1.244-8.061,2.113-13.024.078-.454.155-.92.233-1.374.933-5.339,1.841-10.821,2.216-15.033.038-.415.078-.83.091-1.218q.058-.7.078-1.322c.285-8.164-2.9-8.476-2.981-16.64" transform="translate(-254.673 1027.791)" fill="#f5ebe3"/>
  <path id="path362" d="M503.56-619.713s41.931,27.82,44.195,29.018,14.606-4.258,11.463-12.584c-2.963-7.849,2.027-19.975,2.027-19.975l-33.678-3.811-24.006,7.352" transform="translate(-375.182 894.69)" fill="#f5ebe3"/>
  <path id="path364" d="M592.735-775.138c-.194-.714-.388-1.439-.583-2.151-.117-.453-.246-.92-.376-1.387-1.3-4.653-2.657-9.331-3.615-14.062-1.219-6.051-.751-11.689-1.5-17.442-.039-.4-.1-.791-.168-1.192a29.88,29.88,0,0,0-2.009-7.115c-2.89-6.777-6.752-12.674-8.669-19.607-.13-.453-.247-.907-.35-1.374-.13-.532-.234-1.076-.337-1.62a122.774,122.774,0,0,0-5.145-19.413,30.033,30.033,0,0,0-3.2-6.868,8.783,8.783,0,0,0-.907-1.166,7.817,7.817,0,0,0-1.931-1.659c-5.857-3.5-13.439-4.548-20.022-4.3h-.155c-.83.026-1.205,4.276-.376,4.251a83.464,83.464,0,0,1,9.694.194,20.337,20.337,0,0,1-2.139,4.2c-.323.492-.674.972-1.023,1.451-4.134,5.521-9.992,9.772-11.314,17.2a46.033,46.033,0,0,0-.622,5.65c-.025.428-.038.856-.052,1.3-.091,2.916-.013,5.832.026,8.721.1,6.13.207,12.247.35,18.376.026,1.348.065,2.683.1,4.03.013.428.013.855.038,1.3.208,7.866.519,15.732,1,23.586.025.44.065.881.091,1.322.142,2.372.324,4.743.5,7.114.441,5.392.933,10.782,1.62,16.16.038.35.078.687.13,1.037a1.2,1.2,0,0,0,.038.207c.7,4.7,4.406,5.793,8.423,7.866,1.724.881,2.8,2.618,3.681,4.587.8,1.789,1.464,3.771,2.306,5.495a7.455,7.455,0,0,0,3.707,4.043,81.513,81.513,0,0,0,15.136,4.264c2.916.454,5.521.519,7.05-.168,3.824-1.71,8.592-9.486,11.314-12.584,1.011-1.153,1.438-3.045,1.62-5.157.039-.453.065-.907.078-1.374.13-3.085-.117-6.415.207-8.592.726-5.041-1.361-10.3-2.618-15.11" transform="translate(-391.827 1014.678)" fill="#f5ebe3"/>
  <path id="path366" d="M540.033-596.859c4.629,3.326,9.494,6.307,14.389,9.224,1.574.938,3.21,1.8,4.875,2.629,2.521-6.594,4.8-13.276,6.774-20.063a.591.591,0,0,0-.062-.5c2.236-2.962,4.475-5.919,6.666-8.914q2.363-3.23,4.69-6.486c1.361-1.9,3.225-3.919,4.261-6.023,2.611-5.305-10.884-6.835-13.782-6.987-7.667-.4-12.022,8.234-16.342,13.5a107.7,107.7,0,0,0-11.906,17.852c-.63,1.19-1.453,2.519-2.17,3.883.885.657,1.764,1.287,2.609,1.894" transform="translate(-391.602 898.052)" fill="#ffa18a"/>
  <path id="path368" d="M374.21-617.1l-30.92,18.188s-4.656-6.512-3.031-7.558,4.442-13.761,8.247-14.671,25.7,4.041,25.7,4.041" transform="translate(-295.835 891.873)" fill="#f5ebe3"/>
  <path id="path370" d="M389.188-995.715c-.128-2.792-.4-5.789-.793-8.63-.176-1.265-.173-9.382-2.479-8.434-1.364.56-1.566,5.186-1.814,6.456a64.059,64.059,0,0,0-1.157,8.552,17.54,17.54,0,0,0,0,2.03l6.247.026" transform="translate(-316.684 1081.748)" fill="#e35f4b"/>
  <path id="path372" d="M385.785-1020.08c-3.253.9-.722,7.483,2.624,4.482a2.64,2.64,0,0,0-2.236-4.553,2.31,2.31,0,0,0-.388.071" transform="translate(-317.344 1085.294)" fill="#ffe8db"/>
  <path id="path374" d="M508.943-995.218c-.128-2.791-.4-5.789-.793-8.63-.175-1.265-.173-9.382-2.479-8.434-1.364.561-1.565,5.186-1.813,6.456a63.947,63.947,0,0,0-1.157,8.552,17.56,17.56,0,0,0,0,2.03l6.247.026" transform="translate(-374.75 1081.507)" fill="#e35f4b"/>
  <path id="path376" d="M505.54-1019.582c-3.254.9-.723,7.483,2.624,4.482a2.641,2.641,0,0,0-2.236-4.554,2.292,2.292,0,0,0-.388.071" transform="translate(-375.41 1085.053)" fill="#ffe8db"/>
  <path id="path378" d="M318.858-397.611a.648.648,0,0,1-.638-.541l-1.054-6.269a.648.648,0,0,1,.532-.747.649.649,0,0,1,.747.532l1.054,6.268a.647.647,0,0,1-.531.747l-.109.01" transform="translate(-284.8 787.102)" fill="#f2795c"/>
  <path id="path380" d="M333.558-420.411a.648.648,0,0,1-.638-.541l-2.213-13.183a.649.649,0,0,1,.532-.747.64.64,0,0,1,.747.532l2.213,13.184a.649.649,0,0,1-.532.747l-.108.009" transform="translate(-291.366 801.511)" fill="#f2795c"/>
  <path id="path382" d="M453.491-596.782H391.223a.648.648,0,0,1-.648-.648.648.648,0,0,1,.648-.648h62.268a.648.648,0,0,1,.648.648.648.648,0,0,1-.648.648" transform="translate(-320.399 880.635)" fill="#382823"/>
  <path id="path384" d="M457.027-500.09a.648.648,0,0,1-.646-.6c-.411-5.858-1.556-27.744-1.777-35.247-.214-7.269-.1-55.786-.1-56.276a.648.648,0,0,1,.648-.646h0a.647.647,0,0,1,.646.65c0,.488-.117,48.985.1,56.234.22,7.491,1.363,29.344,1.773,35.194a.647.647,0,0,1-.6.692l-.047,0" transform="translate(-351.382 878.105)" fill="#382823"/>
  <path id="path386" d="M455.2-612.1a3.045,3.045,0,0,0-3.045-3.045,3.045,3.045,0,0,0-3.045,3.045,3.045,3.045,0,0,0,3.045,3.045A3.045,3.045,0,0,0,455.2-612.1" transform="translate(-348.782 888.909)" fill="#382823"/>
  <path id="path388" d="M519.072-575.428a.64.64,0,0,1-.363-.112l-9.872-6.7a.647.647,0,0,1-.172-.9.649.649,0,0,1,.9-.172l9.872,6.7a.647.647,0,0,1,.172.9.645.645,0,0,1-.536.284" transform="translate(-377.602 873.526)" fill="#382823"/>
  <path id="path390" d="M455.035-865.592c-.751.155-1.5.3-2.242.427q-7.29,1.4-14.618,2.54c-6.894,1.076-13.827,1.957-20.826,2.528a307.664,307.664,0,0,1-51.254-.1c-13.97-1.192-27.629-3.719-41.352-6.324q-4.18-.778-8.372-1.581c-.583-.1-1.153-.221-1.736-.311-2.4-.44-4.795-.855-7.206-1.231.181-.415.363-.817.558-1.218q3.343.525,6.674,1.128c1.49.272,2.98.557,4.471.842,1.827.35,3.668.713,5.495,1.063,15.2,2.9,30.351,5.572,45.837,6.673a306.2,306.2,0,0,0,52.5-.751c5.443-.557,10.86-1.3,16.238-2.164,4.458-.713,8.9-1.529,13.335-2.384.532-.091,1.063-.2,1.594-.3a8.779,8.779,0,0,1,.907,1.166" transform="translate(-280.084 1012.902)" fill="#637595"/>
  <path id="path392" d="M453.786-807.683c-3.862-.687-7.724-1.348-11.6-1.866a104,104,0,0,0-12.376-.972,121.783,121.783,0,0,0-13.905.674c-3.94.4-7.866.946-11.78,1.556-16.108,2.527-32.009,5.43-48.338,6.194a333.365,333.365,0,0,1-35.275-.738c-4.652-.285-9.3-.583-13.97-.843-1.036-.065-2.086-.117-3.123-.155-5.728-.26-11.482-.35-17.2-.078v-.026c0-.415.013-.83.038-1.257,5.676-.273,11.391-.194,17.08.078,2.462.091,4.925.234,7.374.389q4.781.311,9.564.6c13.491.8,26.943,1.348,40.5.453,16.626-1.089,32.838-4.587,49.322-6.778,1.944-.259,3.9-.492,5.857-.687a113.611,113.611,0,0,1,20.023-.389c2.073.169,4.133.389,6.194.674,3.758.492,7.516,1.127,11.262,1.8.1.467.22.92.35,1.374" transform="translate(-269.802 984.267)" fill="#637595"/>
  <path id="path394" d="M460.277-750.731a178.423,178.423,0,0,1-21.409,2.553c-.855.039-1.7.078-2.552.1-8.087.259-16.174.025-24.247-.311-12.3-.519-24.583-1.27-36.881-.868-18.778.609-37.012,5.118-55.544,7.671-2.242.324-4.5.6-6.752.843-3.888.414-7.8.713-11.715.8a95.364,95.364,0,0,1-17.6-1.089c-2.138-.35-4.251-.8-6.337-1.335.052-.44.1-.868.168-1.3,2.332.6,4.7,1.1,7.1,1.464a95.97,95.97,0,0,0,16.808.946,153.175,153.175,0,0,0,15.772-1.283c.829-.1,1.659-.22,2.488-.337,21.1-2.9,41.651-7.815,63.1-7.8,9.771.013,19.569.57,29.353.985,8.164.35,16.329.583,24.48.3,4.3-.143,8.605-.428,12.908-.92,3.538-.4,7.1-.986,10.691-1.62.065.4.13.79.168,1.192" transform="translate(-265.447 955.23)" fill="#637595"/>
  <path id="path396" d="M464.345-692.5c-1.8-.376-3.589-.726-5.378-1.089a259.907,259.907,0,0,0-26.4-4.043,143.385,143.385,0,0,0-20.838-.505c-2.644.117-5.274.337-7.919.661-17.612,2.124-34.64,7.594-52.277,9.511-9.966,1.076-20.1.467-30.285-.622-7.555-.8-15.15-1.879-22.7-2.708a165.837,165.837,0,0,0-24.234-1.218c-.013-.376-.013-.765-.013-1.141a167.428,167.428,0,0,1,23.754,1.179l2.7.311c6.894.816,13.75,1.711,20.593,2.359,11.948,1.153,23.87,1.607,35.988-.22,17.586-2.631,34.7-8.048,52.485-9.331.609-.038,1.218-.078,1.828-.1a136.369,136.369,0,0,1,20.838.492,287.244,287.244,0,0,1,31.491,5.08c.13.466.259.933.376,1.387" transform="translate(-264.02 929.885)" fill="#637595"/>
  <path id="path398" d="M464.765-643.364c-.013.466-.039.92-.078,1.374a139.81,139.81,0,0,0-30.493-6.907c-.583-.078-1.179-.143-1.762-.207-6.972-.752-13.983-1.115-20.981-1.232-11.145-.194-22.3.234-33.435.622-9.6.337-19.192.648-28.795.532-9.02-.1-18.091-1.1-27.111-.519a41.147,41.147,0,0,0-5.883.8c-6.532,1.321-12.454,3.953-18.778,6.57-.181.078-.35.143-.532.22a50.718,50.718,0,0,1-24.208,3.681c-1.244-.1-2.488-.247-3.719-.415.039-.428.078-.842.143-1.257a61.207,61.207,0,0,0,10.7.583c6.22-.234,11.728-2.022,17.209-4.212,2.929-1.166,5.845-2.449,8.877-3.655a49.686,49.686,0,0,1,10.535-2.89,76.32,76.32,0,0,1,14.139-.843c9.629.234,19.218.752,28.86.622,9.383-.142,18.765-.544,28.16-.842,7.8-.247,15.72-.4,23.664-.247,7.646.13,15.3.558,22.885,1.439a141.516,141.516,0,0,1,30.6,6.778" transform="translate(-261.446 906.606)" fill="#637595"/>
  <path id="path400" d="M300.674-574.573c-.013.441-.039.869-.078,1.3-2.022,0-4.043,0-6.065-.012a54.225,54.225,0,0,1-22.769-4.679c-5.339-2.371-10.653-4.847-16.005-7.14a3.555,3.555,0,0,1,.726-1.205c3.94,1.7,7.853,3.486,11.728,5.3a74.56,74.56,0,0,0,13.244,5.21,57.535,57.535,0,0,0,13.66,1.219c1.853,0,3.706.012,5.559.012" transform="translate(-255.029 874.93)" fill="#637595"/>
  <path id="path402" d="M323.636-718.1a.651.651,0,0,1-.247-.049,12.487,12.487,0,0,1-6.25-7.2c-2.032-5.485-.909-12.8,4.141-26.991,3.962-11.132.745-20.569-1.178-26.209a33.878,33.878,0,0,1-1.135-3.728c-.525-2.582.431-11.54,1.354-20.2.679-6.356,1.447-13.561,1.117-14.468-.68-.995-11.036-7.169-20.424-12.452a.648.648,0,0,1-.247-.883.645.645,0,0,1,.882-.247c3.317,1.868,19.919,11.268,20.922,12.954.514.867.146,4.866-.961,15.233-.872,8.166-1.859,17.42-1.374,19.806a33.708,33.708,0,0,0,1.091,3.568c1.977,5.8,5.286,15.505,1.173,27.061-4.871,13.69-6.035,21.01-4.148,26.107a11.326,11.326,0,0,0,5.53,6.454.649.649,0,0,1,.352.845.647.647,0,0,1-.6.4" transform="translate(-276.814 993.385)" fill="#382823"/>
  <path id="path404" d="M396.6-640.267l-.179-.025c-.707-.2-17.39-5.018-23.624-8.2-6.3-3.221-8.154-5.438-8.23-5.53a.648.648,0,0,1,.092-.912.647.647,0,0,1,.911.092c.015.019,1.814,2.127,7.816,5.2,6.123,3.131,23.221,8.064,23.393,8.113a.648.648,0,0,1,.444.8.649.649,0,0,1-.623.47" transform="translate(-307.719 908.276)" fill="#382823"/>
  <path id="path406" d="M419.263-638.751a.64.64,0,0,1-.382-.125l-16.365-11.947a.647.647,0,0,1-.141-.905.648.648,0,0,1,.905-.141l16.365,11.948a.648.648,0,0,1,.141.905.649.649,0,0,1-.524.266" transform="translate(-326.059 906.777)" fill="#382823"/>
  <path id="path408" d="M484.952-638.328a.649.649,0,0,1-.619-.457.648.648,0,0,1,.429-.81c.138-.042,13.892-4.28,20.92-7.231,6.9-2.9,13.538-11.741,13.6-11.831a.65.65,0,0,1,.907-.132.648.648,0,0,1,.133.907c-.279.374-6.922,9.22-14.143,12.25-7.087,2.975-20.9,7.233-21.041,7.276a.637.637,0,0,1-.191.029" transform="translate(-365.845 910.134)" fill="#382823"/>
  <path id="path410" d="M577.4-779.782a.645.645,0,0,1-.518-.258.647.647,0,0,1,.126-.907L591.522-791.9a.648.648,0,0,1,.908.127.649.649,0,0,1-.127.907l-14.517,10.956a.645.645,0,0,1-.389.13" transform="translate(-410.668 974.678)" fill="#382823"/>
  <path id="path412" d="M306.063-581.954l-.114-.01c-3.14-.555-30.717-5.441-31.8-5.77a.647.647,0,0,1-.43-.805.65.65,0,0,1,.806-.436c.83.245,19.384,3.565,31.652,5.736a.648.648,0,0,1,.525.75.648.648,0,0,1-.637.536" transform="translate(-263.725 876.234)" fill="#382823"/>
  <path id="path414" d="M276.543-562.727H276.5l-14.468-.924a.649.649,0,0,1-.606-.688.656.656,0,0,1,.688-.606l14.468.925a.647.647,0,0,1,.605.688.648.648,0,0,1-.646.607" transform="translate(-257.778 864.57)" fill="#382823"/>
  <path id="path416" d="M307.48-554.657h0l-26.559-.111a.648.648,0,0,1-.645-.651.647.647,0,0,1,.648-.646h0l26.559.111a.648.648,0,0,1,.645.651.648.648,0,0,1-.648.645" transform="translate(-266.917 860.263)" fill="#382823"/>
  <path id="path418" d="M572.294-657.484a.647.647,0,0,1-.468-.2.647.647,0,0,1,.019-.915,27.874,27.874,0,0,1,18.287-6.8h.119c11.082.046,17.975,4.527,18.263,4.717a.647.647,0,0,1,.183.9.649.649,0,0,1-.9.184,34.731,34.731,0,0,0-17.554-4.5,27.267,27.267,0,0,0-17.5,6.44.646.646,0,0,1-.448.181" transform="translate(-408.195 913.277)" fill="#382823"/>
  <path id="path420" d="M572.347-674.734a.642.642,0,0,1-.187-.028.647.647,0,0,1-.433-.807c.1-.339,1.28-3.43,11-7.494,9.532-3.985,11.5-4.107,11.7-4.107h0a.647.647,0,0,1,.646.65.649.649,0,0,1-.648.646h0c-.055,0-1.968.149-11.194,4.006-9.18,3.838-10.252,6.645-10.26,6.673a.647.647,0,0,1-.62.461" transform="translate(-408.22 923.833)" fill="#382823"/>
  <path id="path422" d="M567.946-713.46a.647.647,0,0,1-.571-.341c-.146-.271-3.566-6.68-3.043-9.739.47-2.752.859-11.171.249-21.272-.686-11.38,1.109-18.241,2.734-21.993,1.873-4.321.064-22.174.045-22.354l-.025-.246,14.156-19.581a.647.647,0,0,1,.9-.146.649.649,0,0,1,.146.905l-13.867,19.181c.226,2.285,1.734,18.365-.168,22.756-1.571,3.622-3.3,10.275-2.631,21.4.615,10.2.215,18.755-.266,21.568-.372,2.177,1.973,7.169,2.907,8.908a.648.648,0,0,1-.264.878.653.653,0,0,1-.306.077" transform="translate(-404.622 983.028)" fill="#382823"/>
  <path id="path424" d="M336-610.582a.624.624,0,0,1-.267-.059.64.64,0,0,1-.327-.835c.087-.2,1.019-2.075,7.031-5.736s25.3-9.055,26.12-9.283a.648.648,0,0,1,.8.451.648.648,0,0,1-.45.8c-.2.056-19.931,5.57-25.794,9.142-5.612,3.418-6.513,5.14-6.522,5.157a.663.663,0,0,1-.59.366" transform="translate(-293.626 894.425)" fill="#382823"/>
  <path id="path426" d="M537.362-618.254l-.155-.018s-4.041-.988-9.375-2.2c-5.175-1.171-15.558-.065-15.661-.054a.646.646,0,0,1-.714-.574.649.649,0,0,1,.574-.714c.433-.048,10.7-1.141,16.088.078,5.347,1.212,9.4,2.2,9.4,2.2a.648.648,0,0,1,.476.783.648.648,0,0,1-.629.495" transform="translate(-379.009 892.383)" fill="#382823"/>
  <path id="path428" d="M482.978-948.158q-.152-.725-.339-1.443c-1.038-3.99-3.223-7.552-4.256-11.5-1.144-4.368-1.5-5.937-3.776-10.073-1.484-2.7-6.408-1.96-6.408-1.96a154.22,154.22,0,0,1-3.161,17.6,53.068,53.068,0,0,1-4.328,10.372,23.652,23.652,0,0,0-2.44,9.788c-.068,2.094.266,4.3-.3,6.351-.606,2.184-2.206,3.7-3.789,5.206-1.926,1.837-2.9,3.137-3.247,5.78-.3,2.273-1.141,5.436.523,7.378a5.41,5.41,0,0,0,4.965,1.5c.274-.293.549-.6.826-.942,2.12-4.486,4.2-8.99,6.754-13.253.538-.9.062,4.877-.556,6.212-.871,1.88-2.411,3.582-3.4,5.475-.953,1.815-1.762,3.575.79,3.491a21.173,21.173,0,0,0,9.04-2.868,30.888,30.888,0,0,0,9.581-9.427c1.572-2.465.291-4.165.006-6.826-.19-1.778-.352-3.692.519-5.328.833-1.566,2.31-2.636,2.845-4.391a22.675,22.675,0,0,0,.161-11.145" transform="translate(-349.43 1062.532)" fill="#4d3932"/>
  <path id="path430" d="M270.4-417.381a.646.646,0,0,1-.222-.039l-13.769-5.021a.648.648,0,0,1-.387-.83.648.648,0,0,1,.831-.387l13.769,5.022a.649.649,0,0,1,.387.831.649.649,0,0,1-.609.425" transform="translate(-255.14 796.083)" fill="#382823"/>
  <path id="path432" d="M382.1-383.209a.643.643,0,0,1-.189-.029l-39.76-12.149a.647.647,0,0,1-.43-.808.647.647,0,0,1,.808-.43l39.759,12.149a.647.647,0,0,1,.431.809.649.649,0,0,1-.62.459" transform="translate(-296.698 782.971)" fill="#382823"/>
  <path id="path434" d="M433.712-1124.693a.645.645,0,0,1-.48-.212,15.45,15.45,0,0,1-3.174-6.223,24.4,24.4,0,0,0-1.67-5.032.649.649,0,0,1,.268-.876.65.65,0,0,1,.876.267,24.788,24.788,0,0,1,1.785,5.337,14.375,14.375,0,0,0,2.875,5.657.649.649,0,0,1-.045.915.646.646,0,0,1-.435.168" transform="translate(-338.697 1141.996)" fill="#382823"/>
  <path id="path436" d="M407.366-1099.588l-.1-.009a.647.647,0,0,1-.536-.743,28.294,28.294,0,0,1,4.138-10.195,19.375,19.375,0,0,1,8.253-6.829.647.647,0,0,1,.837.37.647.647,0,0,1-.37.838,18.415,18.415,0,0,0-7.647,6.345,27.48,27.48,0,0,0-3.933,9.678.649.649,0,0,1-.639.545" transform="translate(-328.226 1132.442)" fill="#382823"/>
  <path id="path438" d="M381.346-1088.2a.648.648,0,0,1-.6-.4.649.649,0,0,1,.355-.845c.05-.021,5.045-2.108,6.4-6.294,1.453-4.5,1.969-6.182,3.715-12.4,1.778-6.327,8.425-10.463,8.707-10.636a.649.649,0,0,1,.891.214.649.649,0,0,1-.213.891c-.065.04-6.5,4.05-8.138,9.881-1.752,6.236-2.271,7.926-3.728,12.443-1.539,4.769-6.912,7-7.14,7.1a.637.637,0,0,1-.244.048" transform="translate(-315.61 1133.153)" fill="#382823"/>
  <path id="path440" d="M482.078-1083.2a.648.648,0,0,1-.648-.646,35.6,35.6,0,0,0-.519-6c-.4-1.73-1.859-5-7.111-7.456-3.24-1.517-5.433-4.345-7.554-7.079a35.912,35.912,0,0,0-4.3-4.9c-4-3.557-11.092-3.08-11.164-3.078a.636.636,0,0,1-.694-.6.648.648,0,0,1,.6-.694c.313-.024,7.718-.516,12.12,3.4a36.847,36.847,0,0,1,4.464,5.076c2.12,2.734,4.122,5.316,7.08,6.7,5.749,2.691,7.37,6.378,7.824,8.336a36.082,36.082,0,0,1,.552,6.293.705.705,0,0,1-.648.65" transform="translate(-349.253 1130.64)" fill="#382823"/>
  <path id="path442" d="M511.272-1073.314l-.16-.02a.649.649,0,0,1-.469-.787c.016-.062,1.536-6.219-.5-10.7-2.029-4.464-8.278-7.206-8.34-7.234a.647.647,0,0,1-.338-.851.647.647,0,0,1,.851-.339c.276.119,6.769,2.964,9.007,7.886,2.229,4.9.647,11.288.578,11.557a.647.647,0,0,1-.627.488" transform="translate(-374.14 1120.753)" fill="#382823"/>
  <path id="path444" d="M477.806-914.8l-.105-.008a.647.647,0,0,1-.535-.744c.063-.383,1.562-9.456,4.285-14.358,2.886-5.2,3.249-12.54,3.292-13.96a47.774,47.774,0,0,0-1.185-8.8.648.648,0,0,1,.488-.775.646.646,0,0,1,.775.488,47.917,47.917,0,0,1,1.216,9.127c-.045,1.472-.423,9.094-3.455,14.55-2.613,4.7-4.124,13.846-4.138,13.937a.649.649,0,0,1-.639.543" transform="translate(-362.38 1052.952)" fill="#382823"/>
  <path id="path446" d="M495.9-942.643l-.144-.017a.649.649,0,0,1-.489-.775,34.483,34.483,0,0,0,.524-6.769c0-4.347-2.617-10.261-2.643-10.32a.647.647,0,0,1,.328-.856.646.646,0,0,1,.856.328c.113.252,2.756,6.228,2.756,10.849a35.061,35.061,0,0,1-.556,7.055.648.648,0,0,1-.631.5" transform="translate(-370.105 1056.817)" fill="#382823"/>
  <path id="path448" d="M506-1030.079a.644.644,0,0,1-.316-.083.648.648,0,0,1-.249-.881,8.307,8.307,0,0,0,1.023-3.451,6.629,6.629,0,0,0-.238-1.958.659.659,0,0,1,.326-.848.636.636,0,0,1,.843.29,6.585,6.585,0,0,1,.364,2.477,9.486,9.486,0,0,1-1.188,4.124.646.646,0,0,1-.565.331" transform="translate(-376.052 1093.631)" fill="#f2795c"/>
  <path id="path450" d="M389.645-1032.747a.647.647,0,0,1-.565-.331,9.483,9.483,0,0,1-1.188-4.122,6.618,6.618,0,0,1,.364-2.478.648.648,0,0,1,.87-.29.648.648,0,0,1,.29.869h0a7.066,7.066,0,0,0-.227,1.938,8.314,8.314,0,0,0,1.023,3.451.648.648,0,0,1-.249.881.646.646,0,0,1-.317.083" transform="translate(-319.097 1094.927)" fill="#f2795c"/>
</svg>
